<?xml version="1.0" standalone="no"?>
<!DOCTYPE svg PUBLIC "-//W3C//DTD SVG 1.1//EN" "http://www.w3.org/Graphics/SVG/1.1/DTD/svg11.dtd" >
<svg xmlns="http://www.w3.org/2000/svg">
<metadata>
This is a custom SVG webfont generated by Font Squirrel.
Copyright   : Copyright c SIL International 20032010
Designer    : J Victor Gaultney Annie Olsen Iska Routamaa
Foundry     : SIL International
Foundry URL : httpscriptssilorg
</metadata>
<defs>
<font id="GentiumPlusRegular" horiz-adv-x="0" >
<font-face units-per-em="2048" ascent="1638" descent="-410" />
<missing-glyph horiz-adv-x="451" />
<glyph unicode=" "  horiz-adv-x="451" />
<glyph unicode="&#x09;" horiz-adv-x="451" />
<glyph unicode="&#xa0;" horiz-adv-x="451" />
<glyph unicode="!" horiz-adv-x="557" d="M152 72q0 34 11 63.5t30 52t44.5 35.5t53.5 13q50 0 74.5 -29.5t24.5 -83.5q0 -35 -10.5 -64.5t-29 -51.5t-44 -34.5t-54.5 -12.5q-54 0 -77 29t-23 83zM176 1398q38 25 80 46.5t76 35.5l43 -25l-49 -1066q-19 -14 -34 -22.5t-40 -16.5l-29 21z" />
<glyph unicode="&#x22;" horiz-adv-x="870" d="M160 1426q11 6 32 14.5t44 16.5l42 15q20 6 31 8l43 -21l-43 -625q-8 -4 -19.5 -8t-24.5 -7t-26.5 -4.5t-25.5 -1.5zM518 1426q11 6 31.5 14.5t43.5 16.5l43 15q21 6 32 8l43 -21l-43 -625q-8 -4 -19.5 -8t-25 -7t-27 -4.5t-25.5 -1.5z" />
<glyph unicode="#" horiz-adv-x="961" d="M87 500q5 20 13 45t17 45h172l73 256h-144l-25 24q5 22 14 46l17 45h171l83 290q22 16 44 24t44 17l29 -22l-89 -309h188l83 290q22 16 45 24l45 17l27 -22l-88 -309h151l25 -25q-5 -22 -14 -47.5t-17 -42.5h-178l-73 -256h151l22 -27q-5 -20 -12.5 -45.5t-15.5 -42.5 h-178l-87 -305q-18 -14 -42 -24t-50 -19l-26 20l93 328h-189l-87 -305q-18 -14 -41 -24t-49 -19l-26 20l93 328h-147zM399 590h189l73 256h-188z" />
<glyph unicode="$" horiz-adv-x="961" d="M88 195.5q0 37.5 3 77t11 67.5l43 -4q48 -103 122 -156.5t165 -65.5v479q-62 23 -121.5 48t-107 60.5t-76.5 85.5t-29 124q0 42 16.5 90.5t55.5 91t103 74.5t159 43v146q14 8 20 12t11 6.5t11.5 4t21.5 5.5l26 -22v-148q46 -1 89.5 -7.5t81.5 -18.5t68 -28.5t50 -35.5 q6 -7 -1.5 -25.5t-21.5 -40t-31 -42.5t-30 -33l-39 8q-40 46 -82 74t-84 40v-377q62 -24 123 -52t109 -68.5t78 -96t30 -134.5q0 -60 -21.5 -122t-64.5 -115t-106.5 -92t-147.5 -52v-139q-9 -8 -15.5 -12.5t-13 -7.5t-14.5 -5.5t-20 -5.5l-27 22v142q-48 1 -89 7t-80 19 t-78 32.5t-83 47.5q-7 5 -10.5 33.5t-3.5 66zM225 958q0 -38 16 -66.5t44 -51.5t66 -41.5t81 -35.5v352q-58 -2 -97.5 -16.5t-64 -36.5t-35 -49.5t-10.5 -54.5zM522 113q40 5 77 22.5t65.5 45t45.5 64t17 79.5q0 47 -16 83t-44 63.5t-65.5 48.5t-79.5 39v-445z" />
<glyph unicode="%" horiz-adv-x="1413" d="M76 897q0 69 24 130.5t64.5 107t93.5 72.5t111 27q60 0 109 -26.5t84.5 -72.5t55 -107t19.5 -131q0 -69 -24 -130.5t-64.5 -108t-94 -73.5t-112.5 -27t-107.5 27t-84 73.5t-55 108t-19.5 130.5zM199 1l856 1187q28 17 65 29t68 20l29 -33l-859 -1187q-9 -7 -26.5 -14.5 t-37.5 -14.5l-40 -12l-31 -10zM221 920q0 -72 11 -125t30.5 -87.5t47 -51.5t59.5 -17q24 0 46.5 15t39.5 45t27 74.5t10 103.5q0 71 -12.5 123t-33.5 86t-48 50.5t-56 16.5q-22 0 -43.5 -14.5t-39 -43.5t-28 -72.5t-10.5 -102.5zM778 309q0 69 24.5 130.5t65 107.5 t93.5 72.5t110 26.5q60 0 109 -26.5t84 -72t54 -107t19 -131.5q0 -69 -24 -130.5t-64 -108t-93.5 -73.5t-111.5 -27t-107 27t-84 73.5t-55 108t-20 130.5zM924 332q0 -72 11 -125t30.5 -87.5t46.5 -51.5t59 -17q25 0 47 15t39 45t27 74.5t10 103.5q0 70 -12.5 122 t-33.5 86.5t-48 51t-56 16.5q-22 0 -43.5 -14.5t-38.5 -43.5t-27.5 -72.5t-10.5 -102.5z" />
<glyph unicode="&#x26;" horiz-adv-x="1366" d="M80 352q0 56 20 114t58 115t94 112t128 106q-29 71 -46 139.5t-17 134.5q0 81 27 150t72 119.5t103.5 79t121.5 28.5q64 0 107.5 -20.5t70 -54.5t38 -78.5t11.5 -92.5q0 -105 -65.5 -196.5t-184.5 -165.5l-36 -24l-33 -22q35 -65 78.5 -130t92 -128t100 -122t102.5 -111 q32 50 48.5 101t16.5 96q0 42 -14 79t-36.5 64.5t-51.5 43.5t-58 16l-22 28q11 13 32.5 28t41.5 23h444l23 -36q-25 -31 -49.5 -51.5t-49.5 -37.5q-18 9 -41 16t-46.5 12.5t-45.5 8.5t-39 4q11 -18 17.5 -33.5t10 -33.5t4.5 -39.5t1 -50.5q0 -71 -31 -150t-88 -154 q69 -66 127 -112q38 -32 82 -42.5t102 3.5l9 -43q-87 -38 -146.5 -56.5t-81.5 -18.5t-77 40t-127 109q-78 -66 -174 -107.5t-205 -41.5q-93 0 -170 24.5t-132 72.5t-85.5 119.5t-30.5 165.5zM242 373q0 -70 24 -124t64 -90.5t91.5 -55.5t106.5 -19q85 0 156 27t128 72 l-103 113q-53 60 -103.5 126.5t-97 137.5t-83.5 143q-51 -44 -86 -85t-56.5 -81.5t-31 -81t-9.5 -82.5zM444 1130q0 -58 17 -121.5t47 -129.5q68 39 111 77t67.5 75t33.5 72t9 68q0 35 -9 66t-26.5 54.5t-44 37.5t-61.5 14q-36 0 -63 -18.5t-45 -48.5t-27 -68.5t-9 -77.5z " />
<glyph unicode="'" horiz-adv-x="512" d="M160 1426q11 6 32 14.5t44 16.5l42 15q20 6 31 8l43 -21l-43 -625q-8 -4 -19.5 -8t-24.5 -7t-26.5 -4.5t-25.5 -1.5z" />
<glyph unicode="(" horiz-adv-x="649" d="M121 623q0 164 32.5 317t92.5 282t144.5 226.5t187.5 151.5l32 -45q-65 -54 -123 -142t-101.5 -204t-69 -257t-25.5 -301q0 -146 21 -284.5t62 -259t100 -217.5t136 -160l-32 -45q-113 52 -198.5 145.5t-143 216.5t-86.5 270t-29 306z" />
<glyph unicode=")" horiz-adv-x="649" d="M41 -270q64 54 122 142t102 204t69.5 257t25.5 302q0 145 -21 283.5t-61.5 259.5t-100 218t-136.5 159l31 45q113 -51 198.5 -144.5t143.5 -216.5t87 -269.5t29 -305.5q0 -165 -33 -318.5t-93 -282.5t-144.5 -226.5t-187.5 -151.5z" />
<glyph unicode="*" horiz-adv-x="915" d="M70 993l326 140l-302 129q1 12 1.5 27.5t1.5 31.5t3 30.5t6 24.5l35 23l285 -212l-39 326l25 13l28 14q15 7 29 12.5t25 8.5l36 -21l-41 -352l261 196l50 -32q28 -18 44 -35l2 -41l-326 -141l301 -129q-2 -25 -3 -59t-9 -56l-37 -23l-282 211l38 -323l-24 -14 q-13 -7 -28 -14l-28 -12q-13 -5 -24 -7l-39 18l42 352l-261 -196l-24 15l-27 18l-25 18q-11 8 -18 16z" />
<glyph unicode="+" horiz-adv-x="840" d="M61 531q5 20 13.5 43t17.5 43h270v274q19 6 44 15t47 14l24 -23v-280h277l24 -24q-5 -20 -13.5 -44.5t-16.5 -41.5h-271v-271q-20 -10 -44 -18t-46 -13l-25 22v280h-276z" />
<glyph unicode="," horiz-adv-x="469" d="M88 139q9 12 38 27.5t63.5 30t68 24t51.5 8.5q48 -23 64.5 -62.5t16.5 -96.5q0 -39 -15.5 -88t-44.5 -100t-70.5 -99.5t-93.5 -87.5l-45 35q28 32 47.5 62t32.5 62t19 67.5t6 78.5q0 44 -29 70t-93 22z" />
<glyph unicode="-" horiz-adv-x="690" d="M61 479q5 22 13.5 46.5t17.5 44.5h512l25 -24q-6 -22 -14.5 -48t-16.5 -43h-512z" />
<glyph unicode="." horiz-adv-x="469" d="M131 72q0 34 11 63.5t30 52t44.5 35.5t53.5 13q50 0 74.5 -29.5t24.5 -83.5q0 -35 -10.5 -64.5t-29 -51.5t-44 -34.5t-54.5 -12.5q-54 0 -77 29t-23 83z" />
<glyph unicode="/" horiz-adv-x="961" d="M49 -310l701 1861q27 17 60 29t62 20l37 -22l-698 -1862q-10 -7 -26 -14.5t-34 -13.5l-35 -13l-30 -10z" />
<glyph unicode="0" horiz-adv-x="961" d="M76 602q0 129 31 244t86.5 201.5t133.5 137t173 50.5t167 -50t120.5 -136t73 -201.5t24.5 -245.5q0 -129 -30.5 -244t-86 -201t-134 -136.5t-173.5 -50.5t-167 50.5t-120.5 136.5t-73 201t-24.5 244zM240 645q0 -137 20 -242t54.5 -175.5t82 -106.5t103.5 -36 q52 0 93 27.5t69.5 86t43.5 149t15 217.5q0 137 -21.5 241t-57.5 173.5t-83 105t-98 35.5t-92 -27.5t-69.5 -85t-44 -147.5t-15.5 -215z" />
<glyph unicode="1" horiz-adv-x="961" d="M139 1075q42 12 99.5 33t116.5 45.5t112 49t86 42.5l37 -35v-1067q0 -10 11 -21.5t39 -23.5t76.5 -24t123.5 -21v-53h-670v53q78 9 130 20.5t83 23.5t44 23.5t13 22.5v797q0 40 -3 62t-15 36q-6 6 -23 10t-48 3t-78 -7t-113 -20z" />
<glyph unicode="2" horiz-adv-x="961" d="M98 74l208 244l151 188q63 81 104 142.5t65 110t33 88t9 77.5q0 46 -11 86.5t-35 70.5t-62.5 47t-92.5 17q-41 0 -75.5 -20t-59 -50.5t-38.5 -68t-14 -72.5q-17 -9 -30.5 -17t-27.5 -14.5t-30.5 -11t-39.5 -6.5l-27 30q0 52 35 108.5t93 103.5t131.5 77.5t150.5 30.5 q60 0 112.5 -17t91.5 -51.5t61.5 -88t22.5 -126.5q0 -45 -13 -90t-40.5 -97.5t-71 -114.5t-105.5 -140l-143 -173l-184 -216h418q17 0 30.5 7.5t24 20t18 28.5t12.5 33q12 39 17 89l50 -12l-15 -287h-694z" />
<glyph unicode="3" horiz-adv-x="961" d="M68 119l34 67q45 -34 82.5 -56t71 -35.5t66.5 -19t71 -5.5q61 0 111 19.5t86 55.5t55.5 87.5t19.5 115.5q0 75 -23.5 127.5t-60 85.5t-82 47.5t-89.5 14.5h-21q-6 0 -11.5 -1t-13 -2t-22.5 -4l-14 60q92 25 147 58t84.5 68.5t39 71t9.5 66.5q0 34 -10.5 70.5t-33 66 t-56.5 48.5t-82 19q-40 0 -71.5 -14t-52.5 -37.5t-29.5 -54.5t-2.5 -65q-34 -17 -65 -26.5t-74 -12.5l-27 31q0 42 31 89.5t83 87.5t120.5 66.5t144.5 26.5q75 0 128.5 -24t88.5 -63.5t51.5 -89t16.5 -100.5q0 -38 -15 -75t-42.5 -71t-67 -63t-88.5 -51q57 -7 106.5 -34.5 t85.5 -70t57 -97t21 -115.5q0 -84 -27 -159t-80 -131t-131 -88.5t-181 -32.5q-39 0 -80 7t-83.5 24.5t-86 46t-88.5 71.5z" />
<glyph unicode="4" horiz-adv-x="961" d="M55 383l496 791q42 18 75 37t62 34l37 -35v-750h123l26 -30q-21 -32 -38.5 -47.5t-40.5 -32.5h-70v-246q0 -8 6 -14.5t22 -14t43 -15.5t68 -17v-43h-489v43q65 11 106 20.5t64 18t31.5 16.5t8.5 17v235h-497zM213 460h372v580z" />
<glyph unicode="5" horiz-adv-x="961" d="M78 119l35 67q53 -37 96.5 -59.5t80.5 -35t68 -17t60 -4.5q65 0 113.5 25t80.5 66.5t48 95t16 110.5q0 68 -16.5 124t-50 95.5t-85 61.5t-121.5 22q-21 0 -48 -5t-56.5 -15t-59 -25t-55.5 -35l-47 33l14 83l17 101l16 109q9 55 16 107.5t12 99.5t7 82h436q29 0 51 2.5 t38 6.5q18 4 32 9l29 -29q-11 -16 -25.5 -33.5t-29.5 -33.5t-29.5 -29.5t-26.5 -22.5h-387q-2 -29 -7 -74.5t-11.5 -93t-13.5 -89.5t-11 -64q40 12 94 19t105 7q91 0 160.5 -30.5t116.5 -81.5t71.5 -118t24.5 -140q0 -87 -26.5 -166.5t-77 -140.5t-124.5 -97t-168 -36 q-93 0 -184 34t-178 115z" />
<glyph unicode="6" horiz-adv-x="961" d="M110 473q0 141 40.5 270.5t124.5 233.5t211.5 175.5t301.5 96.5l19 -59q-118 -27 -209.5 -81.5t-157 -126.5t-106 -157.5t-55.5 -174.5q35 34 71.5 57t71 37t65.5 20t54 6q81 0 144 -25t106.5 -71.5t66.5 -113t23 -148.5q0 -47 -10.5 -98t-32 -100t-53 -93t-73 -77.5 t-93.5 -53.5t-113 -20q-82 0 -154 36.5t-126 102.5t-85 158.5t-31 205.5zM270 536q0 -119 19.5 -205.5t55.5 -143.5t87 -84.5t113 -27.5q54 0 89.5 25.5t57 65t30.5 88t9 94.5q0 94 -22.5 154.5t-56.5 95.5t-74.5 48.5t-77.5 13.5q-51 0 -112.5 -28.5t-117.5 -95.5z" />
<glyph unicode="7" horiz-adv-x="961" d="M104 948q3 23 8 58t11 72l12 70q6 35 12 57h705l33 -38l-93 -218l-92 -217l-85 -208l-75 -190l-63 -163q-28 -74 -45 -127q-35 -25 -73.5 -43t-88.5 -31l-41 33q87 153 156 292l128 269l112 257l108 254h-454q-15 0 -29 -1t-29 -13.5t-32.5 -42.5t-38.5 -88z" />
<glyph unicode="8" horiz-adv-x="961" d="M94 285q0 54 18.5 104.5t53 96t83 85.5t108.5 73q-43 20 -81.5 44t-67.5 56t-46 73.5t-17 97.5q0 69 27.5 128t75.5 101.5t113.5 66.5t140.5 24t133.5 -20t99 -55t61.5 -84t21 -107q0 -42 -15.5 -79.5t-42.5 -72t-64.5 -66.5t-81.5 -63q50 -24 96 -53.5t81 -69.5t56 -92 t21 -121q0 -78 -33 -147t-90 -121.5t-132.5 -83t-160.5 -30.5q-86 0 -152 26t-112 70t-69.5 100.5t-23.5 118.5zM254 315q0 -52 17 -97t49 -78t77.5 -51.5t102.5 -18.5q55 0 94.5 21t64.5 55t36.5 76.5t11.5 86.5q0 66 -23.5 113t-61.5 81t-87 59t-101 48q-48 -35 -82 -68.5 t-55.5 -68.5t-32 -74t-10.5 -84zM275 950q0 -44 21.5 -76.5t57.5 -58t82 -47.5l97 -43q73 53 103.5 106t30.5 107q0 52 -15.5 90.5t-43.5 63.5t-68 37t-89 12q-45 0 -78 -17t-54.5 -44.5t-32.5 -61.5t-11 -68z" />
<glyph unicode="9" horiz-adv-x="961" d="M100 795q0 50 13.5 102.5t39 101.5t62 92t81.5 75t98 50.5t112 18.5q70 0 135.5 -29t116.5 -90.5t81.5 -156.5t30.5 -228q0 -152 -41 -282.5t-125 -231t-212 -168t-302 -92.5l-18 59q133 33 229.5 87t160.5 125.5t98.5 159.5t44.5 189q-27 -30 -59 -54.5t-66.5 -41.5 t-71 -26.5t-70.5 -9.5q-80 0 -142.5 26.5t-106 73.5t-66.5 111t-23 139zM250 856q0 -92 22.5 -150.5t56.5 -92t74.5 -46t77.5 -12.5q69 0 127.5 38.5t100.5 100.5q-2 125 -25.5 209t-58.5 134.5t-77.5 71.5t-82.5 21q-51 0 -91 -20.5t-67.5 -57t-42 -87t-14.5 -109.5z" />
<glyph unicode=":" horiz-adv-x="469" d="M131 72q0 34 11 63.5t30 52t44.5 35.5t53.5 13q50 0 74.5 -29.5t24.5 -83.5q0 -35 -10.5 -64.5t-29 -51.5t-44 -34.5t-54.5 -12.5q-54 0 -77 29t-23 83zM131 797q0 34 11 63.5t30 52t44.5 35.5t53.5 13q50 0 74.5 -29.5t24.5 -83.5q0 -35 -10.5 -64.5t-29 -51.5 t-44 -34.5t-54.5 -12.5q-54 0 -77 29t-23 83z" />
<glyph unicode=";" horiz-adv-x="469" d="M88 139q9 12 38 27.5t63.5 30t68 24t51.5 8.5q48 -23 64.5 -62.5t16.5 -96.5q0 -39 -15.5 -88t-44.5 -100t-70.5 -99.5t-93.5 -87.5l-45 35q28 32 47.5 62t32.5 62t19 67.5t6 78.5q0 44 -29 70t-93 22zM131 797q0 34 11 63.5t30 52t44.5 35.5t53.5 13q50 0 74.5 -29.5 t24.5 -83.5q0 -35 -10.5 -64.5t-29 -51.5t-44 -34.5t-54.5 -12.5q-54 0 -77 29t-23 83z" />
<glyph unicode="&#x3c;" horiz-adv-x="899" d="M61 530q0 2 0.5 3t0.5 3l3 9q0 2 2 8l3 13l3 8q1 3 1.5 6.5t2.5 6.5l2 8l6 18l5 12l2 4l721 270l25 -25l-6 -24l-8 -27l-8 -27l-7 -22l-555 -206l567 -210l17 -36l-20 -18q-8 -8 -18 -16l-20 -15q-11 -8 -26 -17l-668 250z" />
<glyph unicode="=" horiz-adv-x="899" d="M61 382q5 20 13.5 41.5t17.5 41.5h721l25 -25q-5 -21 -14 -43.5t-15 -41.5h-723zM61 680q5 20 13.5 43t17.5 42h721l25 -25q-5 -20 -14 -44l-15 -41h-723z" />
<glyph unicode="&#x3e;" horiz-adv-x="899" d="M61 281l7 23l8 27q4 14 8 26.5t8 21.5l551 206l-565 210l-17 39l45 34l39 31l670 -250l23 -24q-5 -19 -13.5 -48.5t-17.5 -52.5l-721 -268z" />
<glyph unicode="?" horiz-adv-x="887" d="M80 1136v17q0 70 34.5 130t93 104t134.5 68.5t160 24.5q73 0 130 -23t95.5 -64.5t58.5 -99.5t20 -128q0 -75 -23.5 -135t-59.5 -112t-78 -99.5t-79.5 -98t-64.5 -107.5t-32 -128l-6 -96q-19 -14 -33.5 -23.5t-42.5 -17.5l-25 21l-8 116q-3 57 17 113.5t52 111t70.5 108 t71.5 104.5t55 100.5t22 97.5q0 124 -56.5 194t-161.5 70q-36 0 -68.5 -16.5t-57.5 -43.5t-39.5 -63t-14.5 -75q0 -14 3.5 -29t8.5 -29q-32 -17 -67 -25t-80 -13l-27 30q-2 8 -2 16zM301 72q0 34 11 63.5t30 52t44.5 35.5t53.5 13q50 0 74.5 -29.5t24.5 -83.5 q0 -35 -10.5 -64.5t-29 -51.5t-44 -34.5t-54.5 -12.5q-54 0 -77 29t-23 83z" />
<glyph unicode="@" horiz-adv-x="1653" d="M70 465q0 113 30.5 221.5t86.5 205t134 177.5t173 139.5t204 91.5t226 33q149 0 270.5 -50.5t208 -149.5t133.5 -245.5t47 -338.5q0 -87 -19.5 -163.5t-53 -140.5t-77 -115t-90.5 -86.5t-95 -54.5t-91 -19q-24 0 -46 10.5t-40 33.5t-31 59.5t-20 88.5q-41 -57 -72.5 -94 t-61.5 -59t-61 -30.5t-71 -8.5q-51 0 -103.5 32.5t-94.5 93.5t-69 149t-27 199q0 57 13.5 118t39.5 118t64 108t85.5 89.5t104.5 60.5t122 22q23 0 42 -3.5t37.5 -13.5t39.5 -28t47 -47q26 16 53 38.5t55 53.5l31 -30q-9 -29 -15 -62q-6 -29 -10.5 -66t-4.5 -79v-438 q0 -90 30 -133t78 -43q25 0 58 31.5t62.5 86t50 128t20.5 157.5q0 168 -43 299t-119.5 220t-182.5 135.5t-233 46.5q-102 0 -191 -26t-163 -72.5t-131.5 -110.5t-97.5 -140.5t-61 -163t-21 -176.5q0 -121 25.5 -225.5t71 -191t109 -154t139.5 -114t162 -70.5t176 -24 q84 0 164.5 17.5t149.5 43.5t122.5 56t83.5 56l27 -55q-36 -38 -93.5 -80t-133 -77t-168.5 -58t-201 -23q-172 0 -316 59t-248 168.5t-162 265t-58 347.5zM610 475q0 -85 20.5 -154.5t52 -118.5t69.5 -75.5t73 -26.5q19 0 37 6.5t39 23.5t48 46t65 74v481q-28 56 -62 87.5 t-94 31.5q-55 0 -100.5 -23.5t-78.5 -70.5t-51 -117t-18 -164z" />
<glyph unicode="A" horiz-adv-x="1219" d="M0 0v43q68 12 108 25t50 43l372 1126q23 25 57 45.5t60 34.5l420 -1206q5 -14 14 -25t24 -19t38 -14t55 -10v-43h-422v43q78 5 108 20t19 48l-114 334h-408l-111 -334q-10 -31 27 -45t119 -23v-43h-416zM411 535h347l-176 514z" />
<glyph unicode="B" horiz-adv-x="1126" d="M41 1230q39 11 90.5 21.5t108.5 19t116 14t113 5.5q100 0 181 -18.5t137.5 -53.5t87 -85t30.5 -113q0 -108 -51 -185.5t-139 -111.5q64 -12 119 -45t95.5 -81.5t63.5 -110t23 -130.5q0 -85 -33.5 -153.5t-94 -116.5t-144.5 -74t-185 -26q-22 0 -52.5 0.5t-65.5 1.5l-72 2 q-37 1 -72 3q-83 3 -174 7h-73v43q68 14 106.5 30.5t38.5 30.5v1086q-38 -5 -74.5 -10.5t-70.5 -11.5zM355 104q0 -8 9 -15q17 -6 39 -9.5t45 -5.5t46 -3t43 -1q72 0 130 18.5t99.5 51.5t63.5 79.5t22 102.5q0 55 -19.5 113t-60 106t-103 78.5t-149.5 30.5q-48 0 -88.5 -4.5 t-76.5 -10.5v-531zM355 725h34q114 0 184.5 22.5t109.5 57.5t53 79t14 87q0 50 -16.5 93t-55.5 74.5t-103.5 49.5t-161.5 18q-14 0 -28.5 -0.5t-29.5 -1.5v-479z" />
<glyph unicode="C" horiz-adv-x="1098" d="M70 586q0 160 48.5 290t131.5 222t193 142t233 50q108 0 189.5 -29t133.5 -71q6 -5 -3 -20t-24.5 -34t-33.5 -38l-29 -31l-35 6q-51 47 -121 77t-161 30q-34 0 -74.5 -12.5t-81.5 -39.5t-79 -70.5t-67.5 -105.5t-47 -143.5t-17.5 -185.5q0 -133 38.5 -233t99 -166.5 t135 -100t145.5 -33.5q54 0 141 37t197 129q5 -2 10.5 -8.5t10.5 -13.5t9 -13.5t7 -9.5q-64 -68 -122.5 -114.5t-113 -74.5t-107 -40t-104.5 -12q-93 0 -182.5 42t-160.5 121t-114.5 193.5t-43.5 259.5z" />
<glyph unicode="D" horiz-adv-x="1214" d="M41 1230q44 12 101.5 23t121.5 19.5t129.5 13t124.5 4.5q139 0 251 -41.5t190.5 -120.5t121 -193t42.5 -259q0 -125 -25.5 -223.5t-68.5 -174t-99.5 -128t-119.5 -86t-127.5 -49t-123.5 -15.5h-509v43q68 14 106.5 30.5t38.5 30.5v1084q-40 -5 -76 -10l-69 -10zM355 154 q0 -22 10 -36q14 -17 54 -25.5t118 -8.5q69 0 142.5 33.5t134.5 102t100 172.5t39 245q0 133 -33 238.5t-96.5 179t-157 112.5t-213.5 39q-50 0 -98 -3v-1049z" />
<glyph unicode="E" horiz-adv-x="1016" d="M50 0v43q68 14 106.5 30.5t38.5 30.5v1051q0 12 -36.5 30t-108.5 32v43h806l33 -25q-2 -26 -6 -57t-10 -62t-12.5 -59t-12.5 -47h-45q-2 46 -8.5 77t-16.5 49.5t-24.5 26t-32.5 7.5h-366v-435h405l26 -28q-8 -14 -19.5 -30t-24 -31.5t-25 -28.5t-23.5 -21 q-15 15 -32.5 25t-40 17t-53 10t-72.5 3h-141v-497q0 -15 7 -26.5t29 -20t62 -13t106 -4.5h129q46 0 78.5 5t57.5 22.5t45.5 51.5t41.5 93l43 -18q-8 -86 -20.5 -150.5t-20.5 -93.5h-863z" />
<glyph unicode="F" horiz-adv-x="979" d="M50 0v43q68 14 106.5 30.5t38.5 30.5v1051q0 12 -36.5 30t-108.5 32v43h816l31 -25q-1 -26 -5 -57t-9.5 -62t-12 -59t-12.5 -47h-47q-2 46 -7.5 77t-16 49.5t-25 26t-33.5 7.5h-374v-435h374l29 -28q-9 -14 -21 -30t-25 -31.5t-25.5 -28.5t-22.5 -21q-15 15 -32 25 t-39.5 17t-53 10t-72.5 3h-112v-547q0 -12 38.5 -27t136.5 -34v-43h-480z" />
<glyph unicode="G" horiz-adv-x="1194" d="M70 582q0 166 52.5 297.5t143.5 223t212.5 139.5t258.5 48q33 0 72.5 -7t80.5 -20t80.5 -32t71.5 -43q7 -5 -2 -19.5t-25.5 -32.5t-36.5 -36l-32 -29l-33 6q-33 31 -68 51.5t-73.5 31.5t-81.5 15.5t-92 4.5q-25 0 -62.5 -11.5t-79 -37t-82.5 -67t-74.5 -102t-54 -141 t-20.5 -184.5q0 -139 37 -242t97 -170.5t135 -101t151 -33.5q73 0 134.5 14.5t110.5 41.5v339q0 11 -9.5 21.5t-33 20.5t-63 20t-100.5 20v43h461v-43q-57 -14 -81 -36.5t-24 -45.5v-331q-74 -61 -132.5 -97t-107.5 -55.5t-93 -25.5t-89 -6q-101 0 -199 37.5t-175.5 114 t-125.5 191t-48 269.5z" />
<glyph unicode="H" horiz-adv-x="1339" d="M50 0v43q68 14 106.5 30.5t38.5 30.5v1051q0 12 -36.5 30t-108.5 32v43h450v-43q-68 -14 -106.5 -31t-38.5 -31v-450h610v450q0 12 -36.5 30t-108.5 32v43h450v-43q-68 -14 -106.5 -31t-38.5 -31v-1051q0 -12 36.5 -29.5t108.5 -31.5v-43h-450v43q68 14 106.5 30.5 t38.5 30.5v511h-610v-511q0 -12 36 -29.5t109 -31.5v-43h-450z" />
<glyph unicode="I" horiz-adv-x="610" d="M70 0v43q68 14 106.5 30.5t38.5 30.5v1051q0 12 -36.5 30t-108.5 32v43h450v-43q-68 -14 -106.5 -31t-38.5 -31v-1051q0 -12 36.5 -29.5t108.5 -31.5v-43h-450z" />
<glyph unicode="J" horiz-adv-x="625" d="M-190 -300q0 8 13 23t31 30t38 28.5t34 18.5q28 -18 49 -29.5t39 -17.5t34.5 -8t35.5 -2q26 0 55.5 17t54 60.5t40.5 119.5t16 193v1022q0 6 -8 13t-29.5 15t-59.5 16.5t-98 17.5v43h500v-43q-68 -14 -106.5 -31t-38.5 -31v-950q0 -119 -16.5 -198.5t-44 -134.5 t-63.5 -91.5t-75 -68.5q-27 -22 -59.5 -39t-65.5 -29t-62.5 -18t-48.5 -6q-30 0 -60 9.5t-53 22t-37.5 26t-14.5 22.5z" />
<glyph unicode="K" horiz-adv-x="1184" d="M50 0v43q68 14 106.5 30.5t38.5 30.5v1051q0 12 -36.5 30t-108.5 32v43h450v-43q-68 -14 -106.5 -31t-38.5 -31v-509l409 482q23 27 29 43t-4 25t-35 13.5t-64 7.5v43h420v-43q-32 -4 -57 -8t-45 -10.5t-36.5 -16.5t-31.5 -27l-438 -484l483 -544q18 -20 38.5 -31 t44 -15.5t48.5 -4.5t51 4l7 -43q-59 -19 -118.5 -35t-107.5 -16q-29 0 -51.5 9t-42.5 34l-499 610v-535q0 -12 36 -29.5t109 -31.5v-43h-450z" />
<glyph unicode="L" horiz-adv-x="975" d="M50 0v43q68 14 106.5 30.5t38.5 30.5v1051q0 12 -36.5 30t-108.5 32v43h450v-43q-68 -14 -106.5 -31t-38.5 -31v-991q0 -18 8.5 -31.5t29.5 -23t57 -14.5t91 -5h143q46 0 77.5 5t55.5 22.5t43.5 51.5t40.5 93l43 -18q-8 -87 -20.5 -151t-20.5 -93h-853z" />
<glyph unicode="M" horiz-adv-x="1651" d="M60 0v43q69 14 107 30.5t38 30.5l10 1073q-38 22 -76.5 31t-68.5 9v43h286q10 0 17 -3t13 -12t14 -25l20 -44l398 -902l382 902q13 30 21 47t14.5 25t13 10t15.5 2h286v-43q-29 0 -64.5 -9.5t-70.5 -26.5l10 -1077q0 -12 36.5 -29.5t108.5 -31.5v-43h-455v43 q68 14 111.5 30.5t43.5 30.5l-9 936l-438 -1040h-49l-445 1033l-9 -929q0 -12 36.5 -29.5t108.5 -31.5v-43h-405z" />
<glyph unicode="N" horiz-adv-x="1329" d="M50 0v43q74 9 109.5 28t35.5 33v1045q-33 31 -69.5 46.5t-75.5 21.5v43h212q15 0 24.5 -2.5t19.5 -10.5q10 -7 22 -23l30 -42l657 -906v879q0 12 -32.5 31.5t-112.5 30.5v43h410v-43q-72 -10 -108.5 -29t-36.5 -33v-1185q-50 6 -78.5 20t-40.5 31l-701 972v-889 q0 -12 33.5 -31t111.5 -30v-43h-410z" />
<glyph unicode="O" horiz-adv-x="1229" d="M70 612q0 136 44 259t120 216t178.5 148t220.5 55q124 0 218 -54.5t158 -144.5t96.5 -206t32.5 -238q0 -136 -45 -258.5t-122.5 -215.5t-179.5 -148t-216 -55q-120 0 -214 53t-158.5 142t-98.5 205t-34 242zM225 641q0 -112 30.5 -212t82 -175.5t120.5 -119.5t146 -44 q83 0 152.5 34.5t120 102.5t78.5 169t28 233q0 69 -12.5 136.5t-35.5 128t-56.5 112t-75.5 89t-92 59t-107 21.5q-89 0 -159.5 -37.5t-119 -107t-74.5 -168.5t-26 -221z" />
<glyph unicode="P" horiz-adv-x="1071" d="M41 1230q48 13 104.5 24t117.5 19t123.5 12.5t123.5 4.5q108 0 195 -23t148.5 -68t95 -111t33.5 -152q0 -69 -19.5 -126t-52 -101.5t-74.5 -77t-87.5 -54t-91 -32t-84.5 -10.5q-94 0 -161 30l-23 75q42 -19 80.5 -24.5t73.5 -5.5q46 0 96 18t92 54t69 89t27 124 q0 82 -29.5 141t-80.5 96.5t-119 55.5t-145 18q-25 0 -49.5 -0.5t-48.5 -1.5v-1100q0 -6 8 -13t27.5 -15t53.5 -16t86 -17v-43h-480v43q68 14 106.5 30.5t38.5 30.5v1086q-37 -5 -73.5 -10.5t-71.5 -11.5z" />
<glyph unicode="Q" horiz-adv-x="1229" d="M70 612q0 136 44 259t120 216t178.5 148t220.5 55q124 0 218 -54.5t158 -144.5t96.5 -206t32.5 -238q0 -106 -28 -205t-78 -182.5t-118.5 -147.5t-148.5 -100q46 -24 91.5 -54t89 -56t84.5 -44t78 -18q12 0 25.5 4t30.5 13t39 24l52 37l27 -35q-24 -44 -49 -78.5t-49 -59 t-45.5 -37.5t-36.5 -13q-62 0 -122.5 30.5t-120.5 74.5l-119 90q-60 48 -120 83q-23 -3 -45 -3q-110 0 -203 51t-160 138t-104.5 204t-37.5 249zM225 641q0 -112 30.5 -212t82 -175.5t120.5 -119.5t146 -44q83 0 152.5 34.5t120 102.5t78.5 169t28 233q0 69 -12.5 136.5 t-35.5 128t-56.5 112t-75.5 89t-92 59t-107 21.5q-89 0 -159.5 -37.5t-119 -107t-74.5 -168.5t-26 -221z" />
<glyph unicode="R" horiz-adv-x="1149" d="M41 1230q47 12 95 22.5t100 19t109.5 13.5t123.5 5q116 0 202 -23t143 -64t85 -96.5t28 -119.5q0 -72 -20.5 -130.5t-58 -103.5t-89.5 -77t-114 -51l303 -486q15 -22 32.5 -35t39 -19.5t48 -6.5t60.5 2l11 -43q-66 -22 -125.5 -36.5t-98.5 -14.5q-29 0 -56.5 16t-41.5 39 l-303 561q-13 -2 -26 -2h-27q-26 0 -52 2.5t-54 8.5v-507q0 -12 36 -29.5t109 -31.5v-43h-450v43q68 14 106.5 30.5t38.5 30.5v1085l-71 -11q-36 -6 -74 -10zM355 691q27 -5 47 -6t42 -1q158 0 243 69.5t85 202.5q0 55 -19.5 101t-61 79t-106 51.5t-153.5 18.5q-38 0 -77 -3 v-512z" />
<glyph unicode="S" horiz-adv-x="975" d="M117 172.5q0 40.5 3 82.5t11 69l41 -5q23 -59 57.5 -102t76.5 -71.5t90.5 -42t99.5 -13.5q45 0 90.5 18.5t81.5 50.5t59 74.5t23 90.5q0 61 -27 105t-70.5 78t-99.5 61l-115 54q-58 27 -114 57t-99.5 70t-70.5 92.5t-27 125.5q0 31 9 67t29 72t51.5 69.5t76 59 t102.5 40.5t131 15q45 0 90.5 -7t85 -19t71.5 -29t50 -37q7 -6 0.5 -23.5t-20 -38t-30 -40.5t-28.5 -31l-36 6q-28 33 -58.5 55.5t-62 36.5t-62.5 20t-59 6q-56 0 -95.5 -16.5t-65 -42.5t-37.5 -57t-12 -59q0 -47 27 -83.5t71 -66.5q45 -31 101 -58l115 -56 q59 -30 115.5 -64t100.5 -78t71 -100.5t27 -130.5q0 -45 -12 -92t-36.5 -92.5t-61 -86t-86 -70.5t-112 -48t-137.5 -18q-33 0 -72 7t-80 19.5t-81.5 30.5t-75.5 41q-7 4 -10.5 34t-3.5 70.5z" />
<glyph unicode="T" horiz-adv-x="1128" d="M10 1014q5 59 13.5 126t19.5 120h1010l30 -25q-2 -51 -10 -111.5t-20 -123.5h-45l-18 78q-8 32 -17.5 53t-23 30t-34.5 9h-284v-1055q0 -13 36 -33t128 -39v-43h-488v43q46 9 77.5 19t50.5 19.5t27.5 18t8.5 15.5v1055h-299q-15 0 -27.5 -5.5t-25 -23.5t-28.5 -53 t-38 -93z" />
<glyph unicode="U" horiz-adv-x="1339" d="M50 1217v43h450v-43q-68 -14 -106.5 -31t-38.5 -31v-661q0 -96 22.5 -172t67 -128.5t109.5 -80.5t151 -28q71 0 126 34.5t92.5 90.5t57 127.5t19.5 145.5v672q0 12 -36.5 30t-108.5 32v43h420v-43q-68 -14 -106.5 -31t-38.5 -31v-631q0 -131 -32 -234t-92 -174 t-146 -108.5t-194 -37.5q-103 0 -189.5 28.5t-149 87t-97.5 147.5t-35 211v711q0 12 -36.5 30t-108.5 32z" />
<glyph unicode="V" horiz-adv-x="1331" d="M20 1217v43h435v-43q-80 -6 -109.5 -20.5t-18.5 -43.5l353 -950l336 948q11 29 -24.5 42.5t-117.5 23.5v43h416v-43q-68 -13 -106.5 -25.5t-48.5 -40.5l-383 -1092q-8 -22 -27.5 -37.5t-42.5 -26t-45 -16.5t-35 -9l-440 1181q-10 26 -44.5 42t-97.5 24z" />
<glyph unicode="W" horiz-adv-x="1741" d="M20 1217v43h429v-43q-49 -5 -77 -12.5t-42 -16.5t-16.5 -19.5t-0.5 -21.5l199 -897l324 1010h55l354 -1010l187 905q2 12 -9 21t-32 16t-50 13t-63 12v43h424v-43q-44 -9 -73 -17t-46 -15.5t-24.5 -14.5t-8.5 -15l-229 -1096q-5 -21 -21.5 -36.5t-37.5 -26t-43 -17 t-37 -9.5l-326 974l-287 -885q-7 -21 -24 -36t-38.5 -25.5t-45 -17t-43.5 -10.5l-260 1177q-5 25 -36 41t-102 29z" />
<glyph unicode="X" horiz-adv-x="1260" d="M31 0v43q65 5 111 23.5t71 60.5l317 517l-333 489q-15 22 -29 36t-31.5 23t-40 14.5t-55.5 10.5v43h451v-43q-85 -9 -111 -25q-12 -8 -12 -21q0 -15 16 -38l247 -363l226 363q14 23 12 37.5t-19 24t-48 14.5t-76 8v43h453v-43q-36 -4 -64.5 -9.5t-50.5 -15t-38.5 -24 t-29.5 -35.5l-291 -471l365 -535q15 -21 30.5 -35.5t34 -24t41.5 -15t52 -9.5v-43h-451v43q44 4 71 10.5t39 16t10.5 23.5t-15.5 34l-279 408l-252 -408q-13 -20 -13 -35q-1 -17 17 -26q32 -17 125 -23v-43h-450z" />
<glyph unicode="Y" horiz-adv-x="1217" d="M0 1249q59 8 118 14.5t101 6.5q46 0 78 -39q37 -48 80 -113.5t86 -138.5t84 -150l76 -149l268 471q15 26 -9.5 41t-101.5 25v43h396v-43q-69 -13 -105.5 -26.5t-50.5 -39.5l-336 -610v-426q0 -6 8.5 -14.5t28 -18.5t51 -20t78.5 -19v-43h-490v43q91 19 127.5 38.5 t36.5 33.5v422q-37 81 -84 169t-96 171l-95 155q-46 71 -81 119q-9 11 -20.5 21t-29.5 17.5t-45 12t-69 4.5z" />
<glyph unicode="Z" horiz-adv-x="1071" d="M59 45l711 1115h-459q-16 0 -35 -11t-37 -35t-34 -61.5t-27 -89.5l-57 12l29 301q27 -6 49.5 -9.5t44 -5t44.5 -1.5h668l25 -43l-705 -1117h523q21 0 38 9.5t32.5 32.5t31.5 63t35 102l55 -14q-1 -32 -3 -71l-4 -78l-2 -78q-2 -38 -3 -66h-891z" />
<glyph unicode="[" horiz-adv-x="630" d="M140 -335v1935h415l33 -26q-5 -25 -13 -51t-14 -38h-281v-1705h275l35 -29q-5 -20 -13 -44.5t-16 -41.5h-421z" />
<glyph unicode="\" horiz-adv-x="961" d="M55 1578l37 22q58 -15 113 -49l700 -1861l-35 -25q-12 4 -28 10l-32 13q-16 6 -30.5 13.5t-23.5 14.5z" />
<glyph unicode="]" horiz-adv-x="630" d="M40 1511q3 22 11.5 47t15.5 42h423v-1935h-415l-33 29q3 23 10.5 48t14.5 38h283v1705h-275z" />
<glyph unicode="^" horiz-adv-x="1008" d="M100 592l322 870q12 12 30 24l35 25q18 12 36 22t32 17l352 -915q-25 -23 -48.5 -38.5t-57.5 -31.5l-37 27l-283 723l-250 -680q-11 -10 -25 -20.5t-29 -20t-29 -16.5l-25 -13z" />
<glyph unicode="_" horiz-adv-x="802" d="M-25 -219q5 20 13.5 44t17.5 44h802l23 -25q-5 -21 -13 -46t-16 -44h-802z" />
<glyph unicode="`" horiz-adv-x="653" d="M30 1424l22 41q10 2 30 5l40 8q22 4 43 7t33 4l240 -411q-9 -8 -24 -17t-32 -14z" />
<glyph unicode="a" horiz-adv-x="940" d="M80 186q0 76 26.5 127t63.5 88q24 24 54.5 45.5t81 41.5t126.5 38t191 35v141q0 34 -8 63.5t-27 50.5q-20 22 -52 34q-30 11 -73 10h-8q-32 -1 -63 -11t-54 -28t-36 -42.5t-10 -54.5q1 -9 -20.5 -20.5t-51 -20.5t-58 -14t-40.5 -2l-14 39q23 50 70 96t107.5 81t128 56 t130.5 21q110 0 169.5 -57.5t59.5 -160.5v-564q0 -42 11 -60t29 -18q14 0 36 5t62 22l15 -45q-85 -59 -140.5 -85.5t-83.5 -26.5q-33 0 -55 46t-24 127q-45 -45 -90 -78t-88 -54t-81.5 -31t-70.5 -10q-36 0 -74 12t-68.5 38t-50.5 67t-20 99zM244 229q0 -40 12 -65t29 -39.5 t35.5 -19.5t31.5 -5q60 0 127.5 30.5t143.5 96.5v259q-84 -14 -138.5 -27t-89.5 -26.5t-56 -28.5t-37 -32q-26 -27 -42 -61.5t-16 -81.5z" />
<glyph unicode="b" horiz-adv-x="1040" d="M10 1430v40q66 16 126 32.5t117 47.5l10 -10q6 -6 12 -11l15 -13v-789q50 60 99.5 104t95 72.5t84.5 42.5t68 14q68 0 125.5 -32t99 -92.5t65 -147.5t23.5 -196q0 -58 -15 -119t-44 -119t-71 -110t-95.5 -90.5t-117.5 -61t-138 -22.5q-19 0 -52.5 8.5t-77 24.5 t-94.5 39.5t-105 53.5v1200q0 46 -5 71t-19 37.5t-39.5 16.5t-66.5 9zM290 203q40 -30 81.5 -50t79 -31.5t68 -16.5t48.5 -5q61 0 107 26.5t77.5 70t47.5 98.5t16 113q0 100 -20.5 177.5t-55 130.5t-79.5 81t-93 28q-18 0 -47.5 -10.5t-66.5 -35t-79 -66t-84 -103.5v-407z " />
<glyph unicode="c" horiz-adv-x="895" d="M80 444q0 108 39.5 202t108 163.5t161.5 110t201 40.5q33 0 67.5 -5.5t66 -16t58 -25t43.5 -32.5q2 -12 -3 -34t-14 -46.5t-20 -47t-20 -36.5l-37 10q-8 18 -26 39t-46.5 40t-68 31.5t-90.5 12.5q-53 0 -101.5 -23.5t-86 -70.5t-60 -117t-22.5 -164q0 -85 25.5 -154.5 t68 -118.5t98 -75.5t115.5 -26.5q28 0 52 2.5t52.5 15.5t66 39t93.5 74l39 -41q-65 -77 -114.5 -120.5t-91.5 -66t-82 -28t-87 -5.5q-73 0 -142.5 32.5t-123.5 93.5t-86.5 149t-32.5 199z" />
<glyph unicode="d" horiz-adv-x="1065" d="M80 444q0 57 15.5 118t44.5 118t71 108t94 89.5t114 60.5t132 22q47 0 93.5 -11.5t100.5 -51.5v377q0 55 -3 87.5t-17 50t-43 24t-82 10.5v39q82 11 147 29.5t117 35.5l31 -30v-1266q0 -35 1.5 -60t4.5 -42t7 -28t10 -18q9 -11 34.5 -6.5t85.5 27.5l13 -43 q-46 -31 -81.5 -52.5t-62 -35t-45.5 -20t-33 -6.5q-33 0 -54 45t-28 154q-38 -46 -75.5 -83t-77 -62.5t-83.5 -39.5t-95 -14q-56 0 -115 32.5t-108.5 93.5t-81 149t-31.5 199zM230 475q0 -85 24.5 -154.5t62.5 -118.5t83.5 -75.5t86.5 -26.5q34 0 67 14t65 36q31 23 63 52 l63 59v469q-33 57 -93 88.5t-132 31.5q-64 0 -117 -23.5t-91.5 -70.5t-60 -117t-21.5 -164z" />
<glyph unicode="e" horiz-adv-x="946" d="M80 434q0 67 15 132t43.5 123t69.5 107t93 85q22 15 49.5 29.5t57.5 25.5t59.5 17.5t56.5 6.5q65 0 116 -18t89 -48.5t64 -71t42.5 -85.5t23.5 -91.5t7 -88.5q-18 -20 -48 -37t-62 -30h-526q1 -78 21.5 -148.5t59 -124t93 -85.5t122.5 -32q31 0 60.5 4t63.5 18t75.5 41 t97.5 73q13 -7 22.5 -20t14.5 -21q-67 -73 -117.5 -117.5t-95 -68.5t-88 -31.5t-94.5 -7.5q-77 0 -146.5 33t-122.5 93.5t-84.5 146t-31.5 191.5zM236 580h428q23 0 30.5 7.5t7.5 28.5q0 27 -7.5 67.5t-30 79t-63 65.5t-105.5 27q-52 0 -95.5 -20t-77 -56.5t-56 -87 t-31.5 -111.5z" />
<glyph unicode="f" horiz-adv-x="637" d="M45 863l78 67h77v31q0 118 16 198.5t43.5 136t63.5 93t76 69.5q27 22 59 39t63.5 29t60 18t47.5 6q31 0 64 -12t60.5 -27.5t45.5 -31.5t18 -25q0 -8 -14.5 -24t-34.5 -33t-41.5 -32t-36.5 -22q-24 21 -48.5 36.5t-47 25.5t-42 15t-32.5 5q-26 0 -55.5 -17.5t-55 -63.5 t-42.5 -125t-17 -203v-86h258l29 -29q-9 -14 -22.5 -30t-27 -30t-26.5 -25.5t-22 -15.5q-23 12 -66 23.5t-123 11.5v-733q0 -6 10.5 -12t35.5 -12.5t64.5 -15t98.5 -19.5v-43h-499v43q69 12 104.5 29.5t35.5 29.5v733h-134z" />
<glyph unicode="g" horiz-adv-x="999" d="M30 -229q0 26 9.5 54.5t38.5 61.5t81 71t138 84q-65 23 -90 52t-25 59q0 8 5 21.5t20.5 33t44 44.5t74.5 57q-51 14 -92.5 40.5t-71 64t-46 85t-16.5 103.5q0 73 33 138.5t87 114t123 77t142 28.5q60 0 112.5 -17t95.5 -48q52 5 94 13t75.5 17t59.5 18t47 17l20 -30 l-23 -52q-11 -23 -34 -48q-38 -7 -74.5 -11t-82.5 -6q26 -38 40.5 -81t14.5 -91q0 -77 -34.5 -140.5t-90.5 -109t-127 -71t-144 -25.5h-4q-48 -40 -66 -66.5t-18 -32.5q0 -12 10.5 -23.5t39 -22t78.5 -21t128 -19.5q109 -12 180 -36t113 -55.5t58.5 -67.5t16.5 -71 q0 -55 -21 -104.5t-57 -91.5t-85 -76t-105 -58t-116 -37t-119 -13q-47 0 -97 6.5t-99 20.5t-92.5 35.5t-76.5 52t-52.5 69t-19.5 87.5zM180 -190q0 -42 28 -79.5t75 -65t109 -44t130 -16.5q67 0 122 18t94 49.5t60.5 75t21.5 95.5q0 28 -13 51.5t-47 42.5t-92.5 34 t-149.5 25q-38 4 -70 9t-60 11q-72 -39 -113.5 -70t-62.5 -55.5t-26.5 -44.5t-5.5 -36zM240 659q0 -53 16.5 -100.5t50 -82.5t85 -55.5t122.5 -20.5q29 0 60.5 12.5t57 38t42 62.5t16.5 87q0 53 -17.5 100.5t-52 83t-86 56t-118.5 20.5q-25 0 -55.5 -13t-57.5 -38t-45 -63 t-18 -87z" />
<glyph unicode="h" horiz-adv-x="1130" d="M55 0v43q66 17 103 30.5t37 30.5v1194q0 42 -3.5 65.5t-18 36.5t-42.5 18.5t-76 11.5v40q42 8 76.5 16t64 17.5t56.5 20.5t56 26l37 -34v-832q43 64 95.5 115t105.5 87t103.5 55t89.5 19q43 0 83 -13t70.5 -40t49 -68.5t18.5 -97.5v-637q0 -14 30.5 -27.5t109.5 -33.5 v-43h-430v43q72 19 106 33t34 28v529q0 61 -7.5 99t-23.5 60t-40 30t-57 8q-35 0 -75.5 -18t-84.5 -53t-89 -87.5t-88 -122.5v-445q0 -15 37.5 -31t102.5 -30v-43h-430z" />
<glyph unicode="i" horiz-adv-x="555" d="M70 0v43q68 14 104 30.5t36 30.5v566q0 51 -2 82.5t-15 49t-41.5 25.5t-81.5 13v40q31 6 65.5 14.5t68.5 19t65 22.5t57 24h34v-856q0 -12 33.5 -29.5t106.5 -31.5v-43h-430zM190 1220q0 28 9 53t25 43.5t36.5 29t44.5 10.5q85 0 85 -95q0 -28 -9 -53t-24.5 -43.5 t-36.5 -29.5t-46 -11q-45 0 -64.5 25t-19.5 71z" />
<glyph unicode="j" horiz-adv-x="530" d="M-220 -431q0 9 14.5 24.5t34.5 32.5t41.5 32t36.5 22q32 -28 66 -36.5t72 -8.5q29 0 57.5 18.5t51.5 64.5t37 125t14 200v627q0 51 -2.5 82t-15.5 48.5t-41.5 25.5t-80.5 14v40q42 7 74.5 16t62 18.5t56.5 21.5l60 24h37v-861q0 -115 -14.5 -195.5t-40 -137t-60.5 -95.5 t-75 -71q-27 -21 -57 -39.5t-60 -32t-56.5 -21t-45.5 -7.5q-31 0 -60.5 7.5t-53 18.5t-38 23t-14.5 20zM185 1220q0 28 9 53t24.5 43.5t36.5 29t45 10.5q85 0 85 -95q0 -28 -9 -53t-24.5 -43.5t-36.5 -29.5t-45 -11q-45 0 -65 25t-20 71z" />
<glyph unicode="k" horiz-adv-x="999" d="M30 0v43q66 17 103 30t37 31v1192q0 46 -5.5 71t-21 37.5t-43 16.5t-70.5 9v40q69 14 135.5 32.5t117.5 47.5l37 -34v-986l308 269q33 29 40 46.5t-2.5 26.5t-32 12t-48.5 3v43h379v-43q-44 -5 -81 -16.5t-79 -45.5l-341 -273l376 -441q14 -16 29 -26.5t33 -16.5 t40.5 -7.5t51.5 0.5l6 -43q-29 -7 -57.5 -12t-53 -8.5t-44 -5.5t-29.5 -2q-42 0 -67.5 12t-47.5 41l-380 479v-418q0 -8 3.5 -14t14.5 -12.5t33 -14.5t59 -20v-43h-400z" />
<glyph unicode="l" horiz-adv-x="555" d="M60 0v43q43 7 72 14.5t46 15t24.5 15.5t7.5 16v1192q0 45 -6 70t-22 37.5t-43 17t-69 9.5v40q72 14 132 31t122 49l36 -34v-1412q0 -15 34 -31t116 -30v-43h-450z" />
<glyph unicode="m" horiz-adv-x="1645" d="M55 0v43q66 17 103 30.5t37 30.5v607q0 40 -3.5 63t-18 35.5t-42.5 18.5t-76 12v40q38 6 70 14.5t61 18.5q30 10 56 22l53 25l35 -35l11 -229q45 66 91 115.5t91 82.5t87 49.5t78 16.5q48 0 88.5 -11.5t70 -39t46.5 -72.5t17 -112v-21q42 63 87 110.5t89.5 80t87 49 t79.5 16.5q48 0 88.5 -13t70 -40t46.5 -68.5t17 -97.5v-637q0 -14 31 -27.5t110 -33.5v-43h-430v43q72 19 105.5 33t33.5 28v529q0 61 -6.5 101.5t-20 63.5t-35 32.5t-51.5 9.5q-33 0 -70 -18.5t-76 -53t-78.5 -84t-77.5 -111.5v-469q0 -14 31 -27.5t110 -33.5v-43h-430v43 q72 19 105.5 33t33.5 28v529q0 61 -6 101.5t-19.5 63.5t-35 32.5t-52.5 9.5q-68 0 -142.5 -70t-159.5 -197v-469q0 -15 37.5 -31t102.5 -30v-43h-430z" />
<glyph unicode="n" horiz-adv-x="1130" d="M55 0v43q66 17 103 30.5t37 30.5v607q0 39 -3 62t-16.5 36t-41.5 19t-79 12v40q68 11 126 31.5t114 48.5l35 -35l11 -249q44 67 97 119.5t107 89t104.5 56t89.5 19.5q43 0 83 -13t70.5 -40t49 -68.5t18.5 -97.5v-637q0 -14 30.5 -27.5t109.5 -33.5v-43h-430v43 q72 19 106 33t34 28v529q0 61 -7 99t-22 60t-39.5 30t-59.5 8q-31 0 -69 -15t-81.5 -48t-91 -86.5t-95.5 -131.5v-445q0 -15 37.5 -31t102.5 -30v-43h-430z" />
<glyph unicode="o" horiz-adv-x="1030" d="M80 444q0 66 16.5 130t46 121.5t71 106t92 83.5t109 55t120.5 20q94 0 170.5 -36t131 -99.5t84 -150.5t29.5 -189q0 -67 -17 -131t-47 -121t-72 -105.5t-92.5 -83.5t-107.5 -54.5t-118 -19.5q-95 0 -171.5 36t-131 99t-84 150t-29.5 189zM235 473q0 -79 28 -150.5 t70.5 -125.5t93.5 -85.5t97 -31.5q71 0 122 26.5t84 75.5t49 118t16 155q0 79 -26 150.5t-67 126t-93 86.5t-103 32q-76 0 -128 -29t-83.5 -79.5t-45.5 -119.5t-14 -149z" />
<glyph unicode="p" horiz-adv-x="1085" d="M55 -437q66 16 103 30.5t37 31.5v1086q0 37 -4 61t-18.5 38.5t-42 21t-75.5 8.5v40q34 7 65 15.5t60 18t57.5 21t57.5 25.5l35 -35l9 -198q50 60 100.5 104t96.5 72.5t85.5 42.5t68.5 14q68 0 126 -32t100 -92.5t65.5 -147.5t23.5 -196q0 -58 -15 -119t-41 -119t-62 -110 t-78.5 -90.5t-89.5 -61t-96 -22.5q-59 0 -133 33t-145 95v-473q0 -16 37.5 -32t131.5 -30v-43h-459v43zM345 213q45 -34 83.5 -56t72 -34.5t63.5 -17.5t57 -5q54 0 99.5 21t78.5 62t52 102t19 141q0 87 -20.5 162t-54.5 130t-79 86t-93 31q-18 0 -47 -11t-66 -37t-79 -69.5 t-86 -107.5v-397z" />
<glyph unicode="q" horiz-adv-x="1055" d="M80 444q0 88 28 162t68.5 131.5t86.5 97.5t81 60q57 31 113 48t94 17q27 0 54 -3.5t55 -13.5t58 -28t64 -48q15 9 31 21l31 26q15 12 28 24l23 22l31 -30q-9 -28 -16 -61q-6 -29 -10.5 -68t-4.5 -84v-1092q0 -16 31 -32t108 -30v-43h-459v43q94 14 132 29.5t38 32.5v541 q-38 -46 -75 -82t-76.5 -61.5t-83 -39t-94.5 -13.5q-56 0 -115 32.5t-108.5 93.5t-81 149t-31.5 199zM230 475q0 -85 24.5 -154.5t62.5 -118.5t83.5 -75.5t86.5 -26.5q34 0 67 14t65 36.5t63 51.5l63 59v469q-33 57 -93 88.5t-132 31.5q-56 0 -108 -23.5t-92.5 -70.5 t-65 -117t-24.5 -164z" />
<glyph unicode="r" horiz-adv-x="811" d="M55 0v43q66 15 103 29.5t37 31.5v582q0 33 -2 55.5t-5 36.5t-7.5 22t-8.5 13q-7 7 -15.5 11.5t-22 7.5t-32.5 4.5t-47 3.5v40l127 34q62 18 113 46l35 -35l13 -227q27 55 58.5 103t67.5 83.5t75.5 55.5t82.5 20q32 0 69 -8t74 -29q9 -6 9 -32q-1 -29 -9 -70 q-8 -38 -19.5 -78t-23.5 -67h-43q-6 40 -17 68t-25.5 44.5t-32 24t-36.5 7.5q-22 0 -51.5 -18.5t-60.5 -58t-61.5 -101t-54.5 -146.5v-392q0 -15 37.5 -31t131.5 -30v-43h-459z" />
<glyph unicode="s" horiz-adv-x="791" d="M96 144q2 38 6 77t11 62l43 -11q2 -42 22 -79t53.5 -64t78 -43t96.5 -16q36 0 66 11.5t52 32t34 49.5t12 64q0 40 -21.5 71t-56.5 56q-36 26 -80 48l-90 47q-42 21 -81 45t-69.5 54t-49 67t-18.5 85q0 62 25 110.5t66.5 81.5t95 50.5t110.5 17.5q31 0 68.5 -5.5t74 -15.5 t68.5 -24t52 -32q6 -6 1.5 -27t-14 -46t-20.5 -47t-17 -30l-39 8q-48 72 -99.5 100.5t-100.5 28.5q-33 0 -59 -11t-44.5 -28.5t-28 -38.5t-9.5 -42q0 -32 19 -57.5t50 -48t71 -42.5l81 -43q43 -22 87 -47t79 -57.5t57 -74t22 -97.5q0 -71 -20 -121.5t-52 -85.5t-71 -56 t-77 -32t-71.5 -14.5t-52.5 -3.5q-48 0 -115.5 18t-134.5 55q-8 3 -10 33q-2 18 -1 40q0 14 1 28z" />
<glyph unicode="t" horiz-adv-x="705" d="M20 863l78 67h72v246l119 104l31 -25v-325h327l29 -29q-9 -14 -22.5 -30t-27.5 -30t-27.5 -25.5t-23.5 -15.5q-24 12 -73 23.5t-130 11.5h-52v-528q0 -60 5.5 -100t18.5 -63.5t33.5 -33.5t50.5 -10q35 0 88 14t131 54l29 -51q-49 -36 -97 -63.5t-91.5 -46t-80.5 -28 t-63 -9.5q-35 0 -66.5 13t-55.5 42.5t-38 77.5t-14 118v614h-129z" />
<glyph unicode="u" horiz-adv-x="1085" d="M41 854v40q36 4 67.5 10t61 14t59.5 18.5t63 23.5l28 -39v-587q0 -70 10.5 -117t30 -75t48 -40t64.5 -12q32 0 65.5 9.5t69 30t74.5 53t83 79.5v449q0 45 -4.5 72t-19.5 42t-42.5 21t-73.5 8v40q72 9 138 28t122 38l30 -39v-667q0 -62 4.5 -101t18.5 -49q12 -8 41 -3.5 t80 26.5l10 -45l-71 -44q-34 -20 -63 -35.5t-51 -24t-34 -8.5q-35 0 -57 46.5t-28 149.5q-62 -62 -113.5 -100.5t-95 -59.5t-80 -28.5t-68.5 -7.5q-47 0 -90 13t-76 47.5t-52.5 94.5t-19.5 154v432q0 48 -3 74.5t-15.5 40t-38.5 18.5t-72 10z" />
<glyph unicode="v" horiz-adv-x="1010" d="M20 887v43h386v-43q-39 -5 -63.5 -10t-38 -12.5t-15.5 -18.5t4 -27l246 -641l231 641q5 15 3.5 25.5t-13.5 18t-34.5 13t-59.5 11.5v43h323v-43q-30 -7 -49 -13t-31 -13.5t-18.5 -17t-11.5 -24.5l-283 -760q-9 -22 -26 -37.5t-37 -26t-39.5 -16.5t-32.5 -9l-330 849 q-9 28 -35 42.5t-76 25.5z" />
<glyph unicode="w" horiz-adv-x="1446" d="M20 887v43h386v-43q-49 -5 -76 -11.5t-39 -15t-12.5 -17.5t2.5 -18l188 -635l246 740h69l260 -740l173 635q6 23 -21 37t-96 25v43h325v-43q-31 -7 -49 -13.5t-28.5 -13t-15 -15t-7.5 -20.5l-221 -766q-6 -22 -23.5 -37.5t-38.5 -26t-41.5 -16.5t-33.5 -9l-238 678 l-205 -589q-8 -23 -24.5 -38.5t-36.5 -26t-39.5 -16t-32.5 -8.5l-262 855q-9 39 -109 62z" />
<glyph unicode="x" horiz-adv-x="1030" d="M20 0v43q40 6 68 15.5t47.5 22t33 27t24.5 29.5l243 338l-235 322q-13 18 -26 33.5t-31.5 27t-45.5 19t-67 10.5v43h420v-43q-31 -3 -53.5 -8.5t-34 -15t-10 -25t19.5 -39.5l161 -222l154 222q18 24 20 40t-8.5 25.5t-32.5 14.5t-53 8v43h381v-43q-81 -6 -125.5 -29.5 t-70.5 -60.5l-210 -295l267 -365q12 -15 26 -29.5t32.5 -27.5t43.5 -23t58 -14v-43h-402v43q25 2 47 6t34.5 13t12.5 25.5t-20 43.5l-198 269l-189 -269q-19 -27 -15 -43.5t21 -25.5t42.5 -13t49.5 -6v-43h-379z" />
<glyph unicode="y" horiz-adv-x="1010" d="M-47 -447q0 6 12 24t30 39.5t38.5 41.5t36.5 30q48 -28 96 -30h11q41 0 73 12q18 6 42 28t48.5 54t48 72.5t41.5 83.5l29 69l-328 842q-9 28 -35 42.5t-76 25.5v43h386v-43q-39 -5 -63.5 -10t-38 -12.5t-15.5 -18.5t4 -27l246 -637l231 637q5 15 1.5 25.5t-17 18t-38 13 t-61.5 11.5v43h334v-43q-30 -7 -49 -13t-31 -13.5t-18.5 -17t-11.5 -24.5l-334 -901q-42 -111 -93.5 -190t-107 -129.5t-111.5 -74.5t-106 -24q-38 0 -70 5t-55 12.5t-36 17t-13 18.5z" />
<glyph unicode="z" horiz-adv-x="869" d="M76 45l555 795h-346q-16 0 -32.5 -6t-32 -22.5t-29 -46t-23.5 -75.5l-49 12l18 244q22 -6 40 -9.5t37.5 -5t42.5 -1.5h548l22 -43l-557 -797h422q25 0 46 38.5t44 129.5l47 -10q0 -32 -1 -68t-2.5 -70t-3.5 -63t-5 -47h-715z" />
<glyph unicode="{" horiz-adv-x="688" d="M102 633q118 31 178 93t60 137q0 40 -3 69t-7.5 52.5t-10 44t-10 43.5t-7.5 52.5t-3 70.5q0 67 22.5 126.5t64.5 110t102 92.5t135 76l26 -47q-39 -24 -72.5 -55t-58.5 -68.5t-39 -81.5t-14 -96q0 -58 6.5 -95t14 -69.5t14 -69.5t6.5 -95q0 -42 -12.5 -82.5t-35.5 -76 t-56.5 -64.5t-75.5 -47q50 -9 84.5 -31.5t55.5 -56.5t30.5 -79.5t9.5 -100.5q0 -60 -6.5 -102t-14 -79t-14 -74t-6.5 -87q0 -55 7.5 -97.5t27 -77t53 -64t86.5 -58.5l-23 -61q-84 34 -144 71.5t-98.5 83.5t-56.5 103t-18 129q0 59 6.5 97.5t14 74t14 76t6.5 102.5 q0 81 -40.5 122.5t-115.5 41.5h-21q-6 0 -11 -0.5t-11.5 -2t-21.5 -3.5z" />
<glyph unicode="|" horiz-adv-x="500" d="M180 -477v2098q28 17 51.5 29t52.5 20l36 -22v-2096q-18 -16 -49 -30t-56 -22z" />
<glyph unicode="}" horiz-adv-x="688" d="M39 -266q39 24 72.5 54.5t58.5 68t39 82t14 96.5q0 58 -6 94.5t-13.5 69t-13.5 70t-6 96.5q0 41 12 81t35.5 75t57 63.5t76.5 46.5q-51 10 -85.5 32.5t-56 57t-30.5 80t-9 101.5q0 59 6 101t13.5 79t13.5 74t6 86q0 56 -7.5 99t-27 77.5t-53.5 63t-86 57.5l23 61 q84 -33 144.5 -70.5t98.5 -83.5t56 -102.5t18 -128.5q0 -59 -6 -98t-13.5 -74.5t-13.5 -76t-6 -101.5q0 -81 40.5 -123t115.5 -42h19q6 0 11 0.5t12 1.5l23 5l17 -56q-119 -31 -178.5 -91.5t-59.5 -137.5q0 -41 3 -69.5t7 -51.5t9.5 -43t9.5 -43.5t7 -52.5t3 -70 q0 -68 -22.5 -127t-64.5 -110t-102 -93.5t-134 -76.5z" />
<glyph unicode="~" horiz-adv-x="999" d="M49 502q21 49 53.5 101.5t72 96t84.5 71.5t93 28q46 0 94.5 -25t96 -55t93 -55t85.5 -25q48 0 91 39t85 121l53 -25q-21 -49 -53 -101.5t-71.5 -96t-85 -71.5t-93.5 -28q-42 0 -89 25t-95.5 55t-96 55t-90.5 25q-49 0 -90.5 -39t-83.5 -123z" />
<glyph unicode="&#xa1;" horiz-adv-x="557" d="M154 799q0 34 10.5 63.5t29 51.5t44 34.5t55.5 12.5q52 0 75 -29.5t23 -83.5q0 -34 -11 -63.5t-30 -52t-43.5 -35.5t-52.5 -13q-51 0 -75.5 29.5t-24.5 85.5zM172 -543l47 1073q20 16 35 23.5t41 15.5l27 -18l49 -1034q-39 -25 -80.5 -47.5t-75.5 -34.5z" />
<glyph unicode="&#xa2;" horiz-adv-x="961" d="M104 586q0 88 27.5 166t76.5 139.5t117.5 105t149.5 64.5v153q14 9 20 13.5t10.5 7t11.5 4.5l22 6l26 -22v-146q12 1 24 1.5t25 0.5q33 0 67.5 -5.5t66.5 -16t58.5 -25t43.5 -33.5q2 -11 -3 -33t-14 -46t-20 -46.5t-20 -35.5l-35 10q-9 16 -24.5 35t-39 36t-55.5 30.5 t-74 18.5v-706q27 0 51 2.5t52.5 15t65.5 38.5t91 73l39 -41q-51 -60 -92 -100t-76.5 -64.5t-67 -36.5t-63.5 -16v-141q-9 -8 -16 -12.5t-13.5 -8t-15 -6t-20.5 -6.5l-25 25v145q-71 3 -137.5 34t-118.5 88.5t-83.5 141.5t-31.5 193zM256 616q0 -70 17 -127t46.5 -100 t69.5 -71.5t86 -42.5v691q-45 -9 -84.5 -34t-69.5 -68t-47.5 -104.5t-17.5 -143.5z" />
<glyph unicode="&#xa3;" horiz-adv-x="961" d="M64 19q31 25 55 47t41 47.5t28 59t16 82.5t4 117.5t-8 163.5h-114l-22 25l10 33l12 33h108q-6 142 16 255t73.5 191.5t134 120t196.5 41.5q26 0 50.5 -2t52.5 -9.5t62.5 -21t81.5 -37.5q-1 -26 -5 -63t-9.5 -75.5t-12 -73t-12.5 -53.5h-47q-14 124 -74.5 180t-160.5 56 q-27 0 -53.5 -5.5t-50 -23t-42.5 -51t-29.5 -90t-11.5 -140t11 -199.5h251l25 -23l-25 -68h-242q3 -68 -5 -131t-23.5 -118.5t-38 -102.5t-48.5 -83q45 4 80 5t64 0.5t54 -1.5t51.5 -2.5t55.5 -2t66 0.5q46 1 79 6t58.5 22t46.5 50.5t42 92.5l43 -18q-4 -43 -9.5 -82.5 t-11 -73t-11 -58.5t-9.5 -40q-45 -25 -105.5 -28t-130 4t-143 18.5t-144.5 16.5t-134.5 -2.5t-112.5 -38.5z" />
<glyph unicode="&#xa4;" horiz-adv-x="961" d="M158 343l107 107q-24 33 -35.5 71.5t-11.5 78.5t12 79t36 73l-107 108l2 33q14 8 30 16t32 15l107 -107q34 24 73 36.5t79 12.5t78 -12t72 -37l106 106l34 1l30 -66l-106 -106q24 -34 36.5 -73t12.5 -79t-12 -78.5t-36 -72.5l106 -105l1 -34l-66 -30l-105 105 q-34 -23 -72.5 -34.5t-78.5 -11.5t-79 11.5t-73 35.5l-108 -107l-33 2q-8 14 -16 30t-15 32zM313 601q0 -32 12 -62.5t37 -54.5q26 -26 57 -38t63 -12t63 12t56 37q24 25 36.5 56t12.5 63t-12.5 63t-37.5 56t-55.5 37t-62.5 12t-63 -12t-56 -37t-37.5 -56.5t-12.5 -63.5z " />
<glyph unicode="&#xa5;" horiz-adv-x="961" d="M-67 1193q59 8 118 14.5t101 6.5q46 0 78 -39q37 -48 71 -99t66 -107l65 -119l67 -134l214 379q15 26 -9.5 41t-101.5 25v43h396v-43q-68 -13 -105 -26.5t-51 -39.5l-282 -517v-51h271l25 -23l-25 -68h-271v-321q0 -6 8.5 -14.5t28 -18.5t51 -20t78.5 -19v-43h-490v43 q91 19 127.5 38.5t36.5 33.5v321h-272l-22 25l10 33l12 33h272v53l-73 146q-38 74 -77 141.5t-77 126t-72 101.5q-9 11 -20 21t-29 17.5t-45.5 12t-69.5 4.5z" />
<glyph unicode="&#xa6;" horiz-adv-x="500" d="M180 425l50 29q22 13 53 23l37 -25v-900q-20 -16 -49 -30t-54 -22l-37 23v902zM180 708v913l50 29q22 12 53 20l37 -22v-911q-20 -16 -49 -29.5t-54 -21.5z" />
<glyph unicode="&#xa7;" horiz-adv-x="961" d="M119 775q0 37 11.5 71.5t31 65t45 55t53.5 42.5q-35 40 -54 87t-19 104q0 62 25 107.5t66.5 75t95 43.5t110.5 14q31 0 68.5 -7t74 -19t68.5 -27.5t52 -33.5q6 -6 1.5 -27t-14 -46t-20.5 -47t-17 -30l-39 8q-48 72 -99.5 105.5t-100.5 33.5q-66 0 -103.5 -28.5 t-37.5 -81.5q0 -35 14 -63.5t41.5 -55.5t69 -54t96.5 -58q67 -38 122.5 -72.5t96 -74t63 -88.5t22.5 -118q0 -44 -9.5 -82t-26 -69.5t-37.5 -55.5t-43 -41q26 -28 41.5 -63t15.5 -82q0 -71 -20 -120t-52 -81.5t-71 -51t-77 -27.5t-71 -11t-53 -2q-24 0 -53.5 6t-62 17 t-67 26.5t-67.5 33.5q-7 3 -9.5 32.5t-1 68t6 77.5t11.5 62l43 -11q2 -42 22 -80.5t53.5 -68.5t78 -47.5t96.5 -17.5q72 0 118 34t46 105q0 40 -21.5 69t-57 52.5t-80 44.5t-89.5 46q-66 36 -119 72.5t-90 78t-57 91.5t-20 114zM250 822q0 -46 17 -81.5t52 -68t89 -66.5 l130 -77l52 -27q27 -14 52 -29q32 20 50.5 51.5t18.5 69.5q0 46 -18.5 83.5t-56.5 73t-95.5 71t-135.5 77.5q-23 12 -44 25l-41 28q-18 -6 -31 -21t-21.5 -34t-13 -39t-4.5 -36z" />
<glyph unicode="&#xa8;" horiz-adv-x="801" d="M100 1220q0 28 9 53t25 43.5t36.5 29t44.5 10.5q85 0 85 -95q0 -28 -9 -53t-24.5 -43.5t-36.5 -29.5t-46 -11q-45 0 -64.5 25t-19.5 71zM500 1220q0 28 9 53t25 43.5t36.5 29t44.5 10.5q85 0 85 -95q0 -28 -9 -53t-24.5 -43.5t-36.5 -29.5t-46 -11q-45 0 -64.5 25 t-19.5 71z" />
<glyph unicode="&#xa9;" horiz-adv-x="1460" d="M100 631q0 136 47 256.5t131 209.5t199 141t252 52q91 0 173.5 -23.5t152.5 -66.5t126.5 -103t96 -133.5t61 -157.5t21.5 -175t-21.5 -175.5t-61 -158t-96 -134t-126.5 -103.5t-152.5 -66.5t-173.5 -23.5q-137 0 -252 52t-199 141.5t-131 210t-47 257.5zM186 631 q0 -119 40.5 -224t113 -183t172 -123t217.5 -45q119 0 219 45t172.5 123t113 183t40.5 224q0 118 -40.5 222.5t-113 182.5t-172.5 123t-219 45q-118 0 -217.5 -45t-172 -123t-113 -182.5t-40.5 -222.5zM358 602q0 100 33.5 182t91.5 139.5t134.5 89t162.5 31.5 q76 0 132 -18.5t94 -44.5q4 -3 -2.5 -16t-17 -29t-23 -31t-21.5 -22l-24 4q-36 28 -81 52t-106 24q-32 0 -74 -16t-79.5 -54.5t-63 -103.5t-25.5 -162q0 -80 29.5 -140t74 -100.5t95 -61t92.5 -20.5q22 0 43 4t46 14t54.5 28t67.5 46q8 -3 15 -14t12 -14q-45 -43 -85.5 -72 t-78.5 -47t-74.5 -25.5t-72.5 -7.5q-65 0 -127.5 26t-111.5 75.5t-79.5 121t-30.5 162.5z" />
<glyph unicode="&#xaa;" horiz-adv-x="524" d="M49 825q0 62 47.5 109.5t149.5 75.5l92 24v17q0 31 -3.5 54.5t-12.5 39.5t-26 24.5t-44 8.5q-15 0 -31 -7t-28 -19.5t-17.5 -30t2.5 -38.5q1 -5 -12.5 -10.5t-31.5 -10t-35.5 -7t-24.5 -0.5l-8 20q4 31 31.5 60t63.5 51.5t74 35.5t64 13q36 0 61 -10t40.5 -33t22.5 -61 t7 -93v-196q0 -28 4 -40.5t10 -19.5q5 -3 20.5 -1.5t43.5 12.5l6 -25q-46 -31 -76.5 -44t-46.5 -13q-14 0 -28.5 20t-21.5 63q-48 -45 -94.5 -64t-80.5 -19q-20 0 -40.5 6t-37.5 19.5t-28 35t-11 53.5zM51 586v73h434v-73h-434zM147 848q0 -21 5.5 -34t13.5 -20.5t17 -10.5 t16 -3q31 0 66 14.5t73 45.5v152l-43 -11q-44 -12 -72.5 -26.5t-45.5 -31t-23.5 -35.5t-6.5 -40z" />
<glyph unicode="&#xab;" horiz-adv-x="994" d="M80 430v35q0 14 0.5 25t1.5 13l359 410l42 -30l-10 -18l-26 -47l-37 -68l-43 -76l-43 -76l-36 -67l-26 -47q-10 -17 -9 -17l231 -420l-43 -30zM450 430v35q0 14 0.5 25t1.5 13l359 410l42 -30l-10 -18l-26 -47l-37 -68l-43 -76l-43 -76l-36 -67l-26 -47q-10 -17 -9 -17 l231 -420l-43 -30z" />
<glyph unicode="&#xac;" horiz-adv-x="961" d="M61 530q5 20 13.5 44t17.5 44h770l29 -22v-363l-41 -29q-20 -14 -45 -22l-25 25v299h-694z" />
<glyph unicode="&#xad;" horiz-adv-x="690" d="M61 479q5 22 13.5 46.5t17.5 44.5h512l25 -24q-6 -22 -14.5 -48t-16.5 -43h-512z" />
<glyph unicode="&#xae;" horiz-adv-x="730" d="M35 1084q0 72 24.5 135t68.5 110t104 74t132 27t133 -27t105 -74t69 -110t25 -135t-25 -135t-69 -110t-105 -74t-133 -27t-132 27t-104 74t-68.5 110t-24.5 135zM93 1084q0 -60 20.5 -112t56.5 -91t85.5 -61.5t108.5 -22.5q60 0 110 22.5t86 61.5t56.5 91t20.5 112 q0 59 -20.5 111.5t-56.5 91.5t-86 61.5t-110 22.5q-59 0 -108.5 -22.5t-85.5 -61.5t-56.5 -91.5t-20.5 -111.5zM212 1273q29 7 61 12.5t74 5.5q75 0 113.5 -27t38.5 -68q0 -47 -28 -77.5t-72 -41.5l103 -143q7 -11 18.5 -14t33.5 -1l2 -21q-20 -6 -41.5 -11.5t-32.5 -5.5 q-9 0 -18 6t-13 12l-105 171h-2q-15 0 -31 3v-149q0 -10 43 -19v-18h-142v18q44 9 44 19v326l-44 -6zM313 1109q8 -2 13 -2h14q51 0 74.5 21t23.5 59q0 29 -22.5 49t-79.5 20h-12q-5 0 -11 -1v-146z" />
<glyph unicode="&#xaf;" horiz-adv-x="1010" d="M167 1200q2 11 7 25t11 29l12 28l11 23h613l22 -24q-2 -11 -7 -25.5t-11 -29.5l-11 -28l-10 -23h-615z" />
<glyph unicode="&#xb0;" horiz-adv-x="733" d="M140 948q0 62 23.5 114.5t61.5 91t85 60t94 21.5q39 0 73.5 -15.5t60 -41.5t40.5 -60.5t15 -72.5q0 -62 -24 -114t-62 -90.5t-85 -60t-93 -21.5q-41 0 -76 15t-60 41t-39 60t-14 73zM250 998q0 -28 7 -54.5t20.5 -47t33 -33t44.5 -12.5q24 0 47 9.5t41.5 28t29.5 45 t11 61.5q0 29 -7.5 55.5t-21 47t-33.5 32.5t-44 12q-25 0 -48 -10t-41 -29t-28.5 -45.5t-10.5 -59.5z" />
<glyph unicode="&#xb1;" horiz-adv-x="840" d="M61 159q5 20 13.5 43t17.5 43h662l24 -24q-5 -20 -13.5 -44.5t-16.5 -41.5h-662zM61 631q5 20 13.5 43t17.5 43h270v269q19 6 44 15t47 14l24 -23v-275h277l24 -24q-5 -20 -13.5 -44.5t-16.5 -41.5h-271v-266q-20 -10 -44 -18t-46 -13l-25 22v275h-276z" />
<glyph unicode="&#xb2;" horiz-adv-x="673" d="M59 664l145 146l106 113q44 49 73 86t45.5 66t23 52.5t6.5 46.5q0 56 -29.5 88.5t-101.5 32.5q-27 0 -49 -10t-37.5 -26t-24.5 -37t-9 -42q-24 -11 -51.5 -18.5t-59.5 -10.5l-18 18q0 31 24.5 65t66 62t95 46.5t111.5 18.5q46 0 84.5 -10t66.5 -31t43.5 -53t15.5 -76 q0 -40 -19 -81t-63 -95.5t-117 -128.5l-180 -183h273q23 0 37 15t22 33q9 21 12 48l45 -7l-10 -172h-506z" />
<glyph unicode="&#xb3;" horiz-adv-x="673" d="M38 701l23 41q32 -20 59.5 -33.5t53 -21.5t50.5 -11t51 -3q82 0 131.5 39.5t49.5 116.5q0 45 -15.5 75.5t-40 49.5t-54.5 27t-59 8h-15q-4 0 -8 -0.5t-9 -1.5t-16 -2l-9 46q62 15 99 34t56.5 39t25 41t5.5 39q0 21 -6.5 40.5t-20.5 35.5t-36.5 25.5t-54.5 9.5 q-53 0 -80 -25t-19 -66q-23 -11 -55 -16.5t-62 -7.5l-19 19q0 25 22.5 53.5t60.5 52.5t87.5 40t104.5 16q54 0 93 -14.5t64.5 -38t38 -53.5t12.5 -60q0 -23 -10 -46t-29 -44t-46.5 -38.5t-61.5 -27.5q40 -4 74.5 -20.5t59.5 -42t39.5 -58.5t14.5 -69q0 -51 -20 -95.5 t-58 -78.5t-92.5 -53.5t-122.5 -19.5q-63 0 -128 23.5t-128 75.5z" />
<glyph unicode="&#xb4;" horiz-adv-x="653" d="M217 1075l234 414q12 -1 32 -3.5t41.5 -6t41 -7t30.5 -6.5l23 -39l-345 -380q-18 4 -31.5 11.5t-25.5 16.5z" />
<glyph unicode="&#xb5;" horiz-adv-x="1105" d="M61 854v40l71 13q33 6 62 13.5t55.5 16.5t52.5 23l4 -5l11 -11l13 -14l10 -13v-551q0 -35 13 -76t36.5 -76t57.5 -59t76 -24q27 0 55.5 5t60 21.5t66.5 47t75 82.5v461q0 16 -3.5 38.5t-9 44.5t-12 41t-13.5 28q44 12 89.5 27.5t86.5 32.5l28 -39q-4 -26 -9 -62.5 t-7 -99.5v-491q0 -93 9 -131t30 -38q22 0 47.5 7.5t58.5 20.5l10 -45l-62 -39q-32 -20 -62 -36.5t-55.5 -27t-42.5 -10.5q-21 0 -36 17t-25 46t-15.5 67t-6.5 81q-81 -105 -156.5 -158t-133.5 -53q-59 0 -116 40.5t-101 112.5v-6q-1 -111 10.5 -198t31 -154t45 -114.5 t51.5 -78.5q-15 -5 -41 -15l-52 -20l-52 -20q-25 -10 -37 -16l-39 29v1202q0 39 -2.5 61t-15 34t-38.5 17.5t-73 10.5z" />
<glyph unicode="&#xb6;" horiz-adv-x="1135" d="M49 903q0 85 33.5 156t94.5 122.5t145.5 80t185.5 28.5q22 0 54 -1.5t69.5 -3.5t78 -4.5t79.5 -5.5l194 -15h72v-43q-68 -14 -107 -31t-39 -31v-1300q0 -13 36.5 -30.5t109.5 -31.5v-43h-611v43q69 14 107.5 31t38.5 31l1 677q-18 -3 -39 -4.5t-48 -1.5 q-93 0 -175.5 23.5t-145 71t-98.5 118t-36 164.5zM215 938q0 -54 19 -112t59.5 -106t103 -79t150.5 -31h44l1 590q-62 6 -103 6q-60 0 -110 -21t-86.5 -57t-57 -85t-20.5 -105zM711 -145q0 -11 14.5 -19.5t24.5 -11.5q12 3 26.5 11.5t14.5 19.5v1304q-20 7 -40 12l-40 10 v-1326z" />
<glyph unicode="&#xb7;" horiz-adv-x="300" d="M50 680q0 28 9 53t25 43.5t36.5 29t44.5 10.5q85 0 85 -95q0 -28 -9 -53t-24.5 -43.5t-36.5 -29.5t-46 -11q-45 0 -64.5 25t-19.5 71z" />
<glyph unicode="&#xb8;" horiz-adv-x="469" d="M78 -395q52 9 88.5 22.5t59.5 29.5t33.5 33.5t10.5 33.5q0 34 -26 47.5t-88 19.5q2 3 10 28l22 66l41 129l78 -2l-39 -116q26 -6 51.5 -15.5t45 -24.5t31.5 -36t12 -49q0 -37 -17.5 -71t-54.5 -62t-95.5 -49t-140.5 -33z" />
<glyph unicode="&#xb9;" horiz-adv-x="673" d="M97 1265q29 7 71 20l86 27l81.5 29.5t61.5 25.5l26 -21v-630q0 -6 6 -13t23.5 -14.5t50 -14t85.5 -12.5v-42h-469v42q55 6 89.5 12.5t54.5 13.5t27.5 14.5t7.5 13.5v458q0 24 -2 37.5t-11 21.5q-4 4 -14.5 6t-30 1.5t-51 -4t-77.5 -12.5z" />
<glyph unicode="&#xba;" horiz-adv-x="578" d="M49 963q0 52 20 101t55 87t81.5 61t99.5 23q48 0 89 -19t71 -52.5t46.5 -80t16.5 -100.5q0 -51 -22.5 -100t-58.5 -87.5t-82 -61.5t-93 -23q-50 0 -91 19t-70.5 52.5t-45.5 79.5t-16 101zM61 586v73h455v-73h-455zM143 977q0 -42 14 -80t36.5 -66.5t51.5 -45.5t60 -17 q27 0 50.5 15t41 42t27.5 63.5t10 78.5t-13 80t-35 66.5t-51.5 45.5t-62.5 17q-30 0 -53.5 -15t-40.5 -42t-26 -63.5t-9 -78.5z" />
<glyph unicode="&#xbb;" horiz-adv-x="994" d="M140 47l231 420l-230 416l42 30l359 -410l2 -73l-361 -413zM510 47l231 420l-230 416l42 30l359 -410l2 -73l-361 -413z" />
<glyph unicode="&#xbc;" horiz-adv-x="1200" d="M80 1153q23 6 56.5 16t68 21.5t66 23.5t49.5 21l20 -17v-504q0 -5 5 -10.5t19 -11.5t40 -11.5t68 -9.5v-34h-375v34q44 4 72 9.5t43.5 11t21.5 11.5t6 11v366q0 20 -1 30.5t-9 16.5q-3 3 -11.5 5t-24 1.5t-40.5 -3.5t-62 -10zM208 0l762 1203l44 17q23 10 45 15l25 -28 l-758 -1204q-23 -11 -44.5 -18.5t-48.5 -14.5zM653 180l280 383q23 9 48.5 18t42.5 17l20 -17v-355h61l15 -16l-22 -26q-10 -12 -23 -20h-31v-106q0 -4 2 -7t9.5 -6.5t21.5 -7.5t37 -8v-29h-274v29q36 5 58 9.5t33.5 8.5t15 8t3.5 8v101h-278zM749 226h201v265z" />
<glyph unicode="&#xbd;" horiz-adv-x="1200" d="M80 1153q23 6 56.5 16t68 21.5t66 23.5t49.5 21l20 -17v-504q0 -5 5 -10.5t19 -11.5t40 -11.5t68 -9.5v-34h-375v34q44 4 72 9.5t43.5 11t21.5 11.5t6 11v366q0 20 -1 30.5t-9 16.5q-3 3 -11.5 5t-24 1.5t-40.5 -3.5t-62 -10zM199 0l762 1203l43 17q24 10 46 15l25 -28 l-758 -1204q-23 -11 -44.5 -18.5t-48.5 -14.5zM691 35l162 165q62 66 97 111t47.5 75t12.5 57q0 45 -23.5 71t-80.5 26q-21 0 -39 -8t-30.5 -21t-19.5 -29.5t-7 -33.5q-37 -18 -89 -23l-15 14q0 25 20 52.5t53 50t76 37t89 14.5q37 0 67.5 -8t53 -25t35 -42.5t12.5 -60.5 q0 -32 -15 -65t-50.5 -76.5t-93.5 -103.5l-144 -146h218q19 0 30.5 12t17.5 26q7 17 9 39l36 -5l-8 -138h-405z" />
<glyph unicode="&#xbe;" horiz-adv-x="1200" d="M80 702l18 33q51 -32 90.5 -43.5t81.5 -11.5q66 0 105 31.5t39 93.5q0 36 -12 60.5t-31.5 39.5t-43.5 21.5t-48 6.5h-12q-3 0 -6 -0.5t-7 -1.5t-13 -2l-7 37q49 12 78.5 27t45 31.5t20 33t4.5 31.5q0 16 -5 32t-16.5 28.5t-29.5 20t-43 7.5q-42 0 -64 -20t-15 -52 q-19 -9 -44.5 -13.5t-49.5 -6.5l-15 16q0 20 18 42.5t48 42t70 32t84 12.5q43 0 74.5 -11.5t51.5 -30.5t30 -43t10 -48q0 -18 -8 -36.5t-23 -35t-37 -30.5t-49 -22q32 -3 59.5 -16.5t47.5 -34t31.5 -46.5t11.5 -55q0 -41 -16 -77t-46.5 -63t-74 -42.5t-97.5 -15.5 q-51 0 -102.5 18.5t-102.5 60.5zM198 0l762 1203l44 17q23 10 45 15l25 -28l-758 -1204q-23 -11 -44.5 -18.5t-48.5 -14.5zM653 180l280 383q23 9 48.5 18t42.5 17l20 -17v-355h61l15 -16l-22 -26q-10 -12 -23 -20h-31v-106q0 -4 2 -7t9.5 -6.5t21.5 -7.5t37 -8v-29h-274v29 q36 5 58 9.5t33.5 8.5t15 8t3.5 8v101h-278zM749 226h201v265z" />
<glyph unicode="&#xbf;" horiz-adv-x="887" d="M80 -246q0 75 23.5 135.5t59.5 112.5t78 100t80 98.5t65 107t32 126.5l6 96q17 16 32.5 24.5t41.5 16.5l26 -20l6 -117q4 -57 -15.5 -113t-51.5 -111t-69.5 -108t-70.5 -104.5t-55 -101t-22 -97.5q0 -124 56 -194t161 -70q36 0 68.5 16.5t57.5 44t39.5 63.5t14.5 75 q0 15 -4 29t-10 28q34 19 69 27.5t80 11.5l27 -31q2 -8 2 -16v-16q0 -71 -34.5 -130.5t-93 -103t-134.5 -68t-160 -24.5q-74 0 -131 23t-95.5 64.5t-58.5 99t-20 126.5zM348 799q0 34 10.5 63t29 51t43.5 34.5t54 12.5q53 0 77 -29t24 -83q0 -34 -11 -63.5t-30.5 -52 t-45 -35.5t-53.5 -13q-51 0 -74.5 29.5t-23.5 85.5z" />
<glyph unicode="&#xc0;" horiz-adv-x="1219" d="M0 0v43q68 12 108 25t50 43l372 1126q23 25 57 45.5t60 34.5l420 -1206q5 -14 14 -25t24 -19t38 -14t55 -10v-43h-422v43q78 5 108 20t19 48l-114 334h-408l-111 -334q-10 -31 27 -45t119 -23v-43h-416zM411 535h347l-176 514zM262 1610l8 45q7 8 22.5 18l33.5 21l35 20 l28 15l387 -317l-22 -28q-7 -10 -23 -17z" />
<glyph unicode="&#xc1;" horiz-adv-x="1219" d="M0 0v43q68 12 108 25t50 43l372 1126q23 25 57 45.5t60 34.5l420 -1206q5 -14 14 -25t24 -19t38 -14t55 -10v-43h-422v43q78 5 108 20t19 48l-114 334h-408l-111 -334q-10 -31 27 -45t119 -23v-43h-416zM411 535h347l-176 514zM422 1412l387 317l27 -15l35 -20l33 -21 t23 -18l9 -45l-469 -243q-17 7 -24.5 16.5t-20.5 28.5z" />
<glyph unicode="&#xc2;" horiz-adv-x="1219" d="M0 0v43q68 12 108 25t50 43l372 1126q23 25 57 45.5t60 34.5l420 -1206q5 -14 14 -25t24 -19t38 -14t55 -10v-43h-422v43q78 5 108 20t19 48l-114 334h-408l-111 -334q-10 -31 27 -45t119 -23v-43h-416zM411 535h347l-176 514zM282 1412l264 309h107l262 -309 q-12 -19 -19 -28t-24 -17l-274 208l-271 -208q-8 4 -13.5 8t-10 9t-9.5 12z" />
<glyph unicode="&#xc3;" horiz-adv-x="1219" d="M0 0v43q68 12 108 25t50 43l372 1126q23 25 57 45.5t60 34.5l420 -1206q5 -14 14 -25t24 -19t38 -14t55 -10v-43h-422v43q78 5 108 20t19 48l-114 334h-408l-111 -334q-10 -31 27 -45t119 -23v-43h-416zM411 535h347l-176 514zM258 1413q18 41 42.5 81.5t55.5 72.5 t66.5 52t74.5 20q38 0 72 -17.5t64 -39t57 -39t51 -17.5q38 0 74.5 32t70.5 91l54 -23q-18 -41 -43 -81t-55.5 -72t-66.5 -52t-75 -20q-35 0 -66.5 17.5t-61.5 39t-59.5 39t-58.5 17.5q-40 0 -73 -32.5t-70 -88.5z" />
<glyph unicode="&#xc4;" horiz-adv-x="1219" d="M0 0v43q68 12 108 25t50 43l372 1126q23 25 57 45.5t60 34.5l420 -1206q5 -14 14 -25t24 -19t38 -14t55 -10v-43h-422v43q78 5 108 20t19 48l-114 334h-408l-111 -334q-10 -31 27 -45t119 -23v-43h-416zM411 535h347l-176 514zM299 1500q0 28 9 53t25 43.5t36.5 29 t44.5 10.5q85 0 85 -95q0 -28 -9 -53t-24.5 -43.5t-36.5 -29.5t-46 -11q-45 0 -64.5 25t-19.5 71zM699 1500q0 28 9 53t25 43.5t36.5 29t44.5 10.5q85 0 85 -95q0 -28 -9 -53t-24.5 -43.5t-36.5 -29.5t-46 -11q-45 0 -64.5 25t-19.5 71z" />
<glyph unicode="&#xc5;" horiz-adv-x="1219" d="M0 0v43q68 12 108 25t50 43l372 1126q23 25 57 45.5t60 34.5l420 -1206q5 -14 14 -25t24 -19t38 -14t55 -10v-43h-422v43q78 5 108 20t19 48l-114 334h-408l-111 -334q-10 -31 27 -45t119 -23v-43h-416zM411 535h347l-176 514zM413 1524q0 51 19.5 94.5t50.5 75t69.5 49 t77.5 17.5q32 0 60.5 -12.5t49.5 -34t33 -50t12 -59.5q0 -51 -19.5 -93.5t-51 -74t-70 -49t-76.5 -17.5q-34 0 -62.5 12t-49 33t-32 49t-11.5 60zM503 1565q0 -23 6 -44.5t17 -38t27 -26.5t36 -10t39 7.5t34 22.5t24 36.5t9 50.5q0 24 -6 46t-17 38.5t-27 26.5t-36 10 q-21 0 -40 -8.5t-33.5 -24t-23.5 -37.5t-9 -49z" />
<glyph unicode="&#xc6;" horiz-adv-x="1595" d="M0 0v43q68 12 106.5 25.5t51.5 42.5l413 1022q7 17 -3.5 28.5t-35.5 21t-63.5 17.5t-87.5 17v43h1057l30 -25q-2 -26 -5.5 -57t-9 -62t-12.5 -59t-14 -47h-45q-2 46 -8 77t-16 49.5t-24.5 26t-33.5 7.5h-366v-435h405l27 -28l-20 -30q-11 -16 -23.5 -31.5t-25 -28.5 t-23.5 -21q-15 15 -32 25t-40 17t-54 10t-73 3h-141v-497q0 -15 7.5 -26.5t30 -20t63 -13t106.5 -4.5h129q46 0 78.5 5t57 22.5t44.5 51.5t41 93l45 -18q-9 -87 -22 -151t-21 -93h-862v43q68 14 105.5 30.5t37.5 30.5v547h-269l-220 -540q-13 -29 18 -44t113 -24v-43h-416z M539 735h235v413q0 11 -9.5 16t-22.5 3.5t-26 -10.5t-20 -26z" />
<glyph unicode="&#xc7;" horiz-adv-x="1098" d="M70 586q0 160 48.5 290t131.5 222t193 142t233 50q108 0 189.5 -29t133.5 -71q6 -5 -3 -20t-24.5 -34t-33.5 -38l-29 -31l-35 6q-51 47 -121 77t-161 30q-34 0 -74.5 -12.5t-81.5 -39.5t-79 -70.5t-67.5 -105.5t-47 -143.5t-17.5 -185.5q0 -133 38.5 -233t99 -166.5 t135 -100t145.5 -33.5q54 0 141 37t197 129q5 -2 10.5 -8.5t10.5 -13.5t9 -13.5t7 -9.5q-64 -68 -122.5 -114.5t-113 -74.5t-107.5 -40q-20 -4 -40 -7l-26 -79q26 -6 51.5 -15.5t45 -24.5t31.5 -36t12 -49q0 -37 -17.5 -71t-54.5 -62t-95.5 -49t-140.5 -33l-22 49 q52 9 88.5 22.5t59.5 29.5t33.5 33.5t10.5 33.5q0 34 -26 47.5t-88 19.5q2 3 10 28l21 66l28 85q-85 4 -168 42q-89 42 -160 121t-114.5 193.5t-43.5 259.5z" />
<glyph unicode="&#xc8;" horiz-adv-x="1016" d="M50 0v43q68 14 106.5 30.5t38.5 30.5v1051q0 12 -36.5 30t-108.5 32v43h806l33 -25q-2 -26 -6 -57t-10 -62t-12.5 -59t-12.5 -47h-45q-2 46 -8.5 77t-16.5 49.5t-24.5 26t-32.5 7.5h-366v-435h405l26 -28q-8 -14 -19.5 -30t-24 -31.5t-25 -28.5t-23.5 -21 q-15 15 -32.5 25t-40 17t-53 10t-72.5 3h-141v-497q0 -15 7 -26.5t29 -20t62 -13t106 -4.5h129q46 0 78.5 5t57.5 22.5t45.5 51.5t41.5 93l43 -18q-8 -86 -20.5 -150.5t-20.5 -93.5h-863zM165 1610l8 45q7 8 22.5 18l33.5 21l35 20l28 15l387 -317l-22 -28q-7 -10 -23 -17z " />
<glyph unicode="&#xc9;" horiz-adv-x="1016" d="M50 0v43q68 14 106.5 30.5t38.5 30.5v1051q0 12 -36.5 30t-108.5 32v43h806l33 -25q-2 -26 -6 -57t-10 -62t-12.5 -59t-12.5 -47h-45q-2 46 -8.5 77t-16.5 49.5t-24.5 26t-32.5 7.5h-366v-435h405l26 -28q-8 -14 -19.5 -30t-24 -31.5t-25 -28.5t-23.5 -21 q-15 15 -32.5 25t-40 17t-53 10t-72.5 3h-141v-497q0 -15 7 -26.5t29 -20t62 -13t106 -4.5h129q46 0 78.5 5t57.5 22.5t45.5 51.5t41.5 93l43 -18q-8 -86 -20.5 -150.5t-20.5 -93.5h-863zM325 1412l387 317l27 -15l35 -20l33 -21t23 -18l9 -45l-469 -243q-17 7 -24.5 16.5 t-20.5 28.5z" />
<glyph unicode="&#xca;" horiz-adv-x="1016" d="M50 0v43q68 14 106.5 30.5t38.5 30.5v1051q0 12 -36.5 30t-108.5 32v43h806l33 -25q-2 -26 -6 -57t-10 -62t-12.5 -59t-12.5 -47h-45q-2 46 -8.5 77t-16.5 49.5t-24.5 26t-32.5 7.5h-366v-435h405l26 -28q-8 -14 -19.5 -30t-24 -31.5t-25 -28.5t-23.5 -21 q-15 15 -32.5 25t-40 17t-53 10t-72.5 3h-141v-497q0 -15 7 -26.5t29 -20t62 -13t106 -4.5h129q46 0 78.5 5t57.5 22.5t45.5 51.5t41.5 93l43 -18q-8 -86 -20.5 -150.5t-20.5 -93.5h-863zM185 1412l264 309h107l262 -309q-12 -19 -19 -28t-24 -17l-274 208l-271 -208 q-8 4 -13.5 8t-10 9t-9.5 12z" />
<glyph unicode="&#xcb;" horiz-adv-x="1016" d="M50 0v43q68 14 106.5 30.5t38.5 30.5v1051q0 12 -36.5 30t-108.5 32v43h806l33 -25q-2 -26 -6 -57t-10 -62t-12.5 -59t-12.5 -47h-45q-2 46 -8.5 77t-16.5 49.5t-24.5 26t-32.5 7.5h-366v-435h405l26 -28q-8 -14 -19.5 -30t-24 -31.5t-25 -28.5t-23.5 -21 q-15 15 -32.5 25t-40 17t-53 10t-72.5 3h-141v-497q0 -15 7 -26.5t29 -20t62 -13t106 -4.5h129q46 0 78.5 5t57.5 22.5t45.5 51.5t41.5 93l43 -18q-8 -86 -20.5 -150.5t-20.5 -93.5h-863zM202 1500q0 28 9 53t25 43.5t36.5 29t44.5 10.5q85 0 85 -95q0 -28 -9 -53 t-24.5 -43.5t-36.5 -29.5t-46 -11q-45 0 -64.5 25t-19.5 71zM602 1500q0 28 9 53t25 43.5t36.5 29t44.5 10.5q85 0 85 -95q0 -28 -9 -53t-24.5 -43.5t-36.5 -29.5t-46 -11q-45 0 -64.5 25t-19.5 71z" />
<glyph unicode="&#xcc;" horiz-adv-x="610" d="M70 0v43q68 14 106.5 30.5t38.5 30.5v1051q0 12 -36.5 30t-108.5 32v43h450v-43q-68 -14 -106.5 -31t-38.5 -31v-1051q0 -12 36.5 -29.5t108.5 -31.5v-43h-450zM-42 1610l8 45q7 8 22.5 18l33.5 21l35 20l28 15l387 -317l-22 -28q-7 -10 -23 -17z" />
<glyph unicode="&#xcd;" horiz-adv-x="610" d="M70 0v43q68 14 106.5 30.5t38.5 30.5v1051q0 12 -36.5 30t-108.5 32v43h450v-43q-68 -14 -106.5 -31t-38.5 -31v-1051q0 -12 36.5 -29.5t108.5 -31.5v-43h-450zM118 1412l387 317l27 -15l35 -20l33 -21t23 -18l9 -45l-469 -243q-17 7 -24.5 16.5t-20.5 28.5z" />
<glyph unicode="&#xce;" horiz-adv-x="610" d="M70 0v43q68 14 106.5 30.5t38.5 30.5v1051q0 12 -36.5 30t-108.5 32v43h450v-43q-68 -14 -106.5 -31t-38.5 -31v-1051q0 -12 36.5 -29.5t108.5 -31.5v-43h-450zM-22 1412l264 309h107l262 -309q-12 -19 -19 -28t-24 -17l-274 208l-271 -208q-8 4 -13.5 8t-10 9t-9.5 12z " />
<glyph unicode="&#xcf;" horiz-adv-x="610" d="M70 0v43q68 14 106.5 30.5t38.5 30.5v1051q0 12 -36.5 30t-108.5 32v43h450v-43q-68 -14 -106.5 -31t-38.5 -31v-1051q0 -12 36.5 -29.5t108.5 -31.5v-43h-450zM-5 1500q0 28 9 53t25 43.5t36.5 29t44.5 10.5q85 0 85 -95q0 -28 -9 -53t-24.5 -43.5t-36.5 -29.5t-46 -11 q-45 0 -64.5 25t-19.5 71zM395 1500q0 28 9 53t25 43.5t36.5 29t44.5 10.5q85 0 85 -95q0 -28 -9 -53t-24.5 -43.5t-36.5 -29.5t-46 -11q-45 0 -64.5 25t-19.5 71z" />
<glyph unicode="&#xd0;" horiz-adv-x="1214" d="M27 640l11 32q5 17 11 33h146v483q-40 -5 -76 -10l-69 -10l-9 62q44 12 101.5 23t121.5 19.5t129.5 13t124.5 4.5q139 0 251 -41.5t190.5 -120.5t121 -193t42.5 -259q0 -125 -25.5 -223.5t-68.5 -174t-99.5 -128t-119.5 -86t-127.5 -49t-123.5 -15.5h-509v43 q68 14 106.5 30.5t38.5 30.5v511h-146zM355 154q0 -22 10 -36q14 -17 54 -25.5t118 -8.5q69 0 142.5 33.5t134.5 102t100 172.5t39 245q0 133 -33 238.5t-96.5 179t-157 112.5t-213.5 39q-50 0 -98 -3v-498h259l25 -23l-25 -67h-259v-461z" />
<glyph unicode="&#xd1;" horiz-adv-x="1329" d="M50 0v43q74 9 109.5 28t35.5 33v1045q-33 31 -69.5 46.5t-75.5 21.5v43h212q15 0 24.5 -2.5t19.5 -10.5q10 -7 22 -23l30 -42l657 -906v879q0 12 -32.5 31.5t-112.5 30.5v43h410v-43q-72 -10 -108.5 -29t-36.5 -33v-1185q-50 6 -78.5 20t-40.5 31l-701 972v-889 q0 -12 33.5 -31t111.5 -30v-43h-410zM324 1413q18 41 42.5 81.5t55.5 72.5t66.5 52t74.5 20q38 0 72 -17.5t64 -39t57 -39t51 -17.5q38 0 74.5 32t70.5 91l54 -23q-18 -41 -43 -81t-55.5 -72t-66.5 -52t-75 -20q-35 0 -66.5 17.5t-61.5 39t-59.5 39t-58.5 17.5 q-40 0 -73 -32.5t-70 -88.5z" />
<glyph unicode="&#xd2;" horiz-adv-x="1229" d="M70 612q0 136 44 259t120 216t178.5 148t220.5 55q124 0 218 -54.5t158 -144.5t96.5 -206t32.5 -238q0 -136 -45 -258.5t-122.5 -215.5t-179.5 -148t-216 -55q-120 0 -214 53t-158.5 142t-98.5 205t-34 242zM225 641q0 -112 30.5 -212t82 -175.5t120.5 -119.5t146 -44 q83 0 152.5 34.5t120 102.5t78.5 169t28 233q0 69 -12.5 136.5t-35.5 128t-56.5 112t-75.5 89t-92 59t-107 21.5q-89 0 -159.5 -37.5t-119 -107t-74.5 -168.5t-26 -221zM278 1610l8 45q7 8 22.5 18l33.5 21l35 20l28 15l387 -317l-22 -28q-7 -10 -23 -17z" />
<glyph unicode="&#xd3;" horiz-adv-x="1229" d="M70 612q0 136 44 259t120 216t178.5 148t220.5 55q124 0 218 -54.5t158 -144.5t96.5 -206t32.5 -238q0 -136 -45 -258.5t-122.5 -215.5t-179.5 -148t-216 -55q-120 0 -214 53t-158.5 142t-98.5 205t-34 242zM225 641q0 -112 30.5 -212t82 -175.5t120.5 -119.5t146 -44 q83 0 152.5 34.5t120 102.5t78.5 169t28 233q0 69 -12.5 136.5t-35.5 128t-56.5 112t-75.5 89t-92 59t-107 21.5q-89 0 -159.5 -37.5t-119 -107t-74.5 -168.5t-26 -221zM438 1412l387 317l27 -15l35 -20l33 -21t23 -18l9 -45l-469 -243q-17 7 -24.5 16.5t-20.5 28.5z" />
<glyph unicode="&#xd4;" horiz-adv-x="1229" d="M70 612q0 136 44 259t120 216t178.5 148t220.5 55q124 0 218 -54.5t158 -144.5t96.5 -206t32.5 -238q0 -136 -45 -258.5t-122.5 -215.5t-179.5 -148t-216 -55q-120 0 -214 53t-158.5 142t-98.5 205t-34 242zM225 641q0 -112 30.5 -212t82 -175.5t120.5 -119.5t146 -44 q83 0 152.5 34.5t120 102.5t78.5 169t28 233q0 69 -12.5 136.5t-35.5 128t-56.5 112t-75.5 89t-92 59t-107 21.5q-89 0 -159.5 -37.5t-119 -107t-74.5 -168.5t-26 -221zM298 1412l264 309h107l262 -309q-12 -19 -19 -28t-24 -17l-274 208l-271 -208q-8 4 -13.5 8t-10 9 t-9.5 12z" />
<glyph unicode="&#xd5;" horiz-adv-x="1229" d="M70 612q0 136 44 259t120 216t178.5 148t220.5 55q124 0 218 -54.5t158 -144.5t96.5 -206t32.5 -238q0 -136 -45 -258.5t-122.5 -215.5t-179.5 -148t-216 -55q-120 0 -214 53t-158.5 142t-98.5 205t-34 242zM225 641q0 -112 30.5 -212t82 -175.5t120.5 -119.5t146 -44 q83 0 152.5 34.5t120 102.5t78.5 169t28 233q0 69 -12.5 136.5t-35.5 128t-56.5 112t-75.5 89t-92 59t-107 21.5q-89 0 -159.5 -37.5t-119 -107t-74.5 -168.5t-26 -221zM274 1413q18 41 42.5 81.5t55.5 72.5t66.5 52t74.5 20q38 0 72 -17.5t64 -39t57 -39t51 -17.5 q38 0 74.5 32t70.5 91l54 -23q-18 -41 -43 -81t-55.5 -72t-66.5 -52t-75 -20q-35 0 -66.5 17.5t-61.5 39t-59.5 39t-58.5 17.5q-40 0 -73 -32.5t-70 -88.5z" />
<glyph unicode="&#xd6;" horiz-adv-x="1229" d="M70 612q0 136 44 259t120 216t178.5 148t220.5 55q124 0 218 -54.5t158 -144.5t96.5 -206t32.5 -238q0 -136 -45 -258.5t-122.5 -215.5t-179.5 -148t-216 -55q-120 0 -214 53t-158.5 142t-98.5 205t-34 242zM225 641q0 -112 30.5 -212t82 -175.5t120.5 -119.5t146 -44 q83 0 152.5 34.5t120 102.5t78.5 169t28 233q0 69 -12.5 136.5t-35.5 128t-56.5 112t-75.5 89t-92 59t-107 21.5q-89 0 -159.5 -37.5t-119 -107t-74.5 -168.5t-26 -221zM315 1500q0 28 9 53t25 43.5t36.5 29t44.5 10.5q85 0 85 -95q0 -28 -9 -53t-24.5 -43.5t-36.5 -29.5 t-46 -11q-45 0 -64.5 25t-19.5 71zM715 1500q0 28 9 53t25 43.5t36.5 29t44.5 10.5q85 0 85 -95q0 -28 -9 -53t-24.5 -43.5t-36.5 -29.5t-46 -11q-45 0 -64.5 25t-19.5 71z" />
<glyph unicode="&#xd7;" horiz-adv-x="840" d="M93 280v34l248 248l-246 246l-1 34q20 9 45.5 17.5t47.5 13.5l232 -233l233 233q22 -5 47.5 -13.5t45.5 -17.5v-34l-247 -247l248 -247v-34q-20 -8 -47 -17t-45 -14l-234 234l-234 -234q-19 5 -46 14t-47 17z" />
<glyph unicode="&#xd8;" horiz-adv-x="1229" d="M70 612q0 136 44 259t120 216t178.5 148t220.5 55q87 0 158.5 -27.5t129.5 -75.5l54 77q28 17 62 29t65 20l28 -33l-127 -181q67 -91 101 -209t34 -243q0 -136 -45 -258.5t-122.5 -215.5t-179.5 -148t-216 -55q-87 0 -158.5 27.5t-130.5 76.5l-53 -76q-9 -8 -25.5 -15.5 t-35.5 -14t-37.5 -12t-30.5 -9.5l-28 33l128 182q-66 90 -100 206t-34 244zM225 641q0 -94 21 -179t59 -155l529 756q-46 52 -104 82t-126 30q-89 0 -159.5 -37.5t-119 -107t-74.5 -168.5t-26 -221zM377 203q48 -54 106 -83.5t121 -29.5q83 0 152.5 34.5t120 102.5t78.5 169 t28 233q0 89 -20 173.5t-58 156.5z" />
<glyph unicode="&#xd9;" horiz-adv-x="1339" d="M50 1217v43h450v-43q-68 -14 -106.5 -31t-38.5 -31v-661q0 -96 22.5 -172t67 -128.5t109.5 -80.5t151 -28q71 0 126 34.5t92.5 90.5t57 127.5t19.5 145.5v672q0 12 -36.5 30t-108.5 32v43h420v-43q-68 -14 -106.5 -31t-38.5 -31v-631q0 -131 -32 -234t-92 -174 t-146 -108.5t-194 -37.5q-103 0 -189.5 28.5t-149 87t-97.5 147.5t-35 211v711q0 12 -36.5 30t-108.5 32zM340 1610l8 45q7 8 22.5 18l33.5 21l35 20l28 15l387 -317l-22 -28q-7 -10 -23 -17z" />
<glyph unicode="&#xda;" horiz-adv-x="1339" d="M50 1217v43h450v-43q-68 -14 -106.5 -31t-38.5 -31v-661q0 -96 22.5 -172t67 -128.5t109.5 -80.5t151 -28q71 0 126 34.5t92.5 90.5t57 127.5t19.5 145.5v672q0 12 -36.5 30t-108.5 32v43h420v-43q-68 -14 -106.5 -31t-38.5 -31v-631q0 -131 -32 -234t-92 -174 t-146 -108.5t-194 -37.5q-103 0 -189.5 28.5t-149 87t-97.5 147.5t-35 211v711q0 12 -36.5 30t-108.5 32zM500 1412l387 317l27 -15l35 -20l33 -21t23 -18l9 -45l-469 -243q-17 7 -24.5 16.5t-20.5 28.5z" />
<glyph unicode="&#xdb;" horiz-adv-x="1339" d="M50 1217v43h450v-43q-68 -14 -106.5 -31t-38.5 -31v-661q0 -96 22.5 -172t67 -128.5t109.5 -80.5t151 -28q71 0 126 34.5t92.5 90.5t57 127.5t19.5 145.5v672q0 12 -36.5 30t-108.5 32v43h420v-43q-68 -14 -106.5 -31t-38.5 -31v-631q0 -131 -32 -234t-92 -174 t-146 -108.5t-194 -37.5q-103 0 -189.5 28.5t-149 87t-97.5 147.5t-35 211v711q0 12 -36.5 30t-108.5 32zM360 1412l264 309h107l262 -309q-12 -19 -19 -28t-24 -17l-274 208l-271 -208q-8 4 -13.5 8t-10 9t-9.5 12z" />
<glyph unicode="&#xdc;" horiz-adv-x="1339" d="M50 1217v43h450v-43q-68 -14 -106.5 -31t-38.5 -31v-661q0 -96 22.5 -172t67 -128.5t109.5 -80.5t151 -28q71 0 126 34.5t92.5 90.5t57 127.5t19.5 145.5v672q0 12 -36.5 30t-108.5 32v43h420v-43q-68 -14 -106.5 -31t-38.5 -31v-631q0 -131 -32 -234t-92 -174 t-146 -108.5t-194 -37.5q-103 0 -189.5 28.5t-149 87t-97.5 147.5t-35 211v711q0 12 -36.5 30t-108.5 32zM377 1500q0 28 9 53t25 43.5t36.5 29t44.5 10.5q85 0 85 -95q0 -28 -9 -53t-24.5 -43.5t-36.5 -29.5t-46 -11q-45 0 -64.5 25t-19.5 71zM777 1500q0 28 9 53t25 43.5 t36.5 29t44.5 10.5q85 0 85 -95q0 -28 -9 -53t-24.5 -43.5t-36.5 -29.5t-46 -11q-45 0 -64.5 25t-19.5 71z" />
<glyph unicode="&#xdd;" horiz-adv-x="1217" d="M0 1249q59 8 118 14.5t101 6.5q46 0 78 -39q37 -48 80 -113.5t86 -138.5t84 -150l76 -149l268 471q15 26 -9.5 41t-101.5 25v43h396v-43q-69 -13 -105.5 -26.5t-50.5 -39.5l-336 -610v-426q0 -6 8.5 -14.5t28 -18.5t51 -20t78.5 -19v-43h-490v43q91 19 127.5 38.5 t36.5 33.5v422q-37 81 -84 169t-96 171l-95 155q-46 71 -81 119q-9 11 -20.5 21t-29.5 17.5t-45 12t-69 4.5zM427 1412l387 317l27 -15l35 -20l33 -21t23 -18l9 -45l-469 -243q-17 7 -24.5 16.5t-20.5 28.5z" />
<glyph unicode="&#xde;" horiz-adv-x="1071" d="M49 0v43q68 14 107 30.5t39 30.5v1051q0 12 -37 30t-109 32v43h481v-43q-51 -9 -85 -17t-54 -15.5t-28 -15t-8 -14.5v-141q63 6 155 6q108 0 195 -23t148.5 -68t95 -111t33.5 -152q0 -69 -19.5 -126t-52 -101.5t-74.5 -77t-87.5 -54t-91 -32t-84.5 -10.5q-46 0 -86.5 8 t-74.5 25l-23 71q42 -19 80.5 -24t73.5 -5q46 0 96 18t92 53.5t69 89t27 124.5q0 83 -29.5 142t-80.5 96.5t-119 55t-145 17.5q-50 0 -98 -3v-829q0 -6 8 -13t27.5 -15t53.5 -16t86 -17v-43h-481z" />
<glyph unicode="&#xdf;" horiz-adv-x="1157" d="M55 0v43q68 12 104 29.5t36 29.5v859q0 120 16.5 201t43.5 136t63 91.5t75 68.5q54 44 121 68t139 24q86 0 146 -35.5t97.5 -89.5t54 -117t16.5 -118q0 -82 -25.5 -134t-63.5 -85t-83 -54l-83 -40q-38 -19 -63.5 -43t-25.5 -64q0 -33 19 -57.5t50.5 -45.5t71.5 -41 l81 -41q42 -22 81.5 -48.5t71 -62t50.5 -82.5t19 -109q0 -59 -19 -115t-60 -100t-105 -71t-154 -27q-28 0 -69 7.5t-81 18.5t-71.5 25t-38.5 26q-3 5 -4.5 22.5t-1.5 41.5t1 51t3.5 52t6.5 43.5t9 25.5l39 -13q7 -54 32 -92t60 -62t75.5 -35t78.5 -11q35 0 66 10.5t54 30 t36 46.5t13 60q0 52 -19.5 90.5t-51.5 68t-72.5 53.5t-83.5 46t-83.5 45.5t-72.5 53t-51.5 67t-19.5 88.5q0 67 24.5 109.5t61.5 70t80 46.5t80 40t61.5 50t24.5 77q0 51 -14 104.5t-44 97.5t-77.5 72.5t-114.5 28.5q-48 0 -88.5 -17.5t-70 -63.5t-45.5 -125t-16 -203v-1016 h-290z" />
<glyph unicode="&#xe0;" horiz-adv-x="940" d="M80 186q0 76 26.5 127t63.5 88q24 24 54.5 45.5t81 41.5t126.5 38t191 35v141q0 34 -8 63.5t-27 50.5q-20 22 -52 34q-30 11 -73 10h-8q-32 -1 -63 -11t-54 -28t-36 -42.5t-10 -54.5q1 -9 -20.5 -20.5t-51 -20.5t-58 -14t-40.5 -2l-14 39q23 50 70 96t107.5 81t128 56 t130.5 21q110 0 169.5 -57.5t59.5 -160.5v-564q0 -42 11 -60t29 -18q14 0 36 5t62 22l15 -45q-85 -59 -140.5 -85.5t-83.5 -26.5q-33 0 -55 46t-24 127q-45 -45 -90 -78t-88 -54t-81.5 -31t-70.5 -10q-36 0 -74 12t-68.5 38t-50.5 67t-20 99zM244 229q0 -40 12 -65t29 -39.5 t35.5 -19.5t31.5 -5q60 0 127.5 30.5t143.5 96.5v259q-84 -14 -138.5 -27t-89.5 -26.5t-56 -28.5t-37 -32q-26 -27 -42 -61.5t-16 -81.5zM186 1424l22 41q10 3 29 7l42 7q21 4 42 6.5t33 3.5l240 -411q-13 -12 -26 -19t-30 -12z" />
<glyph unicode="&#xe1;" horiz-adv-x="940" d="M80 186q0 76 26.5 127t63.5 88q24 24 54.5 45.5t81 41.5t126.5 38t191 35v141q0 34 -8 63.5t-27 50.5q-20 22 -52 34q-30 11 -73 10h-8q-32 -1 -63 -11t-54 -28t-36 -42.5t-10 -54.5q1 -9 -20.5 -20.5t-51 -20.5t-58 -14t-40.5 -2l-14 39q23 50 70 96t107.5 81t128 56 t130.5 21q110 0 169.5 -57.5t59.5 -160.5v-564q0 -42 11 -60t29 -18q14 0 36 5t62 22l15 -45q-85 -59 -140.5 -85.5t-83.5 -26.5q-33 0 -55 46t-24 127q-45 -45 -90 -78t-88 -54t-81.5 -31t-70.5 -10q-36 0 -74 12t-68.5 38t-50.5 67t-20 99zM244 229q0 -40 12 -65t29 -39.5 t35.5 -19.5t31.5 -5q60 0 127.5 30.5t143.5 96.5v259q-84 -14 -138.5 -27t-89.5 -26.5t-56 -28.5t-37 -32q-26 -27 -42 -61.5t-16 -81.5zM380 1075l234 414q12 -1 31 -3l42 -6q21 -3 41 -7t31 -7l23 -39l-345 -380q-18 3 -32 11t-25 17z" />
<glyph unicode="&#xe2;" horiz-adv-x="940" d="M80 186q0 76 26.5 127t63.5 88q24 24 54.5 45.5t81 41.5t126.5 38t191 35v141q0 34 -8 63.5t-27 50.5q-20 22 -52 34q-30 11 -73 10h-8q-32 -1 -63 -11t-54 -28t-36 -42.5t-10 -54.5q1 -9 -20.5 -20.5t-51 -20.5t-58 -14t-40.5 -2l-14 39q23 50 70 96t107.5 81t128 56 t130.5 21q110 0 169.5 -57.5t59.5 -160.5v-564q0 -42 11 -60t29 -18q14 0 36 5t62 22l15 -45q-85 -59 -140.5 -85.5t-83.5 -26.5q-33 0 -55 46t-24 127q-45 -45 -90 -78t-88 -54t-81.5 -31t-70.5 -10q-36 0 -74 12t-68.5 38t-50.5 67t-20 99zM244 229q0 -40 12 -65t29 -39.5 t35.5 -19.5t31.5 -5q60 0 127.5 30.5t143.5 96.5v259q-84 -14 -138.5 -27t-89.5 -26.5t-56 -28.5t-37 -32q-26 -27 -42 -61.5t-16 -81.5zM163 1092l264 379h107l262 -379q-12 -19 -19 -28t-24 -17l-274 268l-271 -268q-8 4 -13.5 8t-10 9t-9.5 12z" />
<glyph unicode="&#xe3;" horiz-adv-x="940" d="M80 186q0 76 26.5 127t63.5 88q24 24 54.5 45.5t81 41.5t126.5 38t191 35v141q0 34 -8 63.5t-27 50.5q-20 22 -52 34q-30 11 -73 10h-8q-32 -1 -63 -11t-54 -28t-36 -42.5t-10 -54.5q1 -9 -20.5 -20.5t-51 -20.5t-58 -14t-40.5 -2l-14 39q23 50 70 96t107.5 81t128 56 t130.5 21q110 0 169.5 -57.5t59.5 -160.5v-564q0 -42 11 -60t29 -18q14 0 36 5t62 22l15 -45q-85 -59 -140.5 -85.5t-83.5 -26.5q-33 0 -55 46t-24 127q-45 -45 -90 -78t-88 -54t-81.5 -31t-70.5 -10q-36 0 -74 12t-68.5 38t-50.5 67t-20 99zM244 229q0 -40 12 -65t29 -39.5 t35.5 -19.5t31.5 -5q60 0 127.5 30.5t143.5 96.5v259q-84 -14 -138.5 -27t-89.5 -26.5t-56 -28.5t-37 -32q-26 -27 -42 -61.5t-16 -81.5zM139 1133q18 41 42.5 81.5t55.5 72.5t66.5 52t74.5 20q38 0 72 -17.5t64 -39t57 -39t51 -17.5q38 0 74.5 32t70.5 91l54 -23 q-18 -41 -43 -81t-55.5 -72t-66.5 -52t-75 -20q-35 0 -66.5 17.5t-61.5 39t-59.5 39t-58.5 17.5q-40 0 -73 -32.5t-70 -88.5z" />
<glyph unicode="&#xe4;" horiz-adv-x="940" d="M80 186q0 76 26.5 127t63.5 88q24 24 54.5 45.5t81 41.5t126.5 38t191 35v141q0 34 -8 63.5t-27 50.5q-20 22 -52 34q-30 11 -73 10h-8q-32 -1 -63 -11t-54 -28t-36 -42.5t-10 -54.5q1 -9 -20.5 -20.5t-51 -20.5t-58 -14t-40.5 -2l-14 39q23 50 70 96t107.5 81t128 56 t130.5 21q110 0 169.5 -57.5t59.5 -160.5v-564q0 -42 11 -60t29 -18q14 0 36 5t62 22l15 -45q-85 -59 -140.5 -85.5t-83.5 -26.5q-33 0 -55 46t-24 127q-45 -45 -90 -78t-88 -54t-81.5 -31t-70.5 -10q-36 0 -74 12t-68.5 38t-50.5 67t-20 99zM244 229q0 -40 12 -65t29 -39.5 t35.5 -19.5t31.5 -5q60 0 127.5 30.5t143.5 96.5v259q-84 -14 -138.5 -27t-89.5 -26.5t-56 -28.5t-37 -32q-26 -27 -42 -61.5t-16 -81.5zM180 1220q0 28 9 53t25 43.5t36.5 29t44.5 10.5q85 0 85 -95q0 -28 -9 -53t-24.5 -43.5t-36.5 -29.5t-46 -11q-45 0 -64.5 25t-19.5 71 zM580 1220q0 28 9 53t25 43.5t36.5 29t44.5 10.5q85 0 85 -95q0 -28 -9 -53t-24.5 -43.5t-36.5 -29.5t-46 -11q-45 0 -64.5 25t-19.5 71z" />
<glyph unicode="&#xe5;" horiz-adv-x="940" d="M80 186q0 76 26.5 127t63.5 88q24 24 54.5 45.5t81 41.5t126.5 38t191 35v141q0 34 -8 63.5t-27 50.5q-20 22 -52 34q-30 11 -73 10h-8q-32 -1 -63 -11t-54 -28t-36 -42.5t-10 -54.5q1 -9 -20.5 -20.5t-51 -20.5t-58 -14t-40.5 -2l-14 39q23 50 70 96t107.5 81t128 56 t130.5 21q110 0 169.5 -57.5t59.5 -160.5v-564q0 -42 11 -60t29 -18q14 0 36 5t62 22l15 -45q-85 -59 -140.5 -85.5t-83.5 -26.5q-33 0 -55 46t-24 127q-45 -45 -90 -78t-88 -54t-81.5 -31t-70.5 -10q-36 0 -74 12t-68.5 38t-50.5 67t-20 99zM244 229q0 -40 12 -65t29 -39.5 t35.5 -19.5t31.5 -5q60 0 127.5 30.5t143.5 96.5v259q-84 -14 -138.5 -27t-89.5 -26.5t-56 -28.5t-37 -32q-26 -27 -42 -61.5t-16 -81.5zM294 1204q0 51 19.5 94.5t50.5 75t69.5 49t77.5 17.5q32 0 60.5 -12.5t49.5 -34t33 -50t12 -59.5q0 -51 -19.5 -93.5t-51 -74t-70 -49 t-76.5 -17.5q-34 0 -62.5 12t-49 33t-32 49t-11.5 60zM384 1245q0 -23 6 -44.5t17 -38t27 -26.5t36 -10t39 7.5t34 22.5t24 36.5t9 50.5q0 24 -6 46t-17 38.5t-27 26.5t-36 10q-21 0 -40 -8.5t-33.5 -24t-23.5 -37.5t-9 -49z" />
<glyph unicode="&#xe6;" horiz-adv-x="1417" d="M80 186q0 59 23.5 113.5t70.5 101.5t119 85.5t170 66.5q33 9 74.5 14.5t85.5 8.5v86q0 39 -6 75t-23 63t-47.5 43.5t-79.5 16.5q-32 0 -68.5 -14.5t-65 -40t-42.5 -59t1 -70.5q3 -9 -18.5 -20t-51 -20t-59 -13.5t-41.5 -1.5l-14 36q5 39 29 77t60 71.5t80.5 62t90 49 t89.5 32t78 11.5q88 0 139.5 -36t74.5 -108q32 40 68 68t72.5 44.5t71 24t63.5 7.5q61 0 108 -17.5t81.5 -47t58.5 -69.5t38.5 -84.5t20.5 -92t6 -92.5q-20 -20 -50 -37.5t-62 -30.5h-449q-2 -17 -2 -35v-36q0 -58 15.5 -114.5t45.5 -101.5t73.5 -72.5t99.5 -27.5 q31 0 59.5 3.5t61 17t71.5 40.5t92 73q13 -7 22.5 -20t14.5 -21q-60 -72 -110 -116t-95.5 -68t-89 -32.5t-90.5 -8.5q-44 0 -86.5 14t-80 41t-68 65.5t-51.5 88.5q-43 -52 -93.5 -91t-100.5 -65.5t-95 -39.5t-76 -13q-36 0 -74 12t-68.5 38t-50.5 67t-20 99zM244 229 q0 -40 12 -65t29 -39.5t35.5 -19.5t31.5 -5q27 0 61 9t71.5 26.5t76.5 44.5t76 63q-7 29 -10.5 59t-3.5 63v120q-33 -2 -59 -5t-38 -7q-150 -37 -216 -99.5t-66 -144.5zM785 580h348q21 0 29.5 7.5t8.5 28.5q0 48 -10 92t-31 77.5t-54.5 54t-80.5 20.5q-23 0 -53.5 -11 t-60.5 -41.5t-56.5 -85t-39.5 -142.5z" />
<glyph unicode="&#xe7;" horiz-adv-x="895" d="M80 444q0 108 39.5 202t108 163.5t161.5 110t201 40.5q33 0 67.5 -5.5t66 -16t58 -25t43.5 -32.5q2 -12 -3 -34t-14 -46.5t-20 -47t-20 -36.5l-37 10q-8 18 -26 39t-46.5 40t-68 31.5t-90.5 12.5q-53 0 -101.5 -23.5t-86 -70.5t-60 -117t-22.5 -164q0 -85 25.5 -154.5 t68 -118.5t98 -75.5t115.5 -26.5q28 0 52 2.5t52.5 15.5t66 39t93.5 74l39 -41q-65 -77 -114.5 -120.5t-91.5 -66t-82 -27.5q-5 -1 -11 -2l-26 -78q26 -6 51.5 -15.5t45 -24.5t31.5 -36t12 -49q0 -37 -17.5 -71t-54.5 -62t-95.5 -49t-140.5 -33l-22 49q52 9 88.5 22.5 t59.5 29.5t33.5 33.5t10.5 33.5q0 34 -26 47.5t-88 19.5q2 3 10 28l21 66l28 85q-72 1 -140 32q-69 33 -123 94t-86.5 149t-32.5 199z" />
<glyph unicode="&#xe8;" horiz-adv-x="946" d="M80 434q0 67 15 132t43.5 123t69.5 107t93 85q22 15 49.5 29.5t57.5 25.5t59.5 17.5t56.5 6.5q65 0 116 -18t89 -48.5t64 -71t42.5 -85.5t23.5 -91.5t7 -88.5q-18 -20 -48 -37t-62 -30h-526q1 -78 21.5 -148.5t59 -124t93 -85.5t122.5 -32q31 0 60.5 4t63.5 18t75.5 41 t97.5 73q13 -7 22.5 -20t14.5 -21q-67 -73 -117.5 -117.5t-95 -68.5t-88 -31.5t-94.5 -7.5q-77 0 -146.5 33t-122.5 93.5t-84.5 146t-31.5 191.5zM236 580h428q23 0 30.5 7.5t7.5 28.5q0 27 -7.5 67.5t-30 79t-63 65.5t-105.5 27q-52 0 -95.5 -20t-77 -56.5t-56 -87 t-31.5 -111.5zM216 1424l22 41q10 3 29 7l42 7q21 4 42 6.5t33 3.5l240 -411q-13 -12 -26 -19t-30 -12z" />
<glyph unicode="&#xe9;" horiz-adv-x="946" d="M80 434q0 67 15 132t43.5 123t69.5 107t93 85q22 15 49.5 29.5t57.5 25.5t59.5 17.5t56.5 6.5q65 0 116 -18t89 -48.5t64 -71t42.5 -85.5t23.5 -91.5t7 -88.5q-18 -20 -48 -37t-62 -30h-526q1 -78 21.5 -148.5t59 -124t93 -85.5t122.5 -32q31 0 60.5 4t63.5 18t75.5 41 t97.5 73q13 -7 22.5 -20t14.5 -21q-67 -73 -117.5 -117.5t-95 -68.5t-88 -31.5t-94.5 -7.5q-77 0 -146.5 33t-122.5 93.5t-84.5 146t-31.5 191.5zM236 580h428q23 0 30.5 7.5t7.5 28.5q0 27 -7.5 67.5t-30 79t-63 65.5t-105.5 27q-52 0 -95.5 -20t-77 -56.5t-56 -87 t-31.5 -111.5zM410 1075l234 414q12 -1 31 -3l42 -6q21 -3 41 -7t31 -7l23 -39l-345 -380q-18 3 -32 11t-25 17z" />
<glyph unicode="&#xea;" horiz-adv-x="946" d="M80 434q0 67 15 132t43.5 123t69.5 107t93 85q22 15 49.5 29.5t57.5 25.5t59.5 17.5t56.5 6.5q65 0 116 -18t89 -48.5t64 -71t42.5 -85.5t23.5 -91.5t7 -88.5q-18 -20 -48 -37t-62 -30h-526q1 -78 21.5 -148.5t59 -124t93 -85.5t122.5 -32q31 0 60.5 4t63.5 18t75.5 41 t97.5 73q13 -7 22.5 -20t14.5 -21q-67 -73 -117.5 -117.5t-95 -68.5t-88 -31.5t-94.5 -7.5q-77 0 -146.5 33t-122.5 93.5t-84.5 146t-31.5 191.5zM236 580h428q23 0 30.5 7.5t7.5 28.5q0 27 -7.5 67.5t-30 79t-63 65.5t-105.5 27q-52 0 -95.5 -20t-77 -56.5t-56 -87 t-31.5 -111.5zM193 1092l264 379h107l262 -379q-12 -19 -19 -28t-24 -17l-274 268l-271 -268q-8 4 -13.5 8t-10 9t-9.5 12z" />
<glyph unicode="&#xeb;" horiz-adv-x="946" d="M80 434q0 67 15 132t43.5 123t69.5 107t93 85q22 15 49.5 29.5t57.5 25.5t59.5 17.5t56.5 6.5q65 0 116 -18t89 -48.5t64 -71t42.5 -85.5t23.5 -91.5t7 -88.5q-18 -20 -48 -37t-62 -30h-526q1 -78 21.5 -148.5t59 -124t93 -85.5t122.5 -32q31 0 60.5 4t63.5 18t75.5 41 t97.5 73q13 -7 22.5 -20t14.5 -21q-67 -73 -117.5 -117.5t-95 -68.5t-88 -31.5t-94.5 -7.5q-77 0 -146.5 33t-122.5 93.5t-84.5 146t-31.5 191.5zM236 580h428q23 0 30.5 7.5t7.5 28.5q0 27 -7.5 67.5t-30 79t-63 65.5t-105.5 27q-52 0 -95.5 -20t-77 -56.5t-56 -87 t-31.5 -111.5zM210 1220q0 28 9 53t25 43.5t36.5 29t44.5 10.5q85 0 85 -95q0 -28 -9 -53t-24.5 -43.5t-36.5 -29.5t-46 -11q-45 0 -64.5 25t-19.5 71zM610 1220q0 28 9 53t25 43.5t36.5 29t44.5 10.5q85 0 85 -95q0 -28 -9 -53t-24.5 -43.5t-36.5 -29.5t-46 -11 q-45 0 -64.5 25t-19.5 71z" />
<glyph unicode="&#xec;" horiz-adv-x="555" d="M70 0v43q68 14 104 30.5t36 30.5v566q0 51 -2 82.5t-15 49t-41.5 25.5t-81.5 13v40q31 6 65.5 14.5t68.5 19t65 22.5t57 24h34v-856q0 -12 33.5 -29.5t106.5 -31.5v-43h-430zM-9 1424l22 41q10 3 29 7l42 7q21 4 42 6.5t33 3.5l240 -411q-13 -12 -26 -19t-30 -12z" />
<glyph unicode="&#xed;" horiz-adv-x="555" d="M70 0v43q68 14 104 30.5t36 30.5v566q0 51 -2 82.5t-15 49t-41.5 25.5t-81.5 13v40q31 6 65.5 14.5t68.5 19t65 22.5t57 24h34v-856q0 -12 33.5 -29.5t106.5 -31.5v-43h-430zM185 1075l234 414q12 -1 31 -3l42 -6q21 -3 41 -7t31 -7l23 -39l-345 -380q-18 3 -32 11 t-25 17z" />
<glyph unicode="&#xee;" horiz-adv-x="555" d="M70 0v43q68 14 104 30.5t36 30.5v566q0 51 -2 82.5t-15 49t-41.5 25.5t-81.5 13v40q31 6 65.5 14.5t68.5 19t65 22.5t57 24h34v-856q0 -12 33.5 -29.5t106.5 -31.5v-43h-430zM-32 1092l264 379h107l262 -379q-12 -19 -19 -28t-24 -17l-274 268l-271 -268q-8 4 -13.5 8 t-10 9t-9.5 12z" />
<glyph unicode="&#xef;" horiz-adv-x="555" d="M70 0v43q68 14 104 30.5t36 30.5v566q0 51 -2 82.5t-15 49t-41.5 25.5t-81.5 13v40q31 6 65.5 14.5t68.5 19t65 22.5t57 24h34v-856q0 -12 33.5 -29.5t106.5 -31.5v-43h-430zM-15 1220q0 28 9 53t25 43.5t36.5 29t44.5 10.5q85 0 85 -95q0 -28 -9 -53t-24.5 -43.5 t-36.5 -29.5t-46 -11q-45 0 -64.5 25t-19.5 71zM385 1220q0 28 9 53t25 43.5t36.5 29t44.5 10.5q85 0 85 -95q0 -28 -9 -53t-24.5 -43.5t-36.5 -29.5t-46 -11q-45 0 -64.5 25t-19.5 71z" />
<glyph unicode="&#xf0;" horiz-adv-x="1020" d="M80 444q0 66 16.5 130t45.5 121.5t69.5 106t87.5 83.5t100 55t107 20q30 0 62 -10t64 -28t62 -42t56 -51q-29 101 -79 182.5t-121 153.5l-226 -98l-29 3q-10 1 -18 2.5t-17 4.5l-27 8l-10 37l255 111q-27 24 -56.5 43.5t-62.5 33t-69.5 18.5t-78.5 -1l-6 41l201 72 q113 -75 197 -153l208 91l37 -6q12 -2 20.5 -4t16 -5t20.5 -7l6 -35l-238 -103q69 -75 119 -152.5t81.5 -156.5t46.5 -159t15 -158q0 -116 -22 -207t-58 -160t-82.5 -117.5t-95.5 -79t-96 -44.5t-85 -14q-98 0 -175 36t-130.5 99t-82 150t-28.5 189zM235 473 q0 -79 26 -150.5t66 -125.5t88 -85.5t91 -31.5q55 0 105.5 27.5t89 85t61.5 146.5t23 212q0 9 0.5 18t-0.5 17q-19 57 -53.5 105.5t-77 84t-89.5 55t-90 19.5q-59 0 -104 -29t-75 -79.5t-45.5 -119.5t-15.5 -149z" />
<glyph unicode="&#xf1;" horiz-adv-x="1130" d="M55 0v43q66 17 103 30.5t37 30.5v607q0 39 -3 62t-16.5 36t-41.5 19t-79 12v40q68 11 126 31.5t114 48.5l35 -35l11 -249q44 67 97 119.5t107 89t104.5 56t89.5 19.5q43 0 83 -13t70.5 -40t49 -68.5t18.5 -97.5v-637q0 -14 30.5 -27.5t109.5 -33.5v-43h-430v43 q72 19 106 33t34 28v529q0 61 -7 99t-22 60t-39.5 30t-59.5 8q-31 0 -69 -15t-81.5 -48t-91 -86.5t-95.5 -131.5v-445q0 -15 37.5 -31t102.5 -30v-43h-430zM236 1133q18 41 42.5 81.5t55.5 72.5t66.5 52t74.5 20q38 0 72 -17.5t64 -39t57 -39t51 -17.5q38 0 74.5 32t70.5 91 l54 -23q-18 -41 -43 -81t-55.5 -72t-66.5 -52t-75 -20q-35 0 -66.5 17.5t-61.5 39t-59.5 39t-58.5 17.5q-40 0 -73 -32.5t-70 -88.5z" />
<glyph unicode="&#xf2;" horiz-adv-x="1030" d="M80 444q0 66 16.5 130t46 121.5t71 106t92 83.5t109 55t120.5 20q94 0 170.5 -36t131 -99.5t84 -150.5t29.5 -189q0 -67 -17 -131t-47 -121t-72 -105.5t-92.5 -83.5t-107.5 -54.5t-118 -19.5q-95 0 -171.5 36t-131 99t-84 150t-29.5 189zM235 473q0 -79 28 -150.5 t70.5 -125.5t93.5 -85.5t97 -31.5q71 0 122 26.5t84 75.5t49 118t16 155q0 79 -26 150.5t-67 126t-93 86.5t-103 32q-76 0 -128 -29t-83.5 -79.5t-45.5 -119.5t-14 -149zM241 1424l22 41q10 3 29 7l42 7q21 4 42 6.5t33 3.5l240 -411q-13 -12 -26 -19t-30 -12z" />
<glyph unicode="&#xf3;" horiz-adv-x="1030" d="M80 444q0 66 16.5 130t46 121.5t71 106t92 83.5t109 55t120.5 20q94 0 170.5 -36t131 -99.5t84 -150.5t29.5 -189q0 -67 -17 -131t-47 -121t-72 -105.5t-92.5 -83.5t-107.5 -54.5t-118 -19.5q-95 0 -171.5 36t-131 99t-84 150t-29.5 189zM235 473q0 -79 28 -150.5 t70.5 -125.5t93.5 -85.5t97 -31.5q71 0 122 26.5t84 75.5t49 118t16 155q0 79 -26 150.5t-67 126t-93 86.5t-103 32q-76 0 -128 -29t-83.5 -79.5t-45.5 -119.5t-14 -149zM435 1075l234 414q12 -1 31 -3l42 -6q21 -3 41 -7t31 -7l23 -39l-345 -380q-18 3 -32 11t-25 17z" />
<glyph unicode="&#xf4;" horiz-adv-x="1030" d="M80 444q0 66 16.5 130t46 121.5t71 106t92 83.5t109 55t120.5 20q94 0 170.5 -36t131 -99.5t84 -150.5t29.5 -189q0 -67 -17 -131t-47 -121t-72 -105.5t-92.5 -83.5t-107.5 -54.5t-118 -19.5q-95 0 -171.5 36t-131 99t-84 150t-29.5 189zM235 473q0 -79 28 -150.5 t70.5 -125.5t93.5 -85.5t97 -31.5q71 0 122 26.5t84 75.5t49 118t16 155q0 79 -26 150.5t-67 126t-93 86.5t-103 32q-76 0 -128 -29t-83.5 -79.5t-45.5 -119.5t-14 -149zM218 1092l264 379h107l262 -379q-12 -19 -19 -28t-24 -17l-274 268l-271 -268q-8 4 -13.5 8t-10 9 t-9.5 12z" />
<glyph unicode="&#xf5;" horiz-adv-x="1030" d="M80 444q0 66 16.5 130t46 121.5t71 106t92 83.5t109 55t120.5 20q94 0 170.5 -36t131 -99.5t84 -150.5t29.5 -189q0 -67 -17 -131t-47 -121t-72 -105.5t-92.5 -83.5t-107.5 -54.5t-118 -19.5q-95 0 -171.5 36t-131 99t-84 150t-29.5 189zM235 473q0 -79 28 -150.5 t70.5 -125.5t93.5 -85.5t97 -31.5q71 0 122 26.5t84 75.5t49 118t16 155q0 79 -26 150.5t-67 126t-93 86.5t-103 32q-76 0 -128 -29t-83.5 -79.5t-45.5 -119.5t-14 -149zM194 1133q18 41 42.5 81.5t55.5 72.5t66.5 52t74.5 20q38 0 72 -17.5t64 -39t57 -39t51 -17.5 q38 0 74.5 32t70.5 91l54 -23q-18 -41 -43 -81t-55.5 -72t-66.5 -52t-75 -20q-35 0 -66.5 17.5t-61.5 39t-59.5 39t-58.5 17.5q-40 0 -73 -32.5t-70 -88.5z" />
<glyph unicode="&#xf6;" horiz-adv-x="1030" d="M80 444q0 66 16.5 130t46 121.5t71 106t92 83.5t109 55t120.5 20q94 0 170.5 -36t131 -99.5t84 -150.5t29.5 -189q0 -67 -17 -131t-47 -121t-72 -105.5t-92.5 -83.5t-107.5 -54.5t-118 -19.5q-95 0 -171.5 36t-131 99t-84 150t-29.5 189zM235 473q0 -79 28 -150.5 t70.5 -125.5t93.5 -85.5t97 -31.5q71 0 122 26.5t84 75.5t49 118t16 155q0 79 -26 150.5t-67 126t-93 86.5t-103 32q-76 0 -128 -29t-83.5 -79.5t-45.5 -119.5t-14 -149zM235 1220q0 28 9 53t25 43.5t36.5 29t44.5 10.5q85 0 85 -95q0 -28 -9 -53t-24.5 -43.5t-36.5 -29.5 t-46 -11q-45 0 -64.5 25t-19.5 71zM635 1220q0 28 9 53t25 43.5t36.5 29t44.5 10.5q85 0 85 -95q0 -28 -9 -53t-24.5 -43.5t-36.5 -29.5t-46 -11q-45 0 -64.5 25t-19.5 71z" />
<glyph unicode="&#xf7;" horiz-adv-x="840" d="M61 531q5 20 13.5 43t17.5 43h662l24 -24q-5 -20 -13.5 -44.5t-16.5 -41.5h-662zM340 308q0 22 7 42t19.5 34.5t29.5 23t36 8.5q67 0 67 -76q0 -22 -7 -42t-19.5 -35t-29.5 -23.5t-36 -8.5q-35 0 -51 20t-16 57zM340 788q0 22 7 42t19.5 34.5t29.5 23t36 8.5q67 0 67 -76 q0 -22 -7 -42t-19.5 -35t-29.5 -23.5t-36 -8.5q-35 0 -51 20t-16 57z" />
<glyph unicode="&#xf8;" horiz-adv-x="1030" d="M80 444q0 66 16.5 130t46 121.5t71 106t92 83.5t109 55t120.5 20q69 0 128.5 -19.5t108.5 -55.5l21 28l29 19l31 21q16 10 32 18t30 12l31 -33l-102 -135q51 -63 78.5 -147t27.5 -183q0 -67 -17 -131t-47 -121t-72 -105.5t-92.5 -83.5t-107.5 -54.5t-118 -19.5 q-69 0 -128 19t-107 54l-19 -25q-9 -8 -26 -18l-34 -22q-18 -10 -35.5 -18.5t-29.5 -12.5l-29 33l100 132q-52 63 -80 147.5t-28 184.5zM233 473q0 -61 16.5 -116.5t44.5 -103.5l384 508q-39 42 -83.5 65.5t-88.5 23.5q-76 0 -128 -29t-84.5 -79.5t-46.5 -119.5t-14 -149z M356 169q40 -42 84 -65.5t84 -23.5q71 0 122.5 26.5t85 75.5t49.5 118t16 155q0 60 -16 116.5t-42 104.5z" />
<glyph unicode="&#xf9;" horiz-adv-x="1085" d="M41 854v40q36 4 67.5 10t61 14t59.5 18.5t63 23.5l28 -39v-587q0 -70 10.5 -117t30 -75t48 -40t64.5 -12q32 0 65.5 9.5t69 30t74.5 53t83 79.5v449q0 45 -4.5 72t-19.5 42t-42.5 21t-73.5 8v40q72 9 138 28t122 38l30 -39v-667q0 -62 4.5 -101t18.5 -49q12 -8 41 -3.5 t80 26.5l10 -45l-71 -44q-34 -20 -63 -35.5t-51 -24t-34 -8.5q-35 0 -57 46.5t-28 149.5q-62 -62 -113.5 -100.5t-95 -59.5t-80 -28.5t-68.5 -7.5q-47 0 -90 13t-76 47.5t-52.5 94.5t-19.5 154v432q0 48 -3 74.5t-15.5 40t-38.5 18.5t-72 10zM251 1424l22 41q10 3 29 7l42 7 q21 4 42 6.5t33 3.5l240 -411q-13 -12 -26 -19t-30 -12z" />
<glyph unicode="&#xfa;" horiz-adv-x="1085" d="M41 854v40q36 4 67.5 10t61 14t59.5 18.5t63 23.5l28 -39v-587q0 -70 10.5 -117t30 -75t48 -40t64.5 -12q32 0 65.5 9.5t69 30t74.5 53t83 79.5v449q0 45 -4.5 72t-19.5 42t-42.5 21t-73.5 8v40q72 9 138 28t122 38l30 -39v-667q0 -62 4.5 -101t18.5 -49q12 -8 41 -3.5 t80 26.5l10 -45l-71 -44q-34 -20 -63 -35.5t-51 -24t-34 -8.5q-35 0 -57 46.5t-28 149.5q-62 -62 -113.5 -100.5t-95 -59.5t-80 -28.5t-68.5 -7.5q-47 0 -90 13t-76 47.5t-52.5 94.5t-19.5 154v432q0 48 -3 74.5t-15.5 40t-38.5 18.5t-72 10zM445 1075l234 414q12 -1 31 -3 l42 -6q21 -3 41 -7t31 -7l23 -39l-345 -380q-18 3 -32 11t-25 17z" />
<glyph unicode="&#xfb;" horiz-adv-x="1085" d="M41 854v40q36 4 67.5 10t61 14t59.5 18.5t63 23.5l28 -39v-587q0 -70 10.5 -117t30 -75t48 -40t64.5 -12q32 0 65.5 9.5t69 30t74.5 53t83 79.5v449q0 45 -4.5 72t-19.5 42t-42.5 21t-73.5 8v40q72 9 138 28t122 38l30 -39v-667q0 -62 4.5 -101t18.5 -49q12 -8 41 -3.5 t80 26.5l10 -45l-71 -44q-34 -20 -63 -35.5t-51 -24t-34 -8.5q-35 0 -57 46.5t-28 149.5q-62 -62 -113.5 -100.5t-95 -59.5t-80 -28.5t-68.5 -7.5q-47 0 -90 13t-76 47.5t-52.5 94.5t-19.5 154v432q0 48 -3 74.5t-15.5 40t-38.5 18.5t-72 10zM228 1092l264 379h107l262 -379 q-12 -19 -19 -28t-24 -17l-274 268l-271 -268q-8 4 -13.5 8t-10 9t-9.5 12z" />
<glyph unicode="&#xfc;" horiz-adv-x="1085" d="M41 854v40q36 4 67.5 10t61 14t59.5 18.5t63 23.5l28 -39v-587q0 -70 10.5 -117t30 -75t48 -40t64.5 -12q32 0 65.5 9.5t69 30t74.5 53t83 79.5v449q0 45 -4.5 72t-19.5 42t-42.5 21t-73.5 8v40q72 9 138 28t122 38l30 -39v-667q0 -62 4.5 -101t18.5 -49q12 -8 41 -3.5 t80 26.5l10 -45l-71 -44q-34 -20 -63 -35.5t-51 -24t-34 -8.5q-35 0 -57 46.5t-28 149.5q-62 -62 -113.5 -100.5t-95 -59.5t-80 -28.5t-68.5 -7.5q-47 0 -90 13t-76 47.5t-52.5 94.5t-19.5 154v432q0 48 -3 74.5t-15.5 40t-38.5 18.5t-72 10zM245 1220q0 28 9 53t25 43.5 t36.5 29t44.5 10.5q85 0 85 -95q0 -28 -9 -53t-24.5 -43.5t-36.5 -29.5t-46 -11q-45 0 -64.5 25t-19.5 71zM645 1220q0 28 9 53t25 43.5t36.5 29t44.5 10.5q85 0 85 -95q0 -28 -9 -53t-24.5 -43.5t-36.5 -29.5t-46 -11q-45 0 -64.5 25t-19.5 71z" />
<glyph unicode="&#xfd;" horiz-adv-x="1010" d="M-47 -447q0 6 12 24t30 39.5t38.5 41.5t36.5 30q48 -28 96 -30h11q41 0 73 12q18 6 42 28t48.5 54t48 72.5t41.5 83.5l29 69l-328 842q-9 28 -35 42.5t-76 25.5v43h386v-43q-39 -5 -63.5 -10t-38 -12.5t-15.5 -18.5t4 -27l246 -637l231 637q5 15 1.5 25.5t-17 18t-38 13 t-61.5 11.5v43h334v-43q-30 -7 -49 -13t-31 -13.5t-18.5 -17t-11.5 -24.5l-334 -901q-42 -111 -93.5 -190t-107 -129.5t-111.5 -74.5t-106 -24q-38 0 -70 5t-55 12.5t-36 17t-13 18.5zM430 1075l234 414q12 -1 31 -3l42 -6q21 -3 41 -7t31 -7l23 -39l-345 -380q-18 3 -32 11 t-25 17z" />
<glyph unicode="&#xfe;" horiz-adv-x="1085" d="M55 -437q66 16 103 30.5t37 31.5v1671q0 45 -6 70t-21.5 37.5t-43 17t-69.5 9.5v40q72 14 132.5 31t120.5 49l37 -34v-783q51 61 101 104t94.5 70.5t82.5 40t67 12.5q68 0 126 -32t100 -92.5t65.5 -147.5t23.5 -196q0 -58 -15.5 -119t-43.5 -119t-67 -110t-87 -90.5 t-103.5 -61t-115.5 -22.5q-16 0 -40.5 5.5t-54.5 18t-64 32t-69 48.5v-449q0 -16 38 -32t132 -30v-43h-460v43zM345 213q77 -60 147 -91.5t139 -31.5q57 0 101 27t75 72t47 102t16 117q0 99 -20.5 178t-54.5 134.5t-79 85t-93 29.5q-18 0 -47 -11t-66 -37t-79 -69.5 t-86 -107.5v-397z" />
<glyph unicode="&#xff;" horiz-adv-x="1010" d="M-47 -447q0 6 12 24t30 39.5t38.5 41.5t36.5 30q48 -28 96 -30h11q41 0 73 12q18 6 42 28t48.5 54t48 72.5t41.5 83.5l29 69l-328 842q-9 28 -35 42.5t-76 25.5v43h386v-43q-39 -5 -63.5 -10t-38 -12.5t-15.5 -18.5t4 -27l246 -637l231 637q5 15 1.5 25.5t-17 18t-38 13 t-61.5 11.5v43h334v-43q-30 -7 -49 -13t-31 -13.5t-18.5 -17t-11.5 -24.5l-334 -901q-42 -111 -93.5 -190t-107 -129.5t-111.5 -74.5t-106 -24q-38 0 -70 5t-55 12.5t-36 17t-13 18.5zM230 1220q0 28 9 53t25 43.5t36.5 29t44.5 10.5q85 0 85 -95q0 -28 -9 -53t-24.5 -43.5 t-36.5 -29.5t-46 -11q-45 0 -64.5 25t-19.5 71zM630 1220q0 28 9 53t25 43.5t36.5 29t44.5 10.5q85 0 85 -95q0 -28 -9 -53t-24.5 -43.5t-36.5 -29.5t-46 -11q-45 0 -64.5 25t-19.5 71z" />
<glyph unicode="&#x100;" horiz-adv-x="1219" d="M0 0v43q68 12 108 25t50 43l372 1126q23 25 57 45.5t60 34.5l420 -1206q5 -14 14 -25t24 -19t38 -14t55 -10v-43h-422v43q78 5 108 20t19 48l-114 334h-408l-111 -334q-10 -31 27 -45t119 -23v-43h-416zM411 535h347l-176 514zM271 1480q2 11 7 25t11 29l12 28l11 23h613 l22 -24q-2 -11 -7 -25.5t-11 -29.5l-11 -28l-10 -23h-615z" />
<glyph unicode="&#x101;" horiz-adv-x="940" d="M80 186q0 76 26.5 127t63.5 88q24 24 54.5 45.5t81 41.5t126.5 38t191 35v141q0 34 -8 63.5t-27 50.5q-20 22 -52 34q-30 11 -73 10h-8q-32 -1 -63 -11t-54 -28t-36 -42.5t-10 -54.5q1 -9 -20.5 -20.5t-51 -20.5t-58 -14t-40.5 -2l-14 39q23 50 70 96t107.5 81t128 56 t130.5 21q110 0 169.5 -57.5t59.5 -160.5v-564q0 -42 11 -60t29 -18q14 0 36 5t62 22l15 -45q-85 -59 -140.5 -85.5t-83.5 -26.5q-33 0 -55 46t-24 127q-45 -45 -90 -78t-88 -54t-81.5 -31t-70.5 -10q-36 0 -74 12t-68.5 38t-50.5 67t-20 99zM244 229q0 -40 12 -65t29 -39.5 t35.5 -19.5t31.5 -5q60 0 127.5 30.5t143.5 96.5v259q-84 -14 -138.5 -27t-89.5 -26.5t-56 -28.5t-37 -32q-26 -27 -42 -61.5t-16 -81.5zM152 1200q2 11 7 25t11 29l12 28l11 23h613l22 -24q-2 -11 -7 -25.5t-11 -29.5l-11 -28l-10 -23h-615z" />
<glyph unicode="&#x102;" horiz-adv-x="1219" d="M0 0v43q68 12 108 25t50 43l372 1126q23 25 57 45.5t60 34.5l420 -1206q5 -14 14 -25t24 -19t38 -14t55 -10v-43h-422v43q78 5 108 20t19 48l-114 334h-408l-111 -334q-10 -31 27 -45t119 -23v-43h-416zM411 535h347l-176 514zM274 1680q12 18 24 27.5t29 17.5 q25 -57 57.5 -96t68.5 -62.5t73.5 -34t70.5 -10.5q35 0 73.5 10.5t75 34t69 62.5t56.5 96q17 -8 29 -17.5t24 -27.5q-30 -81 -67.5 -136t-79 -89.5t-86.5 -49.5t-90 -15q-49 0 -95 15t-87.5 49.5t-78 89.5t-66.5 136z" />
<glyph unicode="&#x103;" horiz-adv-x="940" d="M80 186q0 76 26.5 127t63.5 88q24 24 54.5 45.5t81 41.5t126.5 38t191 35v141q0 34 -8 63.5t-27 50.5q-20 22 -52 34q-30 11 -73 10h-8q-32 -1 -63 -11t-54 -28t-36 -42.5t-10 -54.5q1 -9 -20.5 -20.5t-51 -20.5t-58 -14t-40.5 -2l-14 39q23 50 70 96t107.5 81t128 56 t130.5 21q110 0 169.5 -57.5t59.5 -160.5v-564q0 -42 11 -60t29 -18q14 0 36 5t62 22l15 -45q-85 -59 -140.5 -85.5t-83.5 -26.5q-33 0 -55 46t-24 127q-45 -45 -90 -78t-88 -54t-81.5 -31t-70.5 -10q-36 0 -74 12t-68.5 38t-50.5 67t-20 99zM244 229q0 -40 12 -65t29 -39.5 t35.5 -19.5t31.5 -5q60 0 127.5 30.5t143.5 96.5v259q-84 -14 -138.5 -27t-89.5 -26.5t-56 -28.5t-37 -32q-26 -27 -42 -61.5t-16 -81.5zM155 1360q12 18 24 27.5t29 17.5q25 -57 57.5 -96t68.5 -62.5t73.5 -34t70.5 -10.5q35 0 73.5 10.5t75 34t69 62.5t56.5 96 q17 -8 29 -17.5t24 -27.5q-30 -81 -67.5 -136t-79 -89.5t-86.5 -49.5t-90 -15q-49 0 -95 15t-87.5 49.5t-78 89.5t-66.5 136z" />
<glyph unicode="&#x104;" horiz-adv-x="1219" d="M0 0v43q68 12 108 25t50 43l372 1126q23 25 57 45.5t60 34.5l420 -1206q5 -14 14 -25t24 -19t38 -14t55 -10v-43h-163q-46 -31 -78 -62q-44 -42 -68 -79t-32 -68t-8 -55q0 -37 24 -54.5t62 -17.5q25 0 61.5 18t78.5 56l24 -37q-21 -27 -49.5 -53t-58.5 -46.5t-60 -33 t-55 -12.5q-29 0 -57 6t-50 22t-35.5 44t-13.5 73q0 90 78 176q58 63 155 123h-177v43q78 5 108 20t19 48l-114 334h-408l-111 -334q-10 -31 27 -45t119 -23v-43h-416zM411 535h347l-176 514z" />
<glyph unicode="&#x105;" horiz-adv-x="940" d="M80 186q0 76 26.5 127t63.5 88q24 24 54.5 45.5t81 41.5t126.5 38t191 35v141q0 34 -8 63.5t-27 51t-51.5 33t-81.5 10.5q-32 -1 -63 -11t-54 -28t-36 -42.5t-10 -54.5q1 -9 -20.5 -20.5t-51 -20.5t-58 -14t-40.5 -2l-14 39q23 50 70 96t107.5 81t128 56t130.5 21 q110 0 169.5 -57.5t59.5 -160.5v-564q0 -42 11 -60t29 -18q14 0 36 5t62 22l15 -45q-85 -59 -141 -85l-2 -2q-42 -29 -71 -57q-44 -42 -68 -79t-32 -68t-8 -55q0 -37 24 -54.5t62 -17.5q25 0 61.5 18t78.5 56l24 -37q-21 -27 -49.5 -53t-58.5 -46.5t-60 -33t-55 -12.5 q-29 0 -57 6t-50 22t-35.5 44t-13.5 73q0 90 78 176q48 52 122 102q-16 11 -28 37q-22 46 -24 127q-45 -45 -90 -78t-88 -54t-81.5 -31t-70.5 -10q-36 0 -74 12t-68.5 38t-50.5 67t-20 99zM244 229q0 -40 12 -65t29 -39.5t35.5 -19.5t31.5 -5q60 0 127.5 30.5t143.5 96.5 v259q-84 -14 -138.5 -27t-89.5 -26.5t-56 -28.5t-37 -32q-26 -27 -42 -61.5t-16 -81.5z" />
<glyph unicode="&#x106;" horiz-adv-x="1098" d="M70 586q0 160 48.5 290t131.5 222t193 142t233 50q108 0 189.5 -29t133.5 -71q6 -5 -3 -20t-24.5 -34t-33.5 -38l-29 -31l-35 6q-51 47 -121 77t-161 30q-34 0 -74.5 -12.5t-81.5 -39.5t-79 -70.5t-67.5 -105.5t-47 -143.5t-17.5 -185.5q0 -133 38.5 -233t99 -166.5 t135 -100t145.5 -33.5q54 0 141 37t197 129q5 -2 10.5 -8.5t10.5 -13.5t9 -13.5t7 -9.5q-64 -68 -122.5 -114.5t-113 -74.5t-107 -40t-104.5 -12q-93 0 -182.5 42t-160.5 121t-114.5 193.5t-43.5 259.5zM437 1412l387 317l27 -15l35 -20l33 -21t23 -18l9 -45l-469 -243 q-17 7 -24.5 16.5t-20.5 28.5z" />
<glyph unicode="&#x107;" horiz-adv-x="895" d="M80 444q0 108 39.5 202t108 163.5t161.5 110t201 40.5q33 0 67.5 -5.5t66 -16t58 -25t43.5 -32.5q2 -12 -3 -34t-14 -46.5t-20 -47t-20 -36.5l-37 10q-8 18 -26 39t-46.5 40t-68 31.5t-90.5 12.5q-53 0 -101.5 -23.5t-86 -70.5t-60 -117t-22.5 -164q0 -85 25.5 -154.5 t68 -118.5t98 -75.5t115.5 -26.5q28 0 52 2.5t52.5 15.5t66 39t93.5 74l39 -41q-65 -77 -114.5 -120.5t-91.5 -66t-82 -28t-87 -5.5q-73 0 -142.5 32.5t-123.5 93.5t-86.5 149t-32.5 199zM390 1075l234 414q12 -1 31 -3l42 -6q21 -3 41 -7t31 -7l23 -39l-345 -380 q-18 3 -32 11t-25 17z" />
<glyph unicode="&#x108;" horiz-adv-x="1098" d="M70 586q0 160 48.5 290t131.5 222t193 142t233 50q108 0 189.5 -29t133.5 -71q6 -5 -3 -20t-24.5 -34t-33.5 -38l-29 -31l-35 6q-51 47 -121 77t-161 30q-34 0 -74.5 -12.5t-81.5 -39.5t-79 -70.5t-67.5 -105.5t-47 -143.5t-17.5 -185.5q0 -133 38.5 -233t99 -166.5 t135 -100t145.5 -33.5q54 0 141 37t197 129q5 -2 10.5 -8.5t10.5 -13.5t9 -13.5t7 -9.5q-64 -68 -122.5 -114.5t-113 -74.5t-107 -40t-104.5 -12q-93 0 -182.5 42t-160.5 121t-114.5 193.5t-43.5 259.5zM297 1412l264 309h107l262 -309q-12 -19 -19 -28t-24 -17l-274 208 l-271 -208q-8 4 -13.5 8t-10 9t-9.5 12z" />
<glyph unicode="&#x109;" horiz-adv-x="895" d="M80 444q0 108 39.5 202t108 163.5t161.5 110t201 40.5q33 0 67.5 -5.5t66 -16t58 -25t43.5 -32.5q2 -12 -3 -34t-14 -46.5t-20 -47t-20 -36.5l-37 10q-8 18 -26 39t-46.5 40t-68 31.5t-90.5 12.5q-53 0 -101.5 -23.5t-86 -70.5t-60 -117t-22.5 -164q0 -85 25.5 -154.5 t68 -118.5t98 -75.5t115.5 -26.5q28 0 52 2.5t52.5 15.5t66 39t93.5 74l39 -41q-65 -77 -114.5 -120.5t-91.5 -66t-82 -28t-87 -5.5q-73 0 -142.5 32.5t-123.5 93.5t-86.5 149t-32.5 199zM173 1092l264 379h107l262 -379q-12 -19 -19 -28t-24 -17l-274 268l-271 -268 q-8 4 -13.5 8t-10 9t-9.5 12z" />
<glyph unicode="&#x10a;" horiz-adv-x="1098" d="M70 586q0 160 48.5 290t131.5 222t193 142t233 50q108 0 189.5 -29t133.5 -71q6 -5 -3 -20t-24.5 -34t-33.5 -38l-29 -31l-35 6q-51 47 -121 77t-161 30q-34 0 -74.5 -12.5t-81.5 -39.5t-79 -70.5t-67.5 -105.5t-47 -143.5t-17.5 -185.5q0 -133 38.5 -233t99 -166.5 t135 -100t145.5 -33.5q54 0 141 37t197 129q5 -2 10.5 -8.5t10.5 -13.5t9 -13.5t7 -9.5q-64 -68 -122.5 -114.5t-113 -74.5t-107 -40t-104.5 -12q-93 0 -182.5 42t-160.5 121t-114.5 193.5t-43.5 259.5zM514 1500q0 28 9 53t25 43.5t36.5 29t44.5 10.5q85 0 85 -95 q0 -28 -9 -53t-24.5 -43.5t-36.5 -29.5t-46 -11q-45 0 -64.5 25t-19.5 71z" />
<glyph unicode="&#x10b;" horiz-adv-x="895" d="M80 444q0 108 39.5 202t108 163.5t161.5 110t201 40.5q33 0 67.5 -5.5t66 -16t58 -25t43.5 -32.5q2 -12 -3 -34t-14 -46.5t-20 -47t-20 -36.5l-37 10q-8 18 -26 39t-46.5 40t-68 31.5t-90.5 12.5q-53 0 -101.5 -23.5t-86 -70.5t-60 -117t-22.5 -164q0 -85 25.5 -154.5 t68 -118.5t98 -75.5t115.5 -26.5q28 0 52 2.5t52.5 15.5t66 39t93.5 74l39 -41q-65 -77 -114.5 -120.5t-91.5 -66t-82 -28t-87 -5.5q-73 0 -142.5 32.5t-123.5 93.5t-86.5 149t-32.5 199zM390 1220q0 28 9 53t25 43.5t36.5 29t44.5 10.5q85 0 85 -95q0 -28 -9 -53 t-24.5 -43.5t-36.5 -29.5t-46 -11q-45 0 -64.5 25t-19.5 71z" />
<glyph unicode="&#x10c;" horiz-adv-x="1098" d="M70 586q0 160 48.5 290t131.5 222t193 142t233 50q108 0 189.5 -29t133.5 -71q6 -5 -3 -20t-24.5 -34t-33.5 -38l-29 -31l-35 6q-51 47 -121 77t-161 30q-34 0 -74.5 -12.5t-81.5 -39.5t-79 -70.5t-67.5 -105.5t-47 -143.5t-17.5 -185.5q0 -133 38.5 -233t99 -166.5 t135 -100t145.5 -33.5q54 0 141 37t197 129q5 -2 10.5 -8.5t10.5 -13.5t9 -13.5t7 -9.5q-64 -68 -122.5 -114.5t-113 -74.5t-107 -40t-104.5 -12q-93 0 -182.5 42t-160.5 121t-114.5 193.5t-43.5 259.5zM297 1698l12 17q5 7 9.5 12t10 9t13.5 9l275 -211l270 211 q17 -9 24 -18t19 -29l-262 -307h-107z" />
<glyph unicode="&#x10d;" horiz-adv-x="895" d="M80 444q0 108 39.5 202t108 163.5t161.5 110t201 40.5q33 0 67.5 -5.5t66 -16t58 -25t43.5 -32.5q2 -12 -3 -34t-14 -46.5t-20 -47t-20 -36.5l-37 10q-8 18 -26 39t-46.5 40t-68 31.5t-90.5 12.5q-53 0 -101.5 -23.5t-86 -70.5t-60 -117t-22.5 -164q0 -85 25.5 -154.5 t68 -118.5t98 -75.5t115.5 -26.5q28 0 52 2.5t52.5 15.5t66 39t93.5 74l39 -41q-65 -77 -114.5 -120.5t-91.5 -66t-82 -28t-87 -5.5q-73 0 -142.5 32.5t-123.5 93.5t-86.5 149t-32.5 199zM173 1428l12 17q5 7 9.5 12t10 9t13.5 9l275 -251l270 251q17 -9 24 -18t19 -29 l-262 -357h-107z" />
<glyph unicode="&#x10e;" horiz-adv-x="1214" d="M41 1230q44 12 101.5 23t121.5 19.5t129.5 13t124.5 4.5q139 0 251 -41.5t190.5 -120.5t121 -193t42.5 -259q0 -125 -25.5 -223.5t-68.5 -174t-99.5 -128t-119.5 -86t-127.5 -49t-123.5 -15.5h-509v43q68 14 106.5 30.5t38.5 30.5v1084q-40 -5 -76 -10l-69 -10zM355 154 q0 -22 10 -36q14 -17 54 -25.5t118 -8.5q69 0 142.5 33.5t134.5 102t100 172.5t39 245q0 133 -33 238.5t-96.5 179t-157 112.5t-213.5 39q-50 0 -98 -3v-1049zM233 1698l12 17q5 7 9.5 12t10 9t13.5 9l275 -211l270 211q17 -9 24 -18t19 -29l-262 -307h-107z" />
<glyph unicode="&#x10f;" horiz-adv-x="1282" d="M80 444q0 57 15.5 118t44.5 118t71 108t94 89.5t114 60.5t132 22q47 0 93.5 -11.5t100.5 -51.5v377q0 55 -3 87.5t-17 50t-43 24t-82 10.5v39q82 11 147 29.5t117 35.5l31 -30v-1266q0 -35 1.5 -60t4.5 -42t7 -28t10 -18q9 -11 34.5 -6.5t85.5 27.5l13 -43 q-46 -31 -81.5 -52.5t-62 -35t-45.5 -20t-33 -6.5q-33 0 -54 45t-28 154q-38 -46 -75.5 -83t-77 -62.5t-83.5 -39.5t-95 -14q-56 0 -115 32.5t-108.5 93.5t-81 149t-31.5 199zM230 475q0 -85 24.5 -154.5t62.5 -118.5t83.5 -75.5t86.5 -26.5q34 0 67 14t65 36q31 23 63 52 l63 59v469q-33 57 -93 88.5t-132 31.5q-64 0 -117 -23.5t-91.5 -70.5t-60 -117t-21.5 -164zM962 1432q8 10 34.5 22t59 22t63 16.5t46.5 4.5q27 -12 45 -30t28.5 -40.5t14 -48t1.5 -50.5q-5 -69 -49.5 -138t-141.5 -130l-39 33q42 38 64 78t25 86q2 27 -5 51t-24 42 t-44.5 29t-66.5 11z" />
<glyph unicode="&#x110;" horiz-adv-x="1214" d="M27 640l11 32q5 17 11 33h146v483q-40 -5 -76 -10l-69 -10l-9 62q44 12 101.5 23t121.5 19.5t129.5 13t124.5 4.5q139 0 251 -41.5t190.5 -120.5t121 -193t42.5 -259q0 -125 -25.5 -223.5t-68.5 -174t-99.5 -128t-119.5 -86t-127.5 -49t-123.5 -15.5h-509v43 q68 14 106.5 30.5t38.5 30.5v511h-146zM355 154q0 -22 10 -36q14 -17 54 -25.5t118 -8.5q69 0 142.5 33.5t134.5 102t100 172.5t39 245q0 133 -33 238.5t-96.5 179t-157 112.5t-213.5 39q-50 0 -98 -3v-498h259l25 -23l-25 -67h-259v-461z" />
<glyph unicode="&#x111;" horiz-adv-x="1065" d="M80 444q0 57 15.5 118t44.5 118t71 108t94 89.5t114 60.5t132 22q47 0 93.5 -11.5t100.5 -51.5v243h-280l-23 22q5 16 10 34t13 34h280v44q0 55 -3 87.5t-17 50t-43 24t-82 10.5v39q82 11 147 29.5t117 35.5l31 -30v-290h145l23 -25l-23 -65h-145v-886q0 -35 1.5 -60 t4.5 -42t7 -28t10 -18q9 -11 34.5 -6.5t85.5 27.5l13 -43q-46 -31 -81.5 -52.5t-62 -35.5t-45.5 -20.5t-33 -6.5q-33 0 -54 45.5t-28 154.5q-38 -46 -75.5 -83t-77 -62.5t-83.5 -39.5t-95 -14q-56 0 -115 32.5t-108.5 93.5t-81 149t-31.5 199zM230 475q0 -85 24.5 -154.5 t62.5 -118.5t83.5 -75.5t86.5 -26.5q34 0 67 14t65 36.5t63 51.5l63 59v469q-33 57 -93 88.5t-132 31.5q-64 0 -117 -23.5t-91.5 -70.5t-60 -117t-21.5 -164z" />
<glyph unicode="&#x112;" horiz-adv-x="1016" d="M50 0v43q68 14 106.5 30.5t38.5 30.5v1051q0 12 -36.5 30t-108.5 32v43h806l33 -25q-2 -26 -6 -57t-10 -62t-12.5 -59t-12.5 -47h-45q-2 46 -8.5 77t-16.5 49.5t-24.5 26t-32.5 7.5h-366v-435h405l26 -28q-8 -14 -19.5 -30t-24 -31.5t-25 -28.5t-23.5 -21 q-15 15 -32.5 25t-40 17t-53 10t-72.5 3h-141v-497q0 -15 7 -26.5t29 -20t62 -13t106 -4.5h129q46 0 78.5 5t57.5 22.5t45.5 51.5t41.5 93l43 -18q-8 -86 -20.5 -150.5t-20.5 -93.5h-863zM174 1480q2 11 7 25t11 29l12 28l11 23h613l22 -24q-2 -11 -7 -25.5t-11 -29.5 l-11 -28l-10 -23h-615z" />
<glyph unicode="&#x113;" horiz-adv-x="946" d="M80 434q0 67 15 132t43.5 123t69.5 107t93 85q22 15 49.5 29.5t57.5 25.5t59.5 17.5t56.5 6.5q65 0 116 -18t89 -48.5t64 -71t42.5 -85.5t23.5 -91.5t7 -88.5q-18 -20 -48 -37t-62 -30h-526q1 -78 21.5 -148.5t59 -124t93 -85.5t122.5 -32q31 0 60.5 4t63.5 18t75.5 41 t97.5 73q13 -7 22.5 -20t14.5 -21q-67 -73 -117.5 -117.5t-95 -68.5t-88 -31.5t-94.5 -7.5q-77 0 -146.5 33t-122.5 93.5t-84.5 146t-31.5 191.5zM236 580h428q23 0 30.5 7.5t7.5 28.5q0 27 -7.5 67.5t-30 79t-63 65.5t-105.5 27q-52 0 -95.5 -20t-77 -56.5t-56 -87 t-31.5 -111.5zM182 1200q2 11 7 25t11 29l12 28l11 23h613l22 -24q-2 -11 -7 -25.5t-11 -29.5l-11 -28l-10 -23h-615z" />
<glyph unicode="&#x114;" horiz-adv-x="1016" d="M50 0v43q68 14 106.5 30.5t38.5 30.5v1051q0 12 -36.5 30t-108.5 32v43h806l33 -25q-2 -26 -6 -57t-10 -62t-12.5 -59t-12.5 -47h-45q-2 46 -8.5 77t-16.5 49.5t-24.5 26t-32.5 7.5h-366v-435h405l26 -28q-8 -14 -19.5 -30t-24 -31.5t-25 -28.5t-23.5 -21 q-15 15 -32.5 25t-40 17t-53 10t-72.5 3h-141v-497q0 -15 7 -26.5t29 -20t62 -13t106 -4.5h129q46 0 78.5 5t57.5 22.5t45.5 51.5t41.5 93l43 -18q-8 -86 -20.5 -150.5t-20.5 -93.5h-863zM177 1680q12 18 24 27.5t29 17.5q25 -57 57.5 -96t68.5 -62.5t73.5 -34t70.5 -10.5 q35 0 73.5 10.5t75 34t69 62.5t56.5 96q17 -8 29 -17.5t24 -27.5q-30 -81 -67.5 -136t-79 -89.5t-86.5 -49.5t-90 -15q-49 0 -95 15t-87.5 49.5t-78 89.5t-66.5 136z" />
<glyph unicode="&#x115;" horiz-adv-x="946" d="M80 434q0 67 15 132t43.5 123t69.5 107t93 85q22 15 49.5 29.5t57.5 25.5t59.5 17.5t56.5 6.5q65 0 116 -18t89 -48.5t64 -71t42.5 -85.5t23.5 -91.5t7 -88.5q-18 -20 -48 -37t-62 -30h-526q1 -78 21.5 -148.5t59 -124t93 -85.5t122.5 -32q31 0 60.5 4t63.5 18t75.5 41 t97.5 73q13 -7 22.5 -20t14.5 -21q-67 -73 -117.5 -117.5t-95 -68.5t-88 -31.5t-94.5 -7.5q-77 0 -146.5 33t-122.5 93.5t-84.5 146t-31.5 191.5zM236 580h428q23 0 30.5 7.5t7.5 28.5q0 27 -7.5 67.5t-30 79t-63 65.5t-105.5 27q-52 0 -95.5 -20t-77 -56.5t-56 -87 t-31.5 -111.5zM185 1360q12 18 24 27.5t29 17.5q25 -57 57.5 -96t68.5 -62.5t73.5 -34t70.5 -10.5q35 0 73.5 10.5t75 34t69 62.5t56.5 96q17 -8 29 -17.5t24 -27.5q-30 -81 -67.5 -136t-79 -89.5t-86.5 -49.5t-90 -15q-49 0 -95 15t-87.5 49.5t-78 89.5t-66.5 136z" />
<glyph unicode="&#x116;" horiz-adv-x="1016" d="M50 0v43q68 14 106.5 30.5t38.5 30.5v1051q0 12 -36.5 30t-108.5 32v43h806l33 -25q-2 -26 -6 -57t-10 -62t-12.5 -59t-12.5 -47h-45q-2 46 -8.5 77t-16.5 49.5t-24.5 26t-32.5 7.5h-366v-435h405l26 -28q-8 -14 -19.5 -30t-24 -31.5t-25 -28.5t-23.5 -21 q-15 15 -32.5 25t-40 17t-53 10t-72.5 3h-141v-497q0 -15 7 -26.5t29 -20t62 -13t106 -4.5h129q46 0 78.5 5t57.5 22.5t45.5 51.5t41.5 93l43 -18q-8 -86 -20.5 -150.5t-20.5 -93.5h-863zM402 1500q0 28 9 53t25 43.5t36.5 29t44.5 10.5q85 0 85 -95q0 -28 -9 -53 t-24.5 -43.5t-36.5 -29.5t-46 -11q-45 0 -64.5 25t-19.5 71z" />
<glyph unicode="&#x117;" horiz-adv-x="946" d="M80 434q0 67 15 132t43.5 123t69.5 107t93 85q22 15 49.5 29.5t57.5 25.5t59.5 17.5t56.5 6.5q65 0 116 -18t89 -48.5t64 -71t42.5 -85.5t23.5 -91.5t7 -88.5q-18 -20 -48 -37t-62 -30h-526q1 -78 21.5 -148.5t59 -124t93 -85.5t122.5 -32q31 0 60.5 4t63.5 18t75.5 41 t97.5 73q13 -7 22.5 -20t14.5 -21q-67 -73 -117.5 -117.5t-95 -68.5t-88 -31.5t-94.5 -7.5q-77 0 -146.5 33t-122.5 93.5t-84.5 146t-31.5 191.5zM236 580h428q23 0 30.5 7.5t7.5 28.5q0 27 -7.5 67.5t-30 79t-63 65.5t-105.5 27q-52 0 -95.5 -20t-77 -56.5t-56 -87 t-31.5 -111.5zM410 1220q0 28 9 53t25 43.5t36.5 29t44.5 10.5q85 0 85 -95q0 -28 -9 -53t-24.5 -43.5t-36.5 -29.5t-46 -11q-45 0 -64.5 25t-19.5 71z" />
<glyph unicode="&#x118;" horiz-adv-x="1016" d="M50 0v43q68 14 106.5 30.5t38.5 30.5v1051q0 12 -36.5 30t-108.5 32v43h806l33 -25q-2 -26 -6 -57t-10 -62t-12.5 -59t-12.5 -47h-45q-2 46 -8.5 77t-16.5 49.5t-24.5 26t-32.5 7.5h-366v-435h405l26 -28q-8 -14 -19.5 -30t-24 -31.5t-25 -28.5t-23.5 -21 q-15 15 -32.5 25t-40 17t-53 10t-72.5 3h-141v-497q0 -15 7 -26.5t29 -20t62 -13t106 -4.5h129q46 0 78.5 5t57.5 22.5t45.5 51.5t41.5 93l43 -18q-8 -86 -20.5 -150.5t-20.5 -93.5h-88q-46 -31 -78 -62q-44 -42 -68 -79t-32 -68t-8 -55q0 -37 24 -54.5t62 -17.5 q25 0 61.5 18t78.5 56l24 -37q-21 -27 -49.5 -53t-58.5 -46.5t-60 -33t-55 -12.5q-29 0 -57 6t-50 22t-35.5 44t-13.5 73q0 90 78 176q58 63 155 123h-693z" />
<glyph unicode="&#x119;" horiz-adv-x="946" d="M80 434q0 67 15 132t43.5 123t69.5 107t93 85q22 15 49.5 29.5t57.5 25.5t59.5 17.5t56.5 6.5q65 0 116 -18t89 -48.5t64 -71t42.5 -85.5t23.5 -91.5t7 -88.5q-18 -20 -48 -37t-62 -30h-526v-3q0 -75 20.5 -145t58.5 -123.5t93 -86t124 -32.5q31 0 60.5 4t63.5 18 t75.5 41t97.5 73q13 -7 22.5 -20t14.5 -21q-109 -99 -176 -171.5t-103.5 -125t-49 -89t-12.5 -63.5q0 -45 20.5 -63.5t55.5 -18.5q37 0 72.5 18t77.5 56l24 -37q-21 -27 -48 -53t-57 -46.5t-62.5 -33t-65.5 -12.5q-31 0 -57.5 7.5t-46 24.5t-31 44.5t-11.5 68.5 q0 55 42.5 128t140.5 152q-22 -4 -52.5 -7.5t-55.5 -3.5q-77 0 -146.5 33t-122.5 93.5t-84.5 146t-31.5 191.5zM237 580h427q23 0 30.5 7.5t7.5 28.5q0 27 -7.5 67.5t-30 79t-63 65.5t-105.5 27q-51 0 -94 -20t-76.5 -56t-56 -86.5t-32.5 -112.5z" />
<glyph unicode="&#x11a;" horiz-adv-x="1016" d="M50 0v43q68 14 106.5 30.5t38.5 30.5v1051q0 12 -36.5 30t-108.5 32v43h806l33 -25q-2 -26 -6 -57t-10 -62t-12.5 -59t-12.5 -47h-45q-2 46 -8.5 77t-16.5 49.5t-24.5 26t-32.5 7.5h-366v-435h405l26 -28q-8 -14 -19.5 -30t-24 -31.5t-25 -28.5t-23.5 -21 q-15 15 -32.5 25t-40 17t-53 10t-72.5 3h-141v-497q0 -15 7 -26.5t29 -20t62 -13t106 -4.5h129q46 0 78.5 5t57.5 22.5t45.5 51.5t41.5 93l43 -18q-8 -86 -20.5 -150.5t-20.5 -93.5h-863zM185 1698l12 17q5 7 9.5 12t10 9t13.5 9l275 -211l270 211q17 -9 24 -18t19 -29 l-262 -307h-107z" />
<glyph unicode="&#x11b;" horiz-adv-x="946" d="M80 434q0 67 15 132t43.5 123t69.5 107t93 85q22 15 49.5 29.5t57.5 25.5t59.5 17.5t56.5 6.5q65 0 116 -18t89 -48.5t64 -71t42.5 -85.5t23.5 -91.5t7 -88.5q-18 -20 -48 -37t-62 -30h-526q1 -78 21.5 -148.5t59 -124t93 -85.5t122.5 -32q31 0 60.5 4t63.5 18t75.5 41 t97.5 73q13 -7 22.5 -20t14.5 -21q-67 -73 -117.5 -117.5t-95 -68.5t-88 -31.5t-94.5 -7.5q-77 0 -146.5 33t-122.5 93.5t-84.5 146t-31.5 191.5zM236 580h428q23 0 30.5 7.5t7.5 28.5q0 27 -7.5 67.5t-30 79t-63 65.5t-105.5 27q-52 0 -95.5 -20t-77 -56.5t-56 -87 t-31.5 -111.5zM193 1428l12 17q5 7 9.5 12t10 9t13.5 9l275 -251l270 251q17 -9 24 -18t19 -29l-262 -357h-107z" />
<glyph unicode="&#x11c;" horiz-adv-x="1194" d="M70 582q0 166 52.5 297.5t143.5 223t212.5 139.5t258.5 48q33 0 72.5 -7t80.5 -20t80.5 -32t71.5 -43q7 -5 -2 -19.5t-25.5 -32.5t-36.5 -36l-32 -29l-33 6q-33 31 -68 51.5t-73.5 31.5t-81.5 15.5t-92 4.5q-25 0 -62.5 -11.5t-79 -37t-82.5 -67t-74.5 -102t-54 -141 t-20.5 -184.5q0 -139 37 -242t97 -170.5t135 -101t151 -33.5q73 0 134.5 14.5t110.5 41.5v339q0 11 -9.5 21.5t-33 20.5t-63 20t-100.5 20v43h461v-43q-57 -14 -81 -36.5t-24 -45.5v-331q-74 -61 -132.5 -97t-107.5 -55.5t-93 -25.5t-89 -6q-101 0 -199 37.5t-175.5 114 t-125.5 191t-48 269.5zM323 1412l264 309h107l262 -309q-12 -19 -19 -28t-24 -17l-274 208l-271 -208q-8 4 -13.5 8t-10 9t-9.5 12z" />
<glyph unicode="&#x11d;" horiz-adv-x="999" d="M30 -229q0 26 9.5 54.5t38.5 61.5t81 71t138 84q-65 23 -90 52t-25 59q0 8 5 21.5t20.5 33t44 44.5t74.5 57q-51 14 -92.5 40.5t-71 64t-46 85t-16.5 103.5q0 73 33 138.5t87 114t123 77t142 28.5q60 0 112.5 -17t95.5 -48q52 5 94 13t75.5 17t59.5 18t47 17l20 -30 l-23 -52q-11 -23 -34 -48q-38 -7 -74.5 -11t-82.5 -6q26 -38 40.5 -81t14.5 -91q0 -77 -34.5 -140.5t-90.5 -109t-127 -71t-144 -25.5h-4q-48 -40 -66 -66.5t-18 -32.5q0 -12 10.5 -23.5t39 -22t78.5 -21t128 -19.5q109 -12 180 -36t113 -55.5t58.5 -67.5t16.5 -71 q0 -55 -21 -104.5t-57 -91.5t-85 -76t-105 -58t-116 -37t-119 -13q-47 0 -97 6.5t-99 20.5t-92.5 35.5t-76.5 52t-52.5 69t-19.5 87.5zM180 -190q0 -42 28 -79.5t75 -65t109 -44t130 -16.5q67 0 122 18t94 49.5t60.5 75t21.5 95.5q0 28 -13 51.5t-47 42.5t-92.5 34 t-149.5 25q-38 4 -70 9t-60 11q-72 -39 -113.5 -70t-62.5 -55.5t-26.5 -44.5t-5.5 -36zM240 659q0 -53 16.5 -100.5t50 -82.5t85 -55.5t122.5 -20.5q29 0 60.5 12.5t57 38t42 62.5t16.5 87q0 53 -17.5 100.5t-52 83t-86 56t-118.5 20.5q-25 0 -55.5 -13t-57.5 -38t-45 -63 t-18 -87zM183 1092l264 379h107l262 -379q-12 -19 -19 -28t-24 -17l-274 268l-271 -268q-8 4 -13.5 8t-10 9t-9.5 12z" />
<glyph unicode="&#x11e;" horiz-adv-x="1194" d="M70 582q0 166 52.5 297.5t143.5 223t212.5 139.5t258.5 48q33 0 72.5 -7t80.5 -20t80.5 -32t71.5 -43q7 -5 -2 -19.5t-25.5 -32.5t-36.5 -36l-32 -29l-33 6q-33 31 -68 51.5t-73.5 31.5t-81.5 15.5t-92 4.5q-25 0 -62.5 -11.5t-79 -37t-82.5 -67t-74.5 -102t-54 -141 t-20.5 -184.5q0 -139 37 -242t97 -170.5t135 -101t151 -33.5q73 0 134.5 14.5t110.5 41.5v339q0 11 -9.5 21.5t-33 20.5t-63 20t-100.5 20v43h461v-43q-57 -14 -81 -36.5t-24 -45.5v-331q-74 -61 -132.5 -97t-107.5 -55.5t-93 -25.5t-89 -6q-101 0 -199 37.5t-175.5 114 t-125.5 191t-48 269.5zM315 1680q12 18 24 27.5t29 17.5q25 -57 57.5 -96t68.5 -62.5t73.5 -34t70.5 -10.5q35 0 73.5 10.5t75 34t69 62.5t56.5 96q17 -8 29 -17.5t24 -27.5q-30 -81 -67.5 -136t-79 -89.5t-86.5 -49.5t-90 -15q-49 0 -95 15t-87.5 49.5t-78 89.5t-66.5 136z " />
<glyph unicode="&#x11f;" horiz-adv-x="999" d="M30 -229q0 26 9.5 54.5t38.5 61.5t81 71t138 84q-65 23 -90 52t-25 59q0 8 5 21.5t20.5 33t44 44.5t74.5 57q-51 14 -92.5 40.5t-71 64t-46 85t-16.5 103.5q0 73 33 138.5t87 114t123 77t142 28.5q60 0 112.5 -17t95.5 -48q52 5 94 13t75.5 17t59.5 18t47 17l20 -30 l-23 -52q-11 -23 -34 -48q-38 -7 -74.5 -11t-82.5 -6q26 -38 40.5 -81t14.5 -91q0 -77 -34.5 -140.5t-90.5 -109t-127 -71t-144 -25.5h-4q-48 -40 -66 -66.5t-18 -32.5q0 -12 10.5 -23.5t39 -22t78.5 -21t128 -19.5q109 -12 180 -36t113 -55.5t58.5 -67.5t16.5 -71 q0 -55 -21 -104.5t-57 -91.5t-85 -76t-105 -58t-116 -37t-119 -13q-47 0 -97 6.5t-99 20.5t-92.5 35.5t-76.5 52t-52.5 69t-19.5 87.5zM180 -190q0 -42 28 -79.5t75 -65t109 -44t130 -16.5q67 0 122 18t94 49.5t60.5 75t21.5 95.5q0 28 -13 51.5t-47 42.5t-92.5 34 t-149.5 25q-38 4 -70 9t-60 11q-72 -39 -113.5 -70t-62.5 -55.5t-26.5 -44.5t-5.5 -36zM240 659q0 -53 16.5 -100.5t50 -82.5t85 -55.5t122.5 -20.5q29 0 60.5 12.5t57 38t42 62.5t16.5 87q0 53 -17.5 100.5t-52 83t-86 56t-118.5 20.5q-25 0 -55.5 -13t-57.5 -38t-45 -63 t-18 -87zM175 1360q12 18 24 27.5t29 17.5q25 -57 57.5 -96t68.5 -62.5t73.5 -34t70.5 -10.5q35 0 73.5 10.5t75 34t69 62.5t56.5 96q17 -8 29 -17.5t24 -27.5q-30 -81 -67.5 -136t-79 -89.5t-86.5 -49.5t-90 -15q-49 0 -95 15t-87.5 49.5t-78 89.5t-66.5 136z" />
<glyph unicode="&#x120;" horiz-adv-x="1194" d="M70 582q0 166 52.5 297.5t143.5 223t212.5 139.5t258.5 48q33 0 72.5 -7t80.5 -20t80.5 -32t71.5 -43q7 -5 -2 -19.5t-25.5 -32.5t-36.5 -36l-32 -29l-33 6q-33 31 -68 51.5t-73.5 31.5t-81.5 15.5t-92 4.5q-25 0 -62.5 -11.5t-79 -37t-82.5 -67t-74.5 -102t-54 -141 t-20.5 -184.5q0 -139 37 -242t97 -170.5t135 -101t151 -33.5q73 0 134.5 14.5t110.5 41.5v339q0 11 -9.5 21.5t-33 20.5t-63 20t-100.5 20v43h461v-43q-57 -14 -81 -36.5t-24 -45.5v-331q-74 -61 -132.5 -97t-107.5 -55.5t-93 -25.5t-89 -6q-101 0 -199 37.5t-175.5 114 t-125.5 191t-48 269.5zM540 1500q0 28 9 53t25 43.5t36.5 29t44.5 10.5q85 0 85 -95q0 -28 -9 -53t-24.5 -43.5t-36.5 -29.5t-46 -11q-45 0 -64.5 25t-19.5 71z" />
<glyph unicode="&#x121;" horiz-adv-x="999" d="M30 -229q0 26 9.5 54.5t38.5 61.5t81 71t138 84q-65 23 -90 52t-25 59q0 8 5 21.5t20.5 33t44 44.5t74.5 57q-51 14 -92.5 40.5t-71 64t-46 85t-16.5 103.5q0 73 33 138.5t87 114t123 77t142 28.5q60 0 112.5 -17t95.5 -48q52 5 94 13t75.5 17t59.5 18t47 17l20 -30 l-23 -52q-11 -23 -34 -48q-38 -7 -74.5 -11t-82.5 -6q26 -38 40.5 -81t14.5 -91q0 -77 -34.5 -140.5t-90.5 -109t-127 -71t-144 -25.5h-4q-48 -40 -66 -66.5t-18 -32.5q0 -12 10.5 -23.5t39 -22t78.5 -21t128 -19.5q109 -12 180 -36t113 -55.5t58.5 -67.5t16.5 -71 q0 -55 -21 -104.5t-57 -91.5t-85 -76t-105 -58t-116 -37t-119 -13q-47 0 -97 6.5t-99 20.5t-92.5 35.5t-76.5 52t-52.5 69t-19.5 87.5zM180 -190q0 -42 28 -79.5t75 -65t109 -44t130 -16.5q67 0 122 18t94 49.5t60.5 75t21.5 95.5q0 28 -13 51.5t-47 42.5t-92.5 34 t-149.5 25q-38 4 -70 9t-60 11q-72 -39 -113.5 -70t-62.5 -55.5t-26.5 -44.5t-5.5 -36zM240 659q0 -53 16.5 -100.5t50 -82.5t85 -55.5t122.5 -20.5q29 0 60.5 12.5t57 38t42 62.5t16.5 87q0 53 -17.5 100.5t-52 83t-86 56t-118.5 20.5q-25 0 -55.5 -13t-57.5 -38t-45 -63 t-18 -87zM400 1220q0 28 9 53t25 43.5t36.5 29t44.5 10.5q85 0 85 -95q0 -28 -9 -53t-24.5 -43.5t-36.5 -29.5t-46 -11q-45 0 -64.5 25t-19.5 71z" />
<glyph unicode="&#x122;" horiz-adv-x="1194" d="M70 582q0 166 52.5 297.5t143.5 223t212.5 139.5t258.5 48q33 0 72.5 -7t80.5 -20t80.5 -32t71.5 -43q7 -5 -2 -19.5t-25.5 -32.5t-36.5 -36l-32 -29l-33 6q-33 31 -68 51.5t-73.5 31.5t-81.5 15.5t-92 4.5q-25 0 -62.5 -11.5t-79 -37t-82.5 -67t-74.5 -102t-54 -141 t-20.5 -184.5q0 -139 37 -242t97 -170.5t135 -101t151 -33.5q73 0 134.5 14.5t110.5 41.5v339q0 11 -9.5 21.5t-33 20.5t-63 20t-100.5 20v43h461v-43q-57 -14 -81 -36.5t-24 -45.5v-331q-74 -61 -132.5 -97t-107.5 -55.5t-93 -25.5t-89 -6q-101 0 -199 37.5t-175.5 114 t-125.5 191t-48 269.5zM475 -164q9 8 37 18.5t61 19.5t64 14t47 2q25 -12 42 -34t26 -47t11 -50.5t-2 -46.5q-5 -28 -18.5 -59t-35 -60t-52.5 -55t-71 -45l-35 37q13 8 26.5 24.5t24 36t17.5 40t8 37.5q1 22 -6 43t-24 38.5t-44.5 29t-66.5 14.5z" />
<glyph unicode="&#x123;" horiz-adv-x="999" d="M30 -229q0 26 9.5 54.5t38.5 61.5t81 71t138 84q-65 23 -90 52t-25 59q0 8 5 21.5t20.5 33t44 44.5t74.5 57q-51 14 -92.5 40.5t-71 64t-46 85t-16.5 103.5q0 73 33 138.5t87 114t123 77t142 28.5q60 0 112.5 -17t95.5 -48q52 5 94 13t75.5 17t59.5 18t47 17l20 -30 l-23 -52q-11 -23 -34 -48q-38 -7 -74.5 -11t-82.5 -6q26 -38 40.5 -81t14.5 -91q0 -77 -34.5 -140.5t-90.5 -109t-127 -71t-144 -25.5h-4q-48 -40 -66 -66.5t-18 -32.5q0 -12 10.5 -23.5t39 -22t78.5 -21t128 -19.5q109 -12 180 -36t113 -55.5t58.5 -67.5t16.5 -71 q0 -55 -21 -104.5t-57 -91.5t-85 -76t-105 -58t-116 -37t-119 -13q-47 0 -97 6.5t-99 20.5t-92.5 35.5t-76.5 52t-52.5 69t-19.5 87.5zM180 -190q0 -42 28 -79.5t75 -65t109 -44t130 -16.5q67 0 122 18t94 49.5t60.5 75t21.5 95.5q0 28 -13 51.5t-47 42.5t-92.5 34 t-149.5 25q-38 4 -70 9t-60 11q-72 -39 -113.5 -70t-62.5 -55.5t-26.5 -44.5t-5.5 -36zM240 659q0 -53 16.5 -100.5t50 -82.5t85 -55.5t122.5 -20.5q29 0 60.5 12.5t57 38t42 62.5t16.5 87q0 53 -17.5 100.5t-52 83t-86 56t-118.5 20.5q-25 0 -55.5 -13t-57.5 -38t-45 -63 t-18 -87zM354 1239q5 69 49.5 138t141.5 130l39 -33q-42 -38 -64 -78t-25 -86q-2 -27 5 -51t24 -42t44.5 -29t66.5 -11l11 -42q-8 -10 -34.5 -22t-59 -22t-63 -16.5t-46.5 -4.5q-27 12 -45 30t-28.5 40.5t-14 47.5t-1.5 51z" />
<glyph unicode="&#x124;" horiz-adv-x="1339" d="M50 0v43q68 14 106.5 30.5t38.5 30.5v1051q0 12 -36.5 30t-108.5 32v43h450v-43q-68 -14 -106.5 -31t-38.5 -31v-450h610v450q0 12 -36.5 30t-108.5 32v43h450v-43q-68 -14 -106.5 -31t-38.5 -31v-1051q0 -12 36.5 -29.5t108.5 -31.5v-43h-450v43q68 14 106.5 30.5 t38.5 30.5v511h-610v-511q0 -12 36 -29.5t109 -31.5v-43h-450zM343 1412l264 309h107l262 -309q-12 -19 -19 -28t-24 -17l-274 208l-271 -208q-8 4 -13.5 8t-10 9t-9.5 12z" />
<glyph unicode="&#x125;" horiz-adv-x="1130" d="M55 0v43q66 17 103 30.5t37 30.5v1194q0 42 -3.5 65.5t-18 36.5t-42.5 18.5t-76 11.5v40q42 8 76.5 16t64 17.5t56.5 20.5t56 26l37 -34v-832q43 64 95.5 115t105.5 87t103.5 55t89.5 19q43 0 83 -13t70.5 -40t49 -68.5t18.5 -97.5v-637q0 -14 30.5 -27.5t109.5 -33.5 v-43h-430v43q72 19 106 33t34 28v529q0 61 -7.5 99t-23.5 60t-40 30t-57 8q-35 0 -75.5 -18t-84.5 -53t-89 -87.5t-88 -122.5v-445q0 -15 37.5 -31t102.5 -30v-43h-430zM260 1662l264 309h107l262 -309q-12 -19 -19 -28t-24 -17l-274 208l-271 -208q-8 4 -13.5 8t-10 9 t-9.5 12z" />
<glyph unicode="&#x126;" horiz-adv-x="1339" d="M50 0v43q68 14 106.5 30.5t38.5 30.5v786h-123l-22 25l10 32l12 33h123v175q0 12 -36.5 30t-108.5 32v43h450v-43q-68 -14 -106.5 -31t-38.5 -31v-175h610v175q0 12 -36.5 30t-108.5 32v43h450v-43q-68 -14 -106.5 -31t-38.5 -31v-175h120l25 -23l-25 -67h-120v-786 q0 -12 36.5 -29.5t108.5 -31.5v-43h-450v43q68 14 106.5 30.5t38.5 30.5v511h-610v-511q0 -12 36 -29.5t109 -31.5v-43h-450zM355 705h610v185h-610v-185z" />
<glyph unicode="&#x127;" horiz-adv-x="1130" d="M33 1162q5 16 9.5 34t12.5 34h140v68q0 42 -3.5 65.5t-18 36.5t-42.5 18.5t-76 11.5v40q42 8 76.5 16t64 17.5t56.5 20.5t56 26l37 -34v-286h286l22 -25l-22 -65h-286v-456q43 64 95.5 115t105.5 87t103.5 55t89.5 19q43 0 83 -13t70.5 -40t49 -68.5t18.5 -97.5v-637 q0 -14 30.5 -27.5t109.5 -33.5v-43h-430v43q72 19 106 33t34 28v529q0 61 -7.5 99t-23.5 60t-40 30t-57 8q-35 0 -75.5 -18t-84.5 -53t-89 -87.5t-88 -122.5v-445q0 -15 37.5 -31t102.5 -30v-43h-430v43q66 17 103 30.5t37 30.5v1036h-140z" />
<glyph unicode="&#x128;" horiz-adv-x="610" d="M70 0v43q68 14 106.5 30.5t38.5 30.5v1051q0 12 -36.5 30t-108.5 32v43h450v-43q-68 -14 -106.5 -31t-38.5 -31v-1051q0 -12 36.5 -29.5t108.5 -31.5v-43h-450zM-46 1413q18 41 42.5 81.5t55.5 72.5t66.5 52t74.5 20q38 0 72 -17.5t64 -39t57 -39t51 -17.5q38 0 74.5 32 t70.5 91l54 -23q-18 -41 -43 -81t-55.5 -72t-66.5 -52t-75 -20q-35 0 -66.5 17.5t-61.5 39t-59.5 39t-58.5 17.5q-40 0 -73 -32.5t-70 -88.5z" />
<glyph unicode="&#x129;" horiz-adv-x="555" d="M70 0v43q68 14 104 30.5t36 30.5v566q0 51 -2 82.5t-15 49t-41.5 25.5t-81.5 13v40q31 6 65.5 14.5t68.5 19t65 22.5t57 24h34v-856q0 -12 33.5 -29.5t106.5 -31.5v-43h-430zM-56 1133q18 41 42.5 81.5t55.5 72.5t66.5 52t74.5 20q38 0 72 -17.5t64 -39t57 -39t51 -17.5 q38 0 74.5 32t70.5 91l54 -23q-18 -41 -43 -81t-55.5 -72t-66.5 -52t-75 -20q-35 0 -66.5 17.5t-61.5 39t-59.5 39t-58.5 17.5q-40 0 -73 -32.5t-70 -88.5z" />
<glyph unicode="&#x12a;" horiz-adv-x="610" d="M70 0v43q68 14 106.5 30.5t38.5 30.5v1051q0 12 -36.5 30t-108.5 32v43h450v-43q-68 -14 -106.5 -31t-38.5 -31v-1051q0 -12 36.5 -29.5t108.5 -31.5v-43h-450zM47 1480q2 11 7 25t11 29l12 28l11 23h453l22 -24q-2 -11 -7 -25.5t-11 -29.5l-11 -28l-10 -23h-455z" />
<glyph unicode="&#x12b;" horiz-adv-x="555" d="M70 0v43q68 14 104 30.5t36 30.5v566q0 51 -2 82.5t-15 49t-41.5 25.5t-81.5 13v40q31 6 65.5 14.5t68.5 19t65 22.5t57 24h34v-856q0 -12 33.5 -29.5t106.5 -31.5v-43h-430zM37 1200q2 11 7 25t11 29l12 28l11 23h453l22 -24q-2 -11 -7 -25.5t-11 -29.5l-11 -28l-10 -23 h-455z" />
<glyph unicode="&#x12c;" horiz-adv-x="610" d="M70 0v43q68 14 106.5 30.5t38.5 30.5v1051q0 12 -36.5 30t-108.5 32v43h450v-43q-68 -14 -106.5 -31t-38.5 -31v-1051q0 -12 36.5 -29.5t108.5 -31.5v-43h-450zM-30 1680q12 18 24 27.5t29 17.5q25 -57 57.5 -96t68.5 -62.5t73.5 -34t70.5 -10.5q35 0 73.5 10.5t75 34 t69 62.5t56.5 96q17 -8 29 -17.5t24 -27.5q-30 -81 -67.5 -136t-79 -89.5t-86.5 -49.5t-90 -15q-49 0 -95 15t-87.5 49.5t-78 89.5t-66.5 136z" />
<glyph unicode="&#x12d;" horiz-adv-x="555" d="M70 0v43q68 14 104 30.5t36 30.5v566q0 51 -2 82.5t-15 49t-41.5 25.5t-81.5 13v40q31 6 65.5 14.5t68.5 19t65 22.5t57 24h34v-856q0 -12 33.5 -29.5t106.5 -31.5v-43h-430zM-40 1360q12 18 24 27.5t29 17.5q25 -57 57.5 -96t68.5 -62.5t73.5 -34t70.5 -10.5 q35 0 73.5 10.5t75 34t69 62.5t56.5 96q17 -8 29 -17.5t24 -27.5q-30 -81 -67.5 -136t-79 -89.5t-86.5 -49.5t-90 -15q-49 0 -95 15t-87.5 49.5t-78 89.5t-66.5 136z" />
<glyph unicode="&#x12e;" horiz-adv-x="610" d="M70 0v43q68 14 106.5 30.5t38.5 30.5v1051q0 12 -36.5 30t-108.5 32v43h450v-43q-68 -14 -106.5 -31t-38.5 -31v-1051q0 -12 36.5 -29.5t108.5 -31.5v-43h-100q-46 -31 -78 -62q-44 -42 -68 -79t-32 -68t-8 -55q0 -37 24 -54.5t62 -17.5q25 0 61.5 18t78.5 56l24 -37 q-21 -27 -49.5 -53t-58.5 -46.5t-60 -33t-55 -12.5q-29 0 -57 6t-50 22t-35.5 44t-13.5 73q0 90 78 176q58 63 155 123h-268z" />
<glyph unicode="&#x12f;" horiz-adv-x="555" d="M70 0v43q68 14 104 30.5t36 30.5v566q0 51 -2 82.5t-15 49t-41.5 25.5t-81.5 13v40q31 6 65.5 14.5t68.5 19t65 22.5t57 24h34v-856q0 -12 33.5 -29.5t106.5 -31.5v-43h-90q-46 -31 -78 -62q-44 -42 -68 -79t-32 -68t-8 -55q0 -37 24 -54.5t62 -17.5q25 0 61.5 18 t78.5 56l24 -37q-21 -27 -49.5 -53t-58.5 -46.5t-60 -33t-55 -12.5q-29 0 -57 6t-50 22t-35.5 44t-13.5 73q0 90 78 176q58 63 155 123h-258zM190 1220q0 28 9 53t25 43.5t36.5 29t44.5 10.5q85 0 85 -95q0 -28 -9 -53t-24.5 -43.5t-36.5 -29.5t-46 -11q-45 0 -64.5 25 t-19.5 71z" />
<glyph unicode="&#x130;" horiz-adv-x="610" d="M70 0v43q68 14 106.5 30.5t38.5 30.5v1051q0 12 -36.5 30t-108.5 32v43h450v-43q-68 -14 -106.5 -31t-38.5 -31v-1051q0 -12 36.5 -29.5t108.5 -31.5v-43h-450zM195 1500q0 28 9 53t25 43.5t36.5 29t44.5 10.5q85 0 85 -95q0 -28 -9 -53t-24.5 -43.5t-36.5 -29.5t-46 -11 q-45 0 -64.5 25t-19.5 71z" />
<glyph unicode="&#x131;" horiz-adv-x="555" d="M70 0v43q68 14 104 30.5t36 30.5v566q0 51 -2 82.5t-15 49t-41.5 25.5t-81.5 13v40q31 6 65.5 14.5t68.5 19t65 22.5t57 24h34v-856q0 -12 33.5 -29.5t106.5 -31.5v-43h-430z" />
<glyph unicode="&#x132;" horiz-adv-x="1235" d="M70 0v43q68 14 106.5 30.5t38.5 30.5v1051q0 12 -36.5 30t-108.5 32v43h450v-43q-68 -14 -106.5 -31t-38.5 -31v-1051q0 -12 36.5 -29.5t108.5 -31.5v-43h-450zM420 -300q0 8 13 23t31 30t38 28.5t34 18.5q28 -18 49 -29.5t39 -17.5t34.5 -8t35.5 -2q26 0 55.5 17 t54 60.5t40.5 119.5t16 193v1022q0 6 -8 13t-29.5 15t-59.5 16.5t-98 17.5v43h500v-43q-68 -14 -106.5 -31t-38.5 -31v-950q0 -119 -16.5 -198.5t-44 -134.5t-63.5 -91.5t-75 -68.5q-27 -22 -59.5 -39t-65.5 -29t-62.5 -18t-48.5 -6q-30 0 -60 9.5t-53 22t-37.5 26 t-14.5 22.5z" />
<glyph unicode="&#x133;" horiz-adv-x="1085" d="M70 0v43q68 14 104 30.5t36 30.5v566q0 51 -2 82.5t-15 49t-41.5 25.5t-81.5 13v40q31 6 65.5 14.5t68.5 19t65 22.5t57 24h34v-856q0 -12 33.5 -29.5t106.5 -31.5v-43h-430zM190 1220q0 28 9 53t25 43.5t36.5 29t44.5 10.5q85 0 85 -95q0 -28 -9 -53t-24.5 -43.5 t-36.5 -29.5t-46 -11q-45 0 -64.5 25t-19.5 71zM335 -431q0 9 14.5 24.5t34.5 32.5t41.5 32t36.5 22q32 -28 66 -36.5t72 -8.5q29 0 57.5 18.5t51.5 64.5t37 125t14 200v627q0 51 -2.5 82t-15.5 48.5t-41.5 25.5t-80.5 14v40q42 7 74.5 16t62 18.5t56.5 21.5l60 24h37v-861 q0 -115 -14.5 -195.5t-40 -137t-60.5 -95.5t-75 -71q-27 -21 -57 -39.5t-60 -32t-56.5 -21t-45.5 -7.5q-31 0 -60.5 7.5t-53 18.5t-38 23t-14.5 20zM740 1220q0 28 9 53t24.5 43.5t36.5 29t45 10.5q85 0 85 -95q0 -28 -9 -53t-24.5 -43.5t-36.5 -29.5t-45 -11q-45 0 -65 25 t-20 71z" />
<glyph unicode="&#x134;" horiz-adv-x="625" d="M-190 -300q0 8 13 23t31 30t38 28.5t34 18.5q28 -18 49 -29.5t39 -17.5t34.5 -8t35.5 -2q26 0 55.5 17t54 60.5t40.5 119.5t16 193v1022q0 6 -8 13t-29.5 15t-59.5 16.5t-98 17.5v43h500v-43q-68 -14 -106.5 -31t-38.5 -31v-950q0 -119 -16.5 -198.5t-44 -134.5 t-63.5 -91.5t-75 -68.5q-27 -22 -59.5 -39t-65.5 -29t-62.5 -18t-48.5 -6q-30 0 -60 9.5t-53 22t-37.5 26t-14.5 22.5zM13 1412l264 309h107l262 -309q-12 -19 -19 -28t-24 -17l-274 208l-271 -208q-8 4 -13.5 8t-10 9t-9.5 12z" />
<glyph unicode="&#x135;" horiz-adv-x="530" d="M-240 -431q0 9 14.5 24.5t34.5 32.5t41.5 32t36.5 22q32 -28 66 -36.5t72 -8.5q29 0 57.5 18.5t51.5 64.5t37 125t14 200v627q0 51 -2.5 82t-15.5 48.5t-41.5 25.5t-80.5 14v40q42 7 74.5 16t62 18.5t56.5 21.5l60 24h37v-861q0 -115 -14.5 -195.5t-40 -137t-60.5 -95.5 t-75 -71q-27 -21 -57 -39.5t-60 -32t-56.5 -21t-45.5 -7.5q-31 0 -60.5 7.5t-53 18.5t-38 23t-14.5 20zM-36 1092l264 379h107l262 -379q-12 -19 -19 -28t-24 -17l-274 268l-271 -268q-8 4 -13.5 8t-10 9t-9.5 12z" />
<glyph unicode="&#x136;" horiz-adv-x="1184" d="M50 0v43q68 14 106.5 30.5t38.5 30.5v1051q0 12 -36.5 30t-108.5 32v43h450v-43q-68 -14 -106.5 -31t-38.5 -31v-509l409 482q23 27 29 43t-4 25t-35 13.5t-64 7.5v43h420v-43q-32 -4 -57 -8t-45 -10.5t-36.5 -16.5t-31.5 -27l-438 -484l483 -544q18 -20 38.5 -31 t44 -15.5t48.5 -4.5t51 4l7 -43q-59 -19 -118.5 -35t-107.5 -16q-29 0 -51.5 9t-42.5 34l-499 610v-535q0 -12 36 -29.5t109 -31.5v-43h-450zM447 -164q9 8 37 18.5t61 19.5t64 14t47 2q25 -12 42 -34t26 -47t11 -50.5t-2 -46.5q-5 -28 -18.5 -59t-35 -60t-52.5 -55t-71 -45 l-35 37q13 8 26.5 24.5t24 36t17.5 40t8 37.5q1 22 -6 43t-24 38.5t-44.5 29t-66.5 14.5z" />
<glyph unicode="&#x137;" horiz-adv-x="999" d="M30 0v43q66 17 103 30t37 31v1192q0 46 -5.5 71t-21 37.5t-43 16.5t-70.5 9v40q69 14 135.5 32.5t117.5 47.5l37 -34v-986l308 269q33 29 40 46.5t-2.5 26.5t-32 12t-48.5 3v43h379v-43q-44 -5 -81 -16.5t-79 -45.5l-341 -273l376 -441q14 -16 29 -26.5t33 -16.5 t40.5 -7.5t51.5 0.5l6 -43q-29 -7 -57.5 -12t-53 -8.5t-44 -5.5t-29.5 -2q-42 0 -67.5 12t-47.5 41l-380 479v-418q0 -8 3.5 -14t14.5 -12.5t33 -14.5t59 -20v-43h-400zM349 -164q9 8 37 18.5t61 19.5t64 14t47 2q25 -12 42 -34t26 -47t11 -50.5t-2 -46.5q-5 -28 -18.5 -59 t-35 -60t-52.5 -55t-71 -45l-35 37q13 8 26.5 24.5t24 36t17.5 40t8 37.5q1 22 -6 43t-24 38.5t-44.5 29t-66.5 14.5z" />
<glyph unicode="&#x138;" horiz-adv-x="1037" d="M55 0v43q66 15 103 29t37 32v722q0 15 -32.5 29t-107.5 32v43h400v-43q-66 -13 -88 -28t-22 -33v-306h125q36 0 60.5 18.5t42 48.5t30.5 69l26 79q13 40 29 79t40 69t57.5 48.5t81.5 18.5q33 0 68 -11.5t67 -23.5q5 -2 4.5 -26t-5.5 -60.5t-16 -80.5t-27 -86h-40 q-19 82 -41 115t-51 33q-22 0 -36.5 -16t-26.5 -42.5t-22 -60.5t-22.5 -69.5t-28.5 -69.5t-40 -61l248 -388q15 -16 28 -25.5t29.5 -14t38 -5t53.5 1.5l10 -42q-62 -17 -117.5 -27.5t-92.5 -10.5q-26 0 -52 12t-39 29l-211 411q-8 -1 -16 -1.5t-16 -0.5h-138v-326 q0 -8 3.5 -14.5t14.5 -13.5t33 -15t59 -18v-43h-400z" />
<glyph unicode="&#x139;" horiz-adv-x="975" d="M50 0v43q68 14 106.5 30.5t38.5 30.5v1051q0 12 -36.5 30t-108.5 32v43h450v-43q-68 -14 -106.5 -31t-38.5 -31v-991q0 -18 8.5 -31.5t29.5 -23t57 -14.5t91 -5h143q46 0 77.5 5t55.5 22.5t43.5 51.5t40.5 93l43 -18q-8 -87 -20.5 -151t-20.5 -93h-853zM290 1412l387 317 l27 -15l35 -20l33 -21t23 -18l9 -45l-469 -243q-17 7 -24.5 16.5t-20.5 28.5z" />
<glyph unicode="&#x13a;" horiz-adv-x="555" d="M60 0v43q43 7 72 14.5t46 15t24.5 15.5t7.5 16v1192q0 45 -6 70t-22 37.5t-43 17t-69 9.5v40q72 14 132 31t122 49l36 -34v-1412q0 -15 34 -31t116 -30v-43h-450zM108 1732l387 317l27 -15l35 -20l33 -21t23 -18l9 -45l-469 -243q-17 7 -24.5 16.5t-20.5 28.5z" />
<glyph unicode="&#x13b;" horiz-adv-x="975" d="M50 0v43q68 14 106.5 30.5t38.5 30.5v1051q0 12 -36.5 30t-108.5 32v43h450v-43q-68 -14 -106.5 -31t-38.5 -31v-991q0 -18 8.5 -31.5t29.5 -23t57 -14.5t91 -5h143q46 0 77.5 5t55.5 22.5t43.5 51.5t40.5 93l43 -18q-8 -87 -20.5 -151t-20.5 -93h-853zM332 -164 q9 8 37 18.5t61 19.5t64 14t47 2q25 -12 42 -34t26 -47t11 -50.5t-2 -46.5q-5 -28 -18.5 -59t-35 -60t-52.5 -55t-71 -45l-35 37q13 8 26.5 24.5t24 36t17.5 40t8 37.5q1 22 -6 43t-24 38.5t-44.5 29t-66.5 14.5z" />
<glyph unicode="&#x13c;" horiz-adv-x="555" d="M60 0v43q43 7 72 14.5t46 15t24.5 15.5t7.5 16v1192q0 45 -6 70t-22 37.5t-43 17t-69 9.5v40q72 14 132 31t122 49l36 -34v-1412q0 -15 34 -31t116 -30v-43h-450zM120 -164q9 8 37 18.5t61 19.5t64 14t47 2q25 -12 42 -34t26 -47t11 -50.5t-2 -46.5q-5 -28 -18.5 -59 t-35 -60t-52.5 -55t-71 -45l-35 37q13 8 26.5 24.5t24 36t17.5 40t8 37.5q1 22 -6 43t-24 38.5t-44.5 29t-66.5 14.5z" />
<glyph unicode="&#x13d;" horiz-adv-x="975" d="M50 0v43q68 14 106.5 30.5t38.5 30.5v1051q0 12 -36.5 30t-108.5 32v43h450v-43q-68 -14 -106.5 -31t-38.5 -31v-991q0 -18 8.5 -31.5t29.5 -23t57 -14.5t91 -5h143q46 0 77.5 5t55.5 22.5t43.5 51.5t40.5 93l43 -18q-8 -87 -20.5 -151t-20.5 -93h-853zM647 1432 q8 10 34.5 22t59 22t63 16.5t46.5 4.5q27 -12 45 -30t28.5 -40.5t14 -48t1.5 -50.5q-5 -69 -49.5 -138t-141.5 -130l-39 33q42 38 64 78t25 86q2 27 -5 51t-24 42t-44.5 29t-66.5 11z" />
<glyph unicode="&#x13e;" horiz-adv-x="752" d="M60 0v43q43 7 72 14.5t46 15t24.5 15.5t7.5 16v1192q0 45 -6 70t-22 37.5t-43 17t-69 9.5v40q72 14 132 31t122 49l36 -34v-1412q0 -15 34 -31t116 -30v-43h-450zM432 1432q8 10 34.5 22t59 22t63 16.5t46.5 4.5q27 -12 45 -30t28.5 -40.5t14 -48t1.5 -50.5 q-5 -69 -49.5 -138t-141.5 -130l-39 33q42 38 64 78t25 86q2 27 -5 51t-24 42t-44.5 29t-66.5 11z" />
<glyph unicode="&#x13f;" horiz-adv-x="975" d="M50 0v43q68 14 106.5 30.5t38.5 30.5v1051q0 12 -36.5 30t-108.5 32v43h450v-43q-68 -14 -106.5 -31t-38.5 -31v-991q0 -18 8.5 -31.5t29.5 -23t57 -14.5t91 -5h143q46 0 77.5 5t55.5 22.5t43.5 51.5t40.5 93l43 -18q-8 -87 -20.5 -151t-20.5 -93h-853zM650 680 q0 28 9 53t25 43.5t36.5 29t44.5 10.5q85 0 85 -95q0 -28 -9 -53t-24.5 -43.5t-36.5 -29.5t-46 -11q-45 0 -64.5 25t-19.5 71z" />
<glyph unicode="&#x140;" horiz-adv-x="855" d="M60 0v43q43 7 72 14.5t46 15t24.5 15.5t7.5 16v1192q0 45 -6 70t-22 37.5t-43 17t-69 9.5v40q72 14 132 31t122 49l36 -34v-1412q0 -15 34 -31t116 -30v-43h-450zM605 680q0 28 9 53t25 43.5t36.5 29t44.5 10.5q85 0 85 -95q0 -28 -9 -53t-24.5 -43.5t-36.5 -29.5 t-46 -11q-45 0 -64.5 25t-19.5 71z" />
<glyph unicode="&#x141;" horiz-adv-x="975" d="M41 491q3 9 9 22t13.5 26t15 24t13.5 17l103 52v523q0 12 -36.5 30t-108.5 32v43h450v-43q-68 -14 -106.5 -31t-38.5 -31v-443l278 141l26 -25q-8 -18 -23.5 -44t-29.5 -43l-251 -127v-450q0 -18 8.5 -31.5t29.5 -23t57 -14.5t91 -5h143q46 0 77.5 5t55.5 22.5t43.5 51.5 t40.5 93l43 -18q-8 -87 -20.5 -151t-20.5 -93h-853v43q68 14 106.5 30.5t38.5 30.5v429l-127 -64z" />
<glyph unicode="&#x142;" horiz-adv-x="575" d="M54 594q2 13 4 21t4.5 16.5t7.5 20.5l12 34l138 96v514q0 45 -6 70t-22 37.5t-43 17t-69 9.5v40q72 14 132 31t122 49l36 -34v-630l147 103l23 -16q-3 -17 -5.5 -27t-5.5 -18.5t-7 -18.5l-11 -27l-141 -100v-678q0 -15 34 -31t116 -30v-43h-450v43q43 7 72 14.5t46 15 t24.5 15.5t7.5 16v573l-142 -100z" />
<glyph unicode="&#x143;" horiz-adv-x="1329" d="M50 0v43q74 9 109.5 28t35.5 33v1045q-33 31 -69.5 46.5t-75.5 21.5v43h212q15 0 24.5 -2.5t19.5 -10.5q10 -7 22 -23l30 -42l657 -906v879q0 12 -32.5 31.5t-112.5 30.5v43h410v-43q-72 -10 -108.5 -29t-36.5 -33v-1185q-50 6 -78.5 20t-40.5 31l-701 972v-889 q0 -12 33.5 -31t111.5 -30v-43h-410zM488 1412l387 317l27 -15l35 -20l33 -21t23 -18l9 -45l-469 -243q-17 7 -24.5 16.5t-20.5 28.5z" />
<glyph unicode="&#x144;" horiz-adv-x="1130" d="M55 0v43q66 17 103 30.5t37 30.5v607q0 39 -3 62t-16.5 36t-41.5 19t-79 12v40q68 11 126 31.5t114 48.5l35 -35l11 -249q44 67 97 119.5t107 89t104.5 56t89.5 19.5q43 0 83 -13t70.5 -40t49 -68.5t18.5 -97.5v-637q0 -14 30.5 -27.5t109.5 -33.5v-43h-430v43 q72 19 106 33t34 28v529q0 61 -7 99t-22 60t-39.5 30t-59.5 8q-31 0 -69 -15t-81.5 -48t-91 -86.5t-95.5 -131.5v-445q0 -15 37.5 -31t102.5 -30v-43h-430zM477 1075l234 414q12 -1 31 -3l42 -6q21 -3 41 -7t31 -7l23 -39l-345 -380q-18 3 -32 11t-25 17z" />
<glyph unicode="&#x145;" horiz-adv-x="1329" d="M50 0v43q74 9 109.5 28t35.5 33v1045q-33 31 -69.5 46.5t-75.5 21.5v43h212q15 0 24.5 -2.5t19.5 -10.5q10 -7 22 -23l30 -42l657 -906v879q0 12 -32.5 31.5t-112.5 30.5v43h410v-43q-72 -10 -108.5 -29t-36.5 -33v-1185q-50 6 -78.5 20t-40.5 31l-701 972v-889 q0 -12 33.5 -31t111.5 -30v-43h-410zM500 -164q9 8 37 18.5t61 19.5t64 14t47 2q25 -12 42 -34t26 -47t11 -50.5t-2 -46.5q-5 -28 -18.5 -59t-35 -60t-52.5 -55t-71 -45l-35 37q13 8 26.5 24.5t24 36t17.5 40t8 37.5q1 22 -6 43t-24 38.5t-44.5 29t-66.5 14.5z" />
<glyph unicode="&#x146;" horiz-adv-x="1130" d="M55 0v43q66 17 103 30.5t37 30.5v607q0 39 -3 62t-16.5 36t-41.5 19t-79 12v40q68 11 126 31.5t114 48.5l35 -35l11 -249q44 67 97 119.5t107 89t104.5 56t89.5 19.5q43 0 83 -13t70.5 -40t49 -68.5t18.5 -97.5v-637q0 -14 30.5 -27.5t109.5 -33.5v-43h-430v43 q72 19 106 33t34 28v529q0 61 -7 99t-22 60t-39.5 30t-59.5 8q-31 0 -69 -15t-81.5 -48t-91 -86.5t-95.5 -131.5v-445q0 -15 37.5 -31t102.5 -30v-43h-430zM412 -164q9 8 37 18.5t61 19.5t64 14t47 2q25 -12 42 -34t26 -47t11 -50.5t-2 -46.5q-5 -28 -18.5 -59t-35 -60 t-52.5 -55t-71 -45l-35 37q13 8 26.5 24.5t24 36t17.5 40t8 37.5q1 22 -6 43t-24 38.5t-44.5 29t-66.5 14.5z" />
<glyph unicode="&#x147;" horiz-adv-x="1329" d="M50 0v43q74 9 109.5 28t35.5 33v1045q-33 31 -69.5 46.5t-75.5 21.5v43h212q15 0 24.5 -2.5t19.5 -10.5q10 -7 22 -23l30 -42l657 -906v879q0 12 -32.5 31.5t-112.5 30.5v43h410v-43q-72 -10 -108.5 -29t-36.5 -33v-1185q-50 6 -78.5 20t-40.5 31l-701 972v-889 q0 -12 33.5 -31t111.5 -30v-43h-410zM348 1698l12 17q5 7 9.5 12t10 9t13.5 9l275 -211l270 211q17 -9 24 -18t19 -29l-262 -307h-107z" />
<glyph unicode="&#x148;" horiz-adv-x="1130" d="M55 0v43q66 17 103 30.5t37 30.5v607q0 39 -3 62t-16.5 36t-41.5 19t-79 12v40q68 11 126 31.5t114 48.5l35 -35l11 -249q44 67 97 119.5t107 89t104.5 56t89.5 19.5q43 0 83 -13t70.5 -40t49 -68.5t18.5 -97.5v-637q0 -14 30.5 -27.5t109.5 -33.5v-43h-430v43 q72 19 106 33t34 28v529q0 61 -7 99t-22 60t-39.5 30t-59.5 8q-31 0 -69 -15t-81.5 -48t-91 -86.5t-95.5 -131.5v-445q0 -15 37.5 -31t102.5 -30v-43h-430zM260 1428l12 17q5 7 9.5 12t10 9t13.5 9l275 -251l270 251q17 -9 24 -18t19 -29l-262 -357h-107z" />
<glyph unicode="&#x149;" horiz-adv-x="1130" d="M-103 1432q8 10 34.5 22t59 22t63 16.5t46.5 4.5q27 -12 45 -30t28.5 -40.5t14 -48t1.5 -50.5q-5 -69 -49.5 -138t-141.5 -130l-39 33q42 38 64 78t25 86q2 27 -5 51t-24 42t-44.5 29t-66.5 11zM55 0v43q66 17 103 30.5t37 30.5v607q0 39 -3 62t-16.5 36t-41.5 19t-79 12 v40q68 11 126 31.5t114 48.5l35 -35l11 -249q44 67 97 119.5t107 89t104.5 56t89.5 19.5q43 0 83 -13t70.5 -40t49 -68.5t18.5 -97.5v-637q0 -14 30.5 -27.5t109.5 -33.5v-43h-430v43q72 19 106 33t34 28v529q0 61 -7 99t-22 60t-39.5 30t-59.5 8q-31 0 -69 -15t-81.5 -48 t-91 -86.5t-95.5 -131.5v-445q0 -15 37.5 -31t102.5 -30v-43h-430z" />
<glyph unicode="&#x14a;" horiz-adv-x="1235" d="M49 0v43q68 14 107 30.5t39 30.5v926q0 39 -3 63.5t-16.5 39t-41.5 22t-79 12.5v43q68 13 139.5 32.5t125.5 47.5l35 -35v-327q77 106 146 175.5t132 111t120 58.5t111 17q43 0 89 -13t84.5 -47.5t63 -94.5t24.5 -154v-704q0 -104 -21.5 -190.5t-57.5 -156.5 t-82.5 -124.5t-97.5 -93.5q-27 -21 -62 -38t-73.5 -29t-77.5 -18.5t-75 -6.5q-44 0 -88 11t-79.5 27.5t-58 35t-22.5 34.5q0 9 16 25t38 33t45 32t38 21q27 -27 58 -46.5t62 -32t61 -18.5t56 -6q47 0 94 30t84 90.5t60 152t23 215.5v648q0 82 -12 135.5t-34.5 85t-53.5 44.5 t-68 13q-40 0 -85.5 -17t-99 -62t-117 -123t-140.5 -200v-644q0 -12 36 -29.5t109 -31.5v-43h-451z" />
<glyph unicode="&#x14b;" horiz-adv-x="1120" d="M55 0v43q66 17 103 30.5t37 30.5v607q0 39 -3 62t-16.5 36t-41.5 19t-79 12v41q68 11 126 31.5t114 48.5l35 -35l10 -250q44 67 97 119.5t107 89t105 56t90 19.5q43 0 83 -13t70.5 -40t49 -68.5t18.5 -97.5v-653q0 -117 -18.5 -197t-49 -135.5t-69 -93t-78.5 -69.5 q-27 -23 -61 -40t-68 -29t-64.5 -18t-49.5 -6q-34 0 -73.5 10t-74 25t-57.5 32t-23 32q0 9 15 24.5t35.5 32.5t42.5 32t36 22q29 -27 59.5 -44t59 -27.5t52.5 -14.5t39 -4q28 0 62.5 18.5t64.5 65.5t50 127t20 204v598q0 61 -7 99t-22 59.5t-39.5 29.5t-59.5 8 q-31 0 -69.5 -14.5t-82 -47.5t-91 -86.5t-95.5 -131.5v-445q0 -15 38 -31t103 -30v-43h-430z" />
<glyph unicode="&#x14c;" horiz-adv-x="1229" d="M70 612q0 136 44 259t120 216t178.5 148t220.5 55q124 0 218 -54.5t158 -144.5t96.5 -206t32.5 -238q0 -136 -45 -258.5t-122.5 -215.5t-179.5 -148t-216 -55q-120 0 -214 53t-158.5 142t-98.5 205t-34 242zM225 641q0 -112 30.5 -212t82 -175.5t120.5 -119.5t146 -44 q83 0 152.5 34.5t120 102.5t78.5 169t28 233q0 69 -12.5 136.5t-35.5 128t-56.5 112t-75.5 89t-92 59t-107 21.5q-89 0 -159.5 -37.5t-119 -107t-74.5 -168.5t-26 -221zM287 1480q2 11 7 25t11 29l12 28l11 23h613l22 -24q-2 -11 -7 -25.5t-11 -29.5l-11 -28l-10 -23h-615z " />
<glyph unicode="&#x14d;" horiz-adv-x="1030" d="M80 444q0 66 16.5 130t46 121.5t71 106t92 83.5t109 55t120.5 20q94 0 170.5 -36t131 -99.5t84 -150.5t29.5 -189q0 -67 -17 -131t-47 -121t-72 -105.5t-92.5 -83.5t-107.5 -54.5t-118 -19.5q-95 0 -171.5 36t-131 99t-84 150t-29.5 189zM235 473q0 -79 28 -150.5 t70.5 -125.5t93.5 -85.5t97 -31.5q71 0 122 26.5t84 75.5t49 118t16 155q0 79 -26 150.5t-67 126t-93 86.5t-103 32q-76 0 -128 -29t-83.5 -79.5t-45.5 -119.5t-14 -149zM207 1200q2 11 7 25t11 29l12 28l11 23h613l22 -24q-2 -11 -7 -25.5t-11 -29.5l-11 -28l-10 -23h-615z " />
<glyph unicode="&#x14e;" horiz-adv-x="1229" d="M70 612q0 136 44 259t120 216t178.5 148t220.5 55q124 0 218 -54.5t158 -144.5t96.5 -206t32.5 -238q0 -136 -45 -258.5t-122.5 -215.5t-179.5 -148t-216 -55q-120 0 -214 53t-158.5 142t-98.5 205t-34 242zM225 641q0 -112 30.5 -212t82 -175.5t120.5 -119.5t146 -44 q83 0 152.5 34.5t120 102.5t78.5 169t28 233q0 69 -12.5 136.5t-35.5 128t-56.5 112t-75.5 89t-92 59t-107 21.5q-89 0 -159.5 -37.5t-119 -107t-74.5 -168.5t-26 -221zM290 1680q12 18 24 27.5t29 17.5q25 -57 57.5 -96t68.5 -62.5t73.5 -34t70.5 -10.5q35 0 73.5 10.5 t75 34t69 62.5t56.5 96q17 -8 29 -17.5t24 -27.5q-30 -81 -67.5 -136t-79 -89.5t-86.5 -49.5t-90 -15q-49 0 -95 15t-87.5 49.5t-78 89.5t-66.5 136z" />
<glyph unicode="&#x14f;" horiz-adv-x="1030" d="M80 444q0 66 16.5 130t46 121.5t71 106t92 83.5t109 55t120.5 20q94 0 170.5 -36t131 -99.5t84 -150.5t29.5 -189q0 -67 -17 -131t-47 -121t-72 -105.5t-92.5 -83.5t-107.5 -54.5t-118 -19.5q-95 0 -171.5 36t-131 99t-84 150t-29.5 189zM235 473q0 -79 28 -150.5 t70.5 -125.5t93.5 -85.5t97 -31.5q71 0 122 26.5t84 75.5t49 118t16 155q0 79 -26 150.5t-67 126t-93 86.5t-103 32q-76 0 -128 -29t-83.5 -79.5t-45.5 -119.5t-14 -149zM210 1360q12 18 24 27.5t29 17.5q25 -57 57.5 -96t68.5 -62.5t73.5 -34t70.5 -10.5q35 0 73.5 10.5 t75 34t69 62.5t56.5 96q17 -8 29 -17.5t24 -27.5q-30 -81 -67.5 -136t-79 -89.5t-86.5 -49.5t-90 -15q-49 0 -95 15t-87.5 49.5t-78 89.5t-66.5 136z" />
<glyph unicode="&#x150;" horiz-adv-x="1229" d="M70 612q0 136 44 259t120 216t178.5 148t220.5 55q124 0 218 -54.5t158 -144.5t96.5 -206t32.5 -238q0 -136 -45 -258.5t-122.5 -215.5t-179.5 -148t-216 -55q-120 0 -214 53t-158.5 142t-98.5 205t-34 242zM225 641q0 -112 30.5 -212t82 -175.5t120.5 -119.5t146 -44 q83 0 152.5 34.5t120 102.5t78.5 169t28 233q0 69 -12.5 136.5t-35.5 128t-56.5 112t-75.5 89t-92 59t-107 21.5q-89 0 -159.5 -37.5t-119 -107t-74.5 -168.5t-26 -221zM395 1394l176 415q12 -2 28.5 -4.5t33.5 -6.5l32 -6q15 -4 25 -8l22 -41l-260 -376q-17 4 -27 9.5 t-30 17.5zM686 1394l176 415l28 -5q16 -2 33 -6l32 -6q15 -4 26 -8l22 -41l-260 -376q-19 4 -29 9.5t-28 17.5z" />
<glyph unicode="&#x151;" horiz-adv-x="1030" d="M80 444q0 66 16.5 130t46 121.5t71 106t92 83.5t109 55t120.5 20q94 0 170.5 -36t131 -99.5t84 -150.5t29.5 -189q0 -67 -17 -131t-47 -121t-72 -105.5t-92.5 -83.5t-107.5 -54.5t-118 -19.5q-95 0 -171.5 36t-131 99t-84 150t-29.5 189zM235 473q0 -79 28 -150.5 t70.5 -125.5t93.5 -85.5t97 -31.5q71 0 122 26.5t84 75.5t49 118t16 155q0 79 -26 150.5t-67 126t-93 86.5t-103 32q-76 0 -128 -29t-83.5 -79.5t-45.5 -119.5t-14 -149zM315 1074l176 415q12 -2 28.5 -4.5t33.5 -6.5l32 -6q15 -4 25 -8l22 -41l-260 -376q-17 4 -27 9.5 t-30 17.5zM606 1074l176 415l28 -5q16 -2 33 -6l32 -6q15 -4 26 -8l22 -41l-260 -376q-19 4 -29 9.5t-28 17.5z" />
<glyph unicode="&#x152;" horiz-adv-x="1634" d="M70 612q0 136 44 259t120 216t178.5 148t220.5 55q40 0 69.5 -4.5t56.5 -10t56.5 -10t69.5 -5.5h592l30 -25q-2 -26 -5.5 -57t-9 -62t-12 -59t-12.5 -47h-47q-2 46 -8 76.5t-16 49t-24.5 26t-33.5 7.5h-323v-434h362l29 -28q-9 -14 -21 -29.5t-24.5 -30t-24.5 -27 t-22 -20.5q-15 15 -32.5 25t-40 17t-53.5 10t-73 3h-100v-501q0 -15 1 -26.5t15 -20t48 -13t100 -4.5h129q46 0 78.5 5t57 22.5t45 51.5t42.5 93l43 -18q-8 -87 -20.5 -151t-20.5 -93h-654q-53 -1 -91 -5.5t-71 -10t-66 -10t-77 -4.5q-120 0 -214 53t-158.5 142t-98.5 205 t-34 242zM225 641q0 -112 30.5 -212t82 -175.5t120.5 -119.5t146 -44q40 0 75 1.5t65.5 6.5t57.5 14.5t52 26.5v960q-53 41 -116 59t-134 18q-89 0 -159.5 -38t-119 -107.5t-74.5 -168.5t-26 -221z" />
<glyph unicode="&#x153;" horiz-adv-x="1624" d="M80 444q0 66 17 130t47.5 121.5t72.5 106t92.5 83.5t108 55t117.5 20q54 0 103.5 -15t92.5 -42t77.5 -65.5t60.5 -86.5q25 38 56.5 70.5t69.5 58.5q22 15 50.5 29.5t57.5 26t57.5 18t51.5 6.5q62 0 110.5 -18t85.5 -48.5t63 -71t42 -85.5t23.5 -91.5t7.5 -88.5 q-20 -20 -50 -37.5t-62 -30.5h-502q1 -78 21.5 -148t57 -123t88.5 -84.5t117 -31.5q28 0 55 3.5t59.5 17t73.5 40.5t97 73q13 -7 22.5 -20t14.5 -21q-66 -73 -116.5 -117.5t-94 -68.5t-84.5 -31.5t-88 -7.5q-50 0 -96.5 14.5t-88.5 42t-77 67t-60 90.5q-32 -47 -72.5 -86.5 t-86 -68t-95.5 -44t-102 -15.5q-85 0 -157.5 36t-125 99t-82.5 150t-30 189zM233 473q0 -79 27 -150.5t70 -125.5t97 -85.5t108 -31.5t98 28.5t76 79t49.5 119t17.5 148.5t-25.5 151.5t-68 125.5t-96.5 86t-111 32q-54 0 -98.5 -29t-76.5 -79.5t-49.5 -119.5t-17.5 -149z M936 580h403q22 0 30.5 7.5t8.5 28.5q0 27 -7.5 68t-28.5 79t-59 65.5t-99 27.5q-48 0 -89.5 -20.5t-74 -57t-54 -87t-30.5 -111.5z" />
<glyph unicode="&#x154;" horiz-adv-x="1149" d="M41 1230q47 12 95 22.5t100 19t109.5 13.5t123.5 5q116 0 202 -23t143 -64t85 -96.5t28 -119.5q0 -72 -20.5 -130.5t-58 -103.5t-89.5 -77t-114 -51l303 -486q15 -22 32.5 -35t39 -19.5t48 -6.5t60.5 2l11 -43q-66 -22 -125.5 -36.5t-98.5 -14.5q-29 0 -56.5 16t-41.5 39 l-303 561q-13 -2 -26 -2h-27q-26 0 -52 2.5t-54 8.5v-507q0 -12 36 -29.5t109 -31.5v-43h-450v43q68 14 106.5 30.5t38.5 30.5v1085l-71 -11q-36 -6 -74 -10zM355 691q27 -5 47 -6t42 -1q158 0 243 69.5t85 202.5q0 55 -19.5 101t-61 79t-106 51.5t-153.5 18.5q-38 0 -77 -3 v-512zM343 1412l387 317l27 -15l35 -20l33 -21t23 -18l9 -45l-469 -243q-17 7 -24.5 16.5t-20.5 28.5z" />
<glyph unicode="&#x155;" horiz-adv-x="811" d="M55 0v43q66 15 103 29.5t37 31.5v582q0 33 -2 55.5t-5 36.5t-7.5 22t-8.5 13q-7 7 -15.5 11.5t-22 7.5t-32.5 4.5t-47 3.5v40l127 34q62 18 113 46l35 -35l13 -227q27 55 58.5 103t67.5 83.5t75.5 55.5t82.5 20q32 0 69 -8t74 -29q9 -6 9 -32q-1 -29 -9 -70 q-8 -38 -19.5 -78t-23.5 -67h-43q-6 40 -17 68t-25.5 44.5t-32 24t-36.5 7.5q-22 0 -51.5 -18.5t-60.5 -58t-61.5 -101t-54.5 -146.5v-392q0 -15 37.5 -31t131.5 -30v-43h-459zM350 1075l234 414q12 -1 31 -3l42 -6q21 -3 41 -7t31 -7l23 -39l-345 -380q-18 3 -32 11t-25 17 z" />
<glyph unicode="&#x156;" horiz-adv-x="1149" d="M41 1230q47 12 95 22.5t100 19t109.5 13.5t123.5 5q116 0 202 -23t143 -64t85 -96.5t28 -119.5q0 -72 -20.5 -130.5t-58 -103.5t-89.5 -77t-114 -51l303 -486q15 -22 32.5 -35t39 -19.5t48 -6.5t60.5 2l11 -43q-66 -22 -125.5 -36.5t-98.5 -14.5q-29 0 -56.5 16t-41.5 39 l-303 561q-13 -2 -26 -2h-27q-26 0 -52 2.5t-54 8.5v-507q0 -12 36 -29.5t109 -31.5v-43h-450v43q68 14 106.5 30.5t38.5 30.5v1085l-71 -11q-36 -6 -74 -10zM355 691q27 -5 47 -6t42 -1q158 0 243 69.5t85 202.5q0 55 -19.5 101t-61 79t-106 51.5t-153.5 18.5q-38 0 -77 -3 v-512zM355 -164q9 8 37 18.5t61 19.5t64 14t47 2q25 -12 42 -34t26 -47t11 -50.5t-2 -46.5q-5 -28 -18.5 -59t-35 -60t-52.5 -55t-71 -45l-35 37q13 8 26.5 24.5t24 36t17.5 40t8 37.5q1 22 -6 43t-24 38.5t-44.5 29t-66.5 14.5z" />
<glyph unicode="&#x157;" horiz-adv-x="811" d="M55 0v43q66 15 103 29.5t37 31.5v582q0 33 -2 55.5t-5 36.5t-7.5 22t-8.5 13q-7 7 -15.5 11.5t-22 7.5t-32.5 4.5t-47 3.5v40l127 34q62 18 113 46l35 -35l13 -227q27 55 58.5 103t67.5 83.5t75.5 55.5t82.5 20q32 0 69 -8t74 -29q9 -6 9 -32q-1 -29 -9 -70 q-8 -38 -19.5 -78t-23.5 -67h-43q-6 40 -17 68t-25.5 44.5t-32 24t-36.5 7.5q-22 0 -51.5 -18.5t-60.5 -58t-61.5 -101t-54.5 -146.5v-392q0 -15 37.5 -31t131.5 -30v-43h-459zM105 -164q9 8 37 18.5t61 19.5t64 14t47 2q25 -12 42 -34t26 -47t11 -50.5t-2 -46.5 q-5 -28 -18.5 -59t-35 -60t-52.5 -55t-71 -45l-35 37q13 8 26.5 24.5t24 36t17.5 40t8 37.5q1 22 -6 43t-24 38.5t-44.5 29t-66.5 14.5z" />
<glyph unicode="&#x158;" horiz-adv-x="1149" d="M41 1230q47 12 95 22.5t100 19t109.5 13.5t123.5 5q116 0 202 -23t143 -64t85 -96.5t28 -119.5q0 -72 -20.5 -130.5t-58 -103.5t-89.5 -77t-114 -51l303 -486q15 -22 32.5 -35t39 -19.5t48 -6.5t60.5 2l11 -43q-66 -22 -125.5 -36.5t-98.5 -14.5q-29 0 -56.5 16t-41.5 39 l-303 561q-13 -2 -26 -2h-27q-26 0 -52 2.5t-54 8.5v-507q0 -12 36 -29.5t109 -31.5v-43h-450v43q68 14 106.5 30.5t38.5 30.5v1085l-71 -11q-36 -6 -74 -10zM355 691q27 -5 47 -6t42 -1q158 0 243 69.5t85 202.5q0 55 -19.5 101t-61 79t-106 51.5t-153.5 18.5q-38 0 -77 -3 v-512zM203 1698l12 17q5 7 9.5 12t10 9t13.5 9l275 -211l270 211q17 -9 24 -18t19 -29l-262 -307h-107z" />
<glyph unicode="&#x159;" horiz-adv-x="811" d="M55 0v43q66 15 103 29.5t37 31.5v582q0 33 -2 55.5t-5 36.5t-7.5 22t-8.5 13q-7 7 -15.5 11.5t-22 7.5t-32.5 4.5t-47 3.5v40l127 34q62 18 113 46l35 -35l13 -227q27 55 58.5 103t67.5 83.5t75.5 55.5t82.5 20q32 0 69 -8t74 -29q9 -6 9 -32q-1 -29 -9 -70 q-8 -38 -19.5 -78t-23.5 -67h-43q-6 40 -17 68t-25.5 44.5t-32 24t-36.5 7.5q-22 0 -51.5 -18.5t-60.5 -58t-61.5 -101t-54.5 -146.5v-392q0 -15 37.5 -31t131.5 -30v-43h-459zM133 1428l12 17q5 7 9.5 12t10 9t13.5 9l275 -251l270 251q17 -9 24 -18t19 -29l-262 -357h-107 z" />
<glyph unicode="&#x15a;" horiz-adv-x="975" d="M117 172.5q0 40.5 3 82.5t11 69l41 -5q23 -59 57.5 -102t76.5 -71.5t90.5 -42t99.5 -13.5q45 0 90.5 18.5t81.5 50.5t59 74.5t23 90.5q0 61 -27 105t-70.5 78t-99.5 61l-115 54q-58 27 -114 57t-99.5 70t-70.5 92.5t-27 125.5q0 31 9 67t29 72t51.5 69.5t76 59 t102.5 40.5t131 15q45 0 90.5 -7t85 -19t71.5 -29t50 -37q7 -6 0.5 -23.5t-20 -38t-30 -40.5t-28.5 -31l-36 6q-28 33 -58.5 55.5t-62 36.5t-62.5 20t-59 6q-56 0 -95.5 -16.5t-65 -42.5t-37.5 -57t-12 -59q0 -47 27 -83.5t71 -66.5q45 -31 101 -58l115 -56 q59 -30 115.5 -64t100.5 -78t71 -100.5t27 -130.5q0 -45 -12 -92t-36.5 -92.5t-61 -86t-86 -70.5t-112 -48t-137.5 -18q-33 0 -72 7t-80 19.5t-81.5 30.5t-75.5 41q-7 4 -10.5 34t-3.5 70.5zM323 1412l387 317l27 -15l35 -20l33 -21t23 -18l9 -45l-469 -243 q-17 7 -24.5 16.5t-20.5 28.5z" />
<glyph unicode="&#x15b;" horiz-adv-x="791" d="M96 144q2 38 6 77t11 62l43 -11q2 -42 22 -79t53.5 -64t78 -43t96.5 -16q36 0 66 11.5t52 32t34 49.5t12 64q0 40 -21.5 71t-56.5 56q-36 26 -80 48l-90 47q-42 21 -81 45t-69.5 54t-49 67t-18.5 85q0 62 25 110.5t66.5 81.5t95 50.5t110.5 17.5q31 0 68.5 -5.5t74 -15.5 t68.5 -24t52 -32q6 -6 1.5 -27t-14 -46t-20.5 -47t-17 -30l-39 8q-48 72 -99.5 100.5t-100.5 28.5q-33 0 -59 -11t-44.5 -28.5t-28 -38.5t-9.5 -42q0 -32 19 -57.5t50 -48t71 -42.5l81 -43q43 -22 87 -47t79 -57.5t57 -74t22 -97.5q0 -71 -20 -121.5t-52 -85.5t-71 -56 t-77 -32t-71.5 -14.5t-52.5 -3.5q-48 0 -115.5 18t-134.5 55q-8 3 -10 33q-2 18 -1 40q0 14 1 28zM297 1075l234 414q12 -1 31 -3l42 -6q21 -3 41 -7t31 -7l23 -39l-345 -380q-18 3 -32 11t-25 17z" />
<glyph unicode="&#x15c;" horiz-adv-x="975" d="M117 172.5q0 40.5 3 82.5t11 69l41 -5q23 -59 57.5 -102t76.5 -71.5t90.5 -42t99.5 -13.5q45 0 90.5 18.5t81.5 50.5t59 74.5t23 90.5q0 61 -27 105t-70.5 78t-99.5 61l-115 54q-58 27 -114 57t-99.5 70t-70.5 92.5t-27 125.5q0 31 9 67t29 72t51.5 69.5t76 59 t102.5 40.5t131 15q45 0 90.5 -7t85 -19t71.5 -29t50 -37q7 -6 0.5 -23.5t-20 -38t-30 -40.5t-28.5 -31l-36 6q-28 33 -58.5 55.5t-62 36.5t-62.5 20t-59 6q-56 0 -95.5 -16.5t-65 -42.5t-37.5 -57t-12 -59q0 -47 27 -83.5t71 -66.5q45 -31 101 -58l115 -56 q59 -30 115.5 -64t100.5 -78t71 -100.5t27 -130.5q0 -45 -12 -92t-36.5 -92.5t-61 -86t-86 -70.5t-112 -48t-137.5 -18q-33 0 -72 7t-80 19.5t-81.5 30.5t-75.5 41q-7 4 -10.5 34t-3.5 70.5zM183 1412l264 309h107l262 -309q-12 -19 -19 -28t-24 -17l-274 208l-271 -208 q-8 4 -13.5 8t-10 9t-9.5 12z" />
<glyph unicode="&#x15d;" horiz-adv-x="791" d="M96 144q2 38 6 77t11 62l43 -11q2 -42 22 -79t53.5 -64t78 -43t96.5 -16q36 0 66 11.5t52 32t34 49.5t12 64q0 40 -21.5 71t-56.5 56q-36 26 -80 48l-90 47q-42 21 -81 45t-69.5 54t-49 67t-18.5 85q0 62 25 110.5t66.5 81.5t95 50.5t110.5 17.5q31 0 68.5 -5.5t74 -15.5 t68.5 -24t52 -32q6 -6 1.5 -27t-14 -46t-20.5 -47t-17 -30l-39 8q-48 72 -99.5 100.5t-100.5 28.5q-33 0 -59 -11t-44.5 -28.5t-28 -38.5t-9.5 -42q0 -32 19 -57.5t50 -48t71 -42.5l81 -43q43 -22 87 -47t79 -57.5t57 -74t22 -97.5q0 -71 -20 -121.5t-52 -85.5t-71 -56 t-77 -32t-71.5 -14.5t-52.5 -3.5q-48 0 -115.5 18t-134.5 55q-8 3 -10 33q-2 18 -1 40q0 14 1 28zM80 1092l264 379h107l262 -379q-12 -19 -19 -28t-24 -17l-274 268l-271 -268q-8 4 -13.5 8t-10 9t-9.5 12z" />
<glyph unicode="&#x15e;" horiz-adv-x="975" d="M117 172.5q0 40.5 3 82.5t11 69l41 -5q23 -59 57.5 -102t76.5 -71.5t90.5 -42t99.5 -13.5q45 0 90.5 18.5t81.5 50.5t59 74.5t23 90.5q0 61 -27 105t-70.5 78t-99.5 61l-115 54q-58 27 -114 57t-99.5 70t-70.5 92.5t-27 125.5q0 31 9 67t29 72t51.5 69.5t76 59 t102.5 40.5t131 15q45 0 90.5 -7t85 -19t71.5 -29t50 -37q7 -6 0.5 -23.5t-20 -38t-30 -40.5t-28.5 -31l-36 6q-28 33 -58.5 55.5t-62 36.5t-62.5 20t-59 6q-56 0 -95.5 -16.5t-65 -42.5t-37.5 -57t-12 -59q0 -47 27 -83.5t71 -67t101 -57.5l115 -56q59 -30 115.5 -64 t100.5 -78t71 -100.5t27 -130.5q0 -45 -12 -92t-36.5 -92.5t-61 -86t-86 -70.5t-112.5 -48q-21 -6 -45 -10l-27 -82q26 -6 51.5 -15.5t45 -24.5t31.5 -36t12 -49q0 -37 -17.5 -71t-54.5 -62t-95.5 -49t-140.5 -33l-22 49q52 9 88.5 22.5t59.5 29.5t33.5 33.5t10.5 33.5 q0 34 -26 47.5t-88 19.5q2 3 10 28l21 66l28 85h-12q-33 0 -72 7t-80 19.5t-81.5 30.5t-75.5 41q-7 4 -10.5 34t-3.5 70.5z" />
<glyph unicode="&#x15f;" horiz-adv-x="791" d="M95.5 143.5q1.5 38.5 6 77.5t11.5 62l43 -11q2 -42 22 -79t53.5 -64t78 -43t96.5 -16q36 0 66 11.5t52 32t34 49.5t12 64q0 40 -21.5 71t-56.5 56.5t-80 47.5l-90 47q-42 21 -81 45t-69.5 54t-49 67t-18.5 85q0 62 25 110.5t66.5 81.5t95 50.5t110.5 17.5q31 0 68.5 -5.5 t74 -15.5t68.5 -24t52 -32q6 -6 1.5 -27t-14 -46t-20.5 -47t-17 -30l-39 8q-48 72 -99.5 100.5t-100.5 28.5q-33 0 -59 -11t-44.5 -28.5t-28 -38.5t-9.5 -42q0 -32 19 -57.5t50 -48t71 -42.5l81 -43q43 -22 87 -47t79 -57.5t57 -74t22 -97.5q0 -71 -20 -121.5t-52 -85.5 t-71 -56t-77 -32q-22 -6 -43 -10l-27 -82q26 -6 51.5 -15.5t45 -24.5t31.5 -36t12 -49q0 -37 -17.5 -71t-54.5 -62t-95.5 -49t-140.5 -33l-22 49q52 9 88.5 22.5t59.5 29.5t33.5 33.5t10.5 33.5q0 34 -26 47.5t-88 19.5q2 3 10 28l21 66l28 85h-1q-48 0 -115.5 18t-134.5 55 q-7 3 -9.5 32.5t-1 68z" />
<glyph unicode="&#x160;" horiz-adv-x="975" d="M117 172.5q0 40.5 3 82.5t11 69l41 -5q23 -59 57.5 -102t76.5 -71.5t90.5 -42t99.5 -13.5q45 0 90.5 18.5t81.5 50.5t59 74.5t23 90.5q0 61 -27 105t-70.5 78t-99.5 61l-115 54q-58 27 -114 57t-99.5 70t-70.5 92.5t-27 125.5q0 31 9 67t29 72t51.5 69.5t76 59 t102.5 40.5t131 15q45 0 90.5 -7t85 -19t71.5 -29t50 -37q7 -6 0.5 -23.5t-20 -38t-30 -40.5t-28.5 -31l-36 6q-28 33 -58.5 55.5t-62 36.5t-62.5 20t-59 6q-56 0 -95.5 -16.5t-65 -42.5t-37.5 -57t-12 -59q0 -47 27 -83.5t71 -66.5q45 -31 101 -58l115 -56 q59 -30 115.5 -64t100.5 -78t71 -100.5t27 -130.5q0 -45 -12 -92t-36.5 -92.5t-61 -86t-86 -70.5t-112 -48t-137.5 -18q-33 0 -72 7t-80 19.5t-81.5 30.5t-75.5 41q-7 4 -10.5 34t-3.5 70.5zM183 1698l12 17q5 7 9.5 12t10 9t13.5 9l275 -211l270 211q17 -9 24 -18t19 -29 l-262 -307h-107z" />
<glyph unicode="&#x161;" horiz-adv-x="791" d="M96 144q2 38 6 77t11 62l43 -11q2 -42 22 -79t53.5 -64t78 -43t96.5 -16q36 0 66 11.5t52 32t34 49.5t12 64q0 40 -21.5 71t-56.5 56q-36 26 -80 48l-90 47q-42 21 -81 45t-69.5 54t-49 67t-18.5 85q0 62 25 110.5t66.5 81.5t95 50.5t110.5 17.5q31 0 68.5 -5.5t74 -15.5 t68.5 -24t52 -32q6 -6 1.5 -27t-14 -46t-20.5 -47t-17 -30l-39 8q-48 72 -99.5 100.5t-100.5 28.5q-33 0 -59 -11t-44.5 -28.5t-28 -38.5t-9.5 -42q0 -32 19 -57.5t50 -48t71 -42.5l81 -43q43 -22 87 -47t79 -57.5t57 -74t22 -97.5q0 -71 -20 -121.5t-52 -85.5t-71 -56 t-77 -32t-71.5 -14.5t-52.5 -3.5q-48 0 -115.5 18t-134.5 55q-8 3 -10 33q-2 18 -1 40q0 14 1 28zM80 1428l12 17q5 7 9.5 12t10 9t13.5 9l275 -251l270 251q17 -9 24 -18t19 -29l-262 -357h-107z" />
<glyph unicode="&#x162;" horiz-adv-x="1128" d="M10 1014q5 59 13.5 126t19.5 120h1010l30 -25q-2 -51 -10 -111.5t-20 -123.5h-45l-18 78q-7 33 -17 53.5t-23.5 29.5t-34.5 9h-284v-1055q0 -13 36 -33t128 -39v-43h-184l-35 -104q26 -6 51.5 -15.5t45 -24.5t31.5 -36t12 -49q0 -37 -17.5 -71t-54.5 -62t-95.5 -49 t-140.5 -33l-22 49q52 9 88.5 22.5t59.5 29.5t33.5 33.5t10.5 33.5q0 34 -26 47.5t-88 19.5q2 3 10 28l21 66q14 41 37 115h-225v43q46 9 77.5 19t50.5 19.5t27.5 18t8.5 15.5v1055h-299q-15 0 -27.5 -5.5t-25 -23.5t-28.5 -53t-38 -93z" />
<glyph unicode="&#x163;" horiz-adv-x="705" d="M20 863l78 67h72v246l119 104l31 -25v-325h327l29 -29q-9 -14 -22.5 -30t-27.5 -30t-27.5 -25.5t-23.5 -15.5q-24 12 -73 23.5t-130 11.5h-52v-528q0 -60 5.5 -100t18.5 -63.5t33.5 -33.5t50.5 -10q35 0 88 14t131 54l29 -51q-49 -36 -97 -63.5t-91.5 -46t-80.5 -27.5 q-4 -1 -7 -2l-27 -82q26 -6 51.5 -15.5t45 -24.5t31.5 -36t12 -49q0 -37 -17.5 -71t-54.5 -62t-95.5 -49t-140.5 -33l-22 49q52 9 88.5 22.5t59.5 29.5t33.5 33.5t10.5 33.5q0 34 -26 47.5t-88 19.5q2 3 10 28l21 66l28 87q-22 3 -43 11q-31 13 -55 42.5t-38 77.5t-14 118 v614h-129z" />
<glyph unicode="&#x164;" horiz-adv-x="1128" d="M10 1014q5 59 13.5 126t19.5 120h1010l30 -25q-2 -51 -10 -111.5t-20 -123.5h-45l-18 78q-8 32 -17.5 53t-23 30t-34.5 9h-284v-1055q0 -13 36 -33t128 -39v-43h-488v43q46 9 77.5 19t50.5 19.5t27.5 18t8.5 15.5v1055h-299q-15 0 -27.5 -5.5t-25 -23.5t-28.5 -53 t-38 -93zM229 1698l12 17q5 7 9.5 12t10 9t13.5 9l275 -211l270 211q17 -9 24 -18t19 -29l-262 -307h-107z" />
<glyph unicode="&#x165;" horiz-adv-x="705" d="M20 863l78 67h72v246l119 104l31 -25v-325h327l29 -29q-9 -14 -22.5 -30t-27.5 -30t-27.5 -25.5t-23.5 -15.5q-24 12 -73 23.5t-130 11.5h-52v-528q0 -60 5.5 -100t18.5 -63.5t33.5 -33.5t50.5 -10q35 0 88 14t131 54l29 -51q-49 -36 -97 -63.5t-91.5 -46t-80.5 -28 t-63 -9.5q-35 0 -66.5 13t-55.5 42.5t-38 77.5t-14 118v614h-129zM397 1432q8 10 34.5 22t59 22t63 16.5t46.5 4.5q27 -12 45 -30t28.5 -40.5t14 -48t1.5 -50.5q-5 -69 -49.5 -138t-141.5 -130l-39 33q42 38 64 78t25 86q2 27 -5 51t-24 42t-44.5 29t-66.5 11z" />
<glyph unicode="&#x166;" horiz-adv-x="1128" d="M9 1014q5 59 13.5 126t19.5 120h1010l30 -25q-2 -51 -10 -111.5t-20 -123.5h-45l-17 74q-7 32 -16.5 53.5t-23.5 32t-36 10.5h-284v-465h275l25 -22l-25 -68h-275v-500q0 -13 36 -33t128 -39v-43h-488v43q46 9 77.5 19t50.5 19.5t27.5 18t8.5 15.5v500h-278l-22 25l10 32 l12 33h278v465h-299q-15 0 -27.5 -5.5t-25 -23.5t-28.5 -53t-38 -93z" />
<glyph unicode="&#x167;" horiz-adv-x="705" d="M20 862l78 68h72v246l119 104l31 -25v-325h327l29 -29q-9 -14 -22.5 -30t-27.5 -30.5t-27.5 -26t-23.5 -15.5q-24 12 -73 23.5t-130 11.5h-52v-329h190l22 -25l-22 -65h-190v-108q0 -60 5.5 -100t18.5 -63.5t33.5 -33.5t50.5 -10q35 0 88 14t131 54l29 -51 q-49 -36 -97 -63.5t-91.5 -46t-80.5 -28t-63 -9.5q-35 0 -66.5 13t-55.5 42.5t-38 77.5t-14 118v194h-117l-23 22q5 16 10 34t13 34h117v329h-129z" />
<glyph unicode="&#x168;" horiz-adv-x="1339" d="M50 1217v43h450v-43q-68 -14 -106.5 -31t-38.5 -31v-661q0 -96 22.5 -172t67 -128.5t109.5 -80.5t151 -28q71 0 126 34.5t92.5 90.5t57 127.5t19.5 145.5v672q0 12 -36.5 30t-108.5 32v43h420v-43q-68 -14 -106.5 -31t-38.5 -31v-631q0 -131 -32 -234t-92 -174 t-146 -108.5t-194 -37.5q-103 0 -189.5 28.5t-149 87t-97.5 147.5t-35 211v711q0 12 -36.5 30t-108.5 32zM336 1413q18 41 42.5 81.5t55.5 72.5t66.5 52t74.5 20q38 0 72 -17.5t64 -39t57 -39t51 -17.5q38 0 74.5 32t70.5 91l54 -23q-18 -41 -43 -81t-55.5 -72t-66.5 -52 t-75 -20q-35 0 -66.5 17.5t-61.5 39t-59.5 39t-58.5 17.5q-40 0 -73 -32.5t-70 -88.5z" />
<glyph unicode="&#x169;" horiz-adv-x="1085" d="M41 854v40q36 4 67.5 10t61 14t59.5 18.5t63 23.5l28 -39v-587q0 -70 10.5 -117t30 -75t48 -40t64.5 -12q32 0 65.5 9.5t69 30t74.5 53t83 79.5v449q0 45 -4.5 72t-19.5 42t-42.5 21t-73.5 8v40q72 9 138 28t122 38l30 -39v-667q0 -62 4.5 -101t18.5 -49q12 -8 41 -3.5 t80 26.5l10 -45l-71 -44q-34 -20 -63 -35.5t-51 -24t-34 -8.5q-35 0 -57 46.5t-28 149.5q-62 -62 -113.5 -100.5t-95 -59.5t-80 -28.5t-68.5 -7.5q-47 0 -90 13t-76 47.5t-52.5 94.5t-19.5 154v432q0 48 -3 74.5t-15.5 40t-38.5 18.5t-72 10zM204 1133q18 41 42.5 81.5 t55.5 72.5t66.5 52t74.5 20q38 0 72 -17.5t64 -39t57 -39t51 -17.5q38 0 74.5 32t70.5 91l54 -23q-18 -41 -43 -81t-55.5 -72t-66.5 -52t-75 -20q-35 0 -66.5 17.5t-61.5 39t-59.5 39t-58.5 17.5q-40 0 -73 -32.5t-70 -88.5z" />
<glyph unicode="&#x16a;" horiz-adv-x="1339" d="M50 1217v43h450v-43q-68 -14 -106.5 -31t-38.5 -31v-661q0 -96 22.5 -172t67 -128.5t109.5 -80.5t151 -28q71 0 126 34.5t92.5 90.5t57 127.5t19.5 145.5v672q0 12 -36.5 30t-108.5 32v43h420v-43q-68 -14 -106.5 -31t-38.5 -31v-631q0 -131 -32 -234t-92 -174 t-146 -108.5t-194 -37.5q-103 0 -189.5 28.5t-149 87t-97.5 147.5t-35 211v711q0 12 -36.5 30t-108.5 32zM349 1480q2 11 7 25t11 29l12 28l11 23h613l22 -24q-2 -11 -7 -25.5t-11 -29.5l-11 -28l-10 -23h-615z" />
<glyph unicode="&#x16b;" horiz-adv-x="1085" d="M41 854v40q36 4 67.5 10t61 14t59.5 18.5t63 23.5l28 -39v-587q0 -70 10.5 -117t30 -75t48 -40t64.5 -12q32 0 65.5 9.5t69 30t74.5 53t83 79.5v449q0 45 -4.5 72t-19.5 42t-42.5 21t-73.5 8v40q72 9 138 28t122 38l30 -39v-667q0 -62 4.5 -101t18.5 -49q12 -8 41 -3.5 t80 26.5l10 -45l-71 -44q-34 -20 -63 -35.5t-51 -24t-34 -8.5q-35 0 -57 46.5t-28 149.5q-62 -62 -113.5 -100.5t-95 -59.5t-80 -28.5t-68.5 -7.5q-47 0 -90 13t-76 47.5t-52.5 94.5t-19.5 154v432q0 48 -3 74.5t-15.5 40t-38.5 18.5t-72 10zM217 1200q2 11 7 25t11 29 l12 28l11 23h613l22 -24q-2 -11 -7 -25.5t-11 -29.5l-11 -28l-10 -23h-615z" />
<glyph unicode="&#x16c;" horiz-adv-x="1339" d="M50 1217v43h450v-43q-68 -14 -106.5 -31t-38.5 -31v-661q0 -96 22.5 -172t67 -128.5t109.5 -80.5t151 -28q71 0 126 34.5t92.5 90.5t57 127.5t19.5 145.5v672q0 12 -36.5 30t-108.5 32v43h420v-43q-68 -14 -106.5 -31t-38.5 -31v-631q0 -131 -32 -234t-92 -174 t-146 -108.5t-194 -37.5q-103 0 -189.5 28.5t-149 87t-97.5 147.5t-35 211v711q0 12 -36.5 30t-108.5 32zM352 1680q12 18 24 27.5t29 17.5q25 -57 57.5 -96t68.5 -62.5t73.5 -34t70.5 -10.5q35 0 73.5 10.5t75 34t69 62.5t56.5 96q17 -8 29 -17.5t24 -27.5 q-30 -81 -67.5 -136t-79 -89.5t-86.5 -49.5t-90 -15q-49 0 -95 15t-87.5 49.5t-78 89.5t-66.5 136z" />
<glyph unicode="&#x16d;" horiz-adv-x="1085" d="M41 854v40q36 4 67.5 10t61 14t59.5 18.5t63 23.5l28 -39v-587q0 -70 10.5 -117t30 -75t48 -40t64.5 -12q32 0 65.5 9.5t69 30t74.5 53t83 79.5v449q0 45 -4.5 72t-19.5 42t-42.5 21t-73.5 8v40q72 9 138 28t122 38l30 -39v-667q0 -62 4.5 -101t18.5 -49q12 -8 41 -3.5 t80 26.5l10 -45l-71 -44q-34 -20 -63 -35.5t-51 -24t-34 -8.5q-35 0 -57 46.5t-28 149.5q-62 -62 -113.5 -100.5t-95 -59.5t-80 -28.5t-68.5 -7.5q-47 0 -90 13t-76 47.5t-52.5 94.5t-19.5 154v432q0 48 -3 74.5t-15.5 40t-38.5 18.5t-72 10zM220 1360q12 18 24 27.5 t29 17.5q25 -57 57.5 -96t68.5 -62.5t73.5 -34t70.5 -10.5q35 0 73.5 10.5t75 34t69 62.5t56.5 96q17 -8 29 -17.5t24 -27.5q-30 -81 -67.5 -136t-79 -89.5t-86.5 -49.5t-90 -15q-49 0 -95 15t-87.5 49.5t-78 89.5t-66.5 136z" />
<glyph unicode="&#x16e;" horiz-adv-x="1339" d="M50 1217v43h450v-43q-68 -14 -106.5 -31t-38.5 -31v-661q0 -96 22.5 -172t67 -128.5t109.5 -80.5t151 -28q71 0 126 34.5t92.5 90.5t57 127.5t19.5 145.5v672q0 12 -36.5 30t-108.5 32v43h420v-43q-68 -14 -106.5 -31t-38.5 -31v-631q0 -131 -32 -234t-92 -174 t-146 -108.5t-194 -37.5q-103 0 -189.5 28.5t-149 87t-97.5 147.5t-35 211v711q0 12 -36.5 30t-108.5 32zM491 1524q0 51 19.5 94.5t50.5 75t69.5 49t77.5 17.5q32 0 60.5 -12.5t49.5 -34t33 -50t12 -59.5q0 -51 -19.5 -93.5t-51 -74t-70 -49t-76.5 -17.5q-34 0 -62.5 12 t-49 33t-32 49t-11.5 60zM581 1565q0 -23 6 -44.5t17 -38t27 -26.5t36 -10t39 7.5t34 22.5t24 36.5t9 50.5q0 24 -6 46t-17 38.5t-27 26.5t-36 10q-21 0 -40 -8.5t-33.5 -24t-23.5 -37.5t-9 -49z" />
<glyph unicode="&#x16f;" horiz-adv-x="1085" d="M41 854v40q36 4 67.5 10t61 14t59.5 18.5t63 23.5l28 -39v-587q0 -70 10.5 -117t30 -75t48 -40t64.5 -12q32 0 65.5 9.5t69 30t74.5 53t83 79.5v449q0 45 -4.5 72t-19.5 42t-42.5 21t-73.5 8v40q72 9 138 28t122 38l30 -39v-667q0 -62 4.5 -101t18.5 -49q12 -8 41 -3.5 t80 26.5l10 -45l-71 -44q-34 -20 -63 -35.5t-51 -24t-34 -8.5q-35 0 -57 46.5t-28 149.5q-62 -62 -113.5 -100.5t-95 -59.5t-80 -28.5t-68.5 -7.5q-47 0 -90 13t-76 47.5t-52.5 94.5t-19.5 154v432q0 48 -3 74.5t-15.5 40t-38.5 18.5t-72 10zM359 1204q0 51 19.5 94.5 t50.5 75t69.5 49t77.5 17.5q32 0 60.5 -12.5t49.5 -34t33 -50t12 -59.5q0 -51 -19.5 -93.5t-51 -74t-70 -49t-76.5 -17.5q-34 0 -62.5 12t-49 33t-32 49t-11.5 60zM449 1245q0 -23 6 -44.5t17 -38t27 -26.5t36 -10t39 7.5t34 22.5t24 36.5t9 50.5q0 24 -6 46t-17 38.5 t-27 26.5t-36 10q-21 0 -40 -8.5t-33.5 -24t-23.5 -37.5t-9 -49z" />
<glyph unicode="&#x170;" horiz-adv-x="1339" d="M50 1217v43h450v-43q-68 -14 -106.5 -31t-38.5 -31v-661q0 -96 22.5 -172t67 -128.5t109.5 -80.5t151 -28q71 0 126 34.5t92.5 90.5t57 127.5t19.5 145.5v672q0 12 -36.5 30t-108.5 32v43h420v-43q-68 -14 -106.5 -31t-38.5 -31v-631q0 -131 -32 -234t-92 -174 t-146 -108.5t-194 -37.5q-103 0 -189.5 28.5t-149 87t-97.5 147.5t-35 211v711q0 12 -36.5 30t-108.5 32zM457 1394l176 415q12 -2 28.5 -4.5t33.5 -6.5l32 -6q15 -4 25 -8l22 -41l-260 -376q-17 4 -27 9.5t-30 17.5zM748 1394l176 415l28 -5q16 -2 33 -6l32 -6q15 -4 26 -8 l22 -41l-260 -376q-19 4 -29 9.5t-28 17.5z" />
<glyph unicode="&#x171;" horiz-adv-x="1085" d="M41 854v40q36 4 67.5 10t61 14t59.5 18.5t63 23.5l28 -39v-587q0 -70 10.5 -117t30 -75t48 -40t64.5 -12q32 0 65.5 9.5t69 30t74.5 53t83 79.5v449q0 45 -4.5 72t-19.5 42t-42.5 21t-73.5 8v40q72 9 138 28t122 38l30 -39v-667q0 -62 4.5 -101t18.5 -49q12 -8 41 -3.5 t80 26.5l10 -45l-71 -44q-34 -20 -63 -35.5t-51 -24t-34 -8.5q-35 0 -57 46.5t-28 149.5q-62 -62 -113.5 -100.5t-95 -59.5t-80 -28.5t-68.5 -7.5q-47 0 -90 13t-76 47.5t-52.5 94.5t-19.5 154v432q0 48 -3 74.5t-15.5 40t-38.5 18.5t-72 10zM325 1074l176 415 q12 -2 28.5 -4.5t33.5 -6.5l32 -6q15 -4 25 -8l22 -41l-260 -376q-17 4 -27 9.5t-30 17.5zM616 1074l176 415l28 -5q16 -2 33 -6l32 -6q15 -4 26 -8l22 -41l-260 -376q-19 4 -29 9.5t-28 17.5z" />
<glyph unicode="&#x172;" horiz-adv-x="1339" d="M50 1217v43h450v-43q-68 -14 -106.5 -31t-38.5 -31v-661q0 -96 22.5 -172t67 -128.5t109.5 -80.5t151 -28q71 0 126 34.5t92.5 90.5t57 127.5t19.5 145.5v672q0 12 -36.5 30t-108.5 32v43h420v-43q-68 -14 -106.5 -31t-38.5 -31v-631q0 -131 -32 -234t-92 -174t-146 -109 q-16 -7 -33 -12q-41 -29 -70 -57q-44 -42 -68 -79t-32 -68t-8 -55q0 -37 24 -54.5t62 -17.5q25 0 61.5 18t78.5 56l24 -37q-21 -27 -49.5 -53t-58.5 -46.5t-60 -33t-55 -12.5q-29 0 -57 6t-50 22t-35.5 44t-13.5 73q0 90 78 176q45 48 112 95q-22 -2 -44 -2 q-103 0 -189.5 28.5t-149 87t-97.5 147.5t-35 211v711q0 12 -36.5 30t-108.5 32z" />
<glyph unicode="&#x173;" horiz-adv-x="1085" d="M41 854v40q36 4 67.5 10t61 14t59.5 18.5t63 23.5l28 -39v-587q0 -70 10.5 -117t30 -75t48 -40t64.5 -12q32 0 65.5 9.5t69 30t74.5 53t83 79.5v449q0 45 -4.5 72t-19.5 42t-42.5 21t-73.5 8v40q72 9 138 28t122 38l30 -39v-667q0 -62 4.5 -101t18.5 -49q12 -8 41 -3.5 t80 26.5l10 -45l-71 -45q-25 -15 -48 -27q-56 -37 -93 -72q-44 -42 -68 -79t-32 -68t-8 -55q0 -37 24 -54.5t62 -17.5q25 0 61.5 18t78.5 56l24 -37q-21 -27 -49.5 -53t-58.5 -46.5t-60 -33t-55 -12.5q-29 0 -57 6t-50 22t-35.5 44t-13.5 73q0 90 78 176q48 52 123 103 q-16 11 -28 36q-22 47 -28 150q-62 -62 -113.5 -100.5t-95 -59.5t-80 -28.5t-68.5 -7.5q-47 0 -90 13t-76 47.5t-52.5 94.5t-19.5 154v432q0 48 -3 74.5t-15.5 40t-38.5 18.5t-72 10z" />
<glyph unicode="&#x174;" horiz-adv-x="1741" d="M20 1217v43h429v-43q-49 -5 -77 -12.5t-42 -16.5t-16.5 -19.5t-0.5 -21.5l199 -897l324 1010h55l354 -1010l187 905q2 12 -9 21t-32 16t-50 13t-63 12v43h424v-43q-44 -9 -73 -17t-46 -15.5t-24.5 -14.5t-8.5 -15l-229 -1096q-5 -21 -21.5 -36.5t-37.5 -26t-43 -17 t-37 -9.5l-326 974l-287 -885q-7 -21 -24 -36t-38.5 -25.5t-45 -17t-43.5 -10.5l-260 1177q-5 25 -36 41t-102 29zM544 1412l264 309h107l262 -309q-12 -19 -19 -28t-24 -17l-274 208l-271 -208q-8 4 -13.5 8t-10 9t-9.5 12z" />
<glyph unicode="&#x175;" horiz-adv-x="1446" d="M20 887v43h386v-43q-49 -5 -76 -11.5t-39 -15t-12.5 -17.5t2.5 -18l188 -635l246 740h69l260 -740l173 635q6 23 -21 37t-96 25v43h325v-43q-31 -7 -49 -13.5t-28.5 -13t-15 -15t-7.5 -20.5l-221 -766q-6 -22 -23.5 -37.5t-38.5 -26t-41.5 -16.5t-33.5 -9l-238 678 l-205 -589q-8 -23 -24.5 -38.5t-36.5 -26t-39.5 -16t-32.5 -8.5l-262 855q-9 39 -109 62zM433 1092l264 379h107l262 -379q-12 -19 -19 -28t-24 -17l-274 268l-271 -268q-8 4 -13.5 8t-10 9t-9.5 12z" />
<glyph unicode="&#x176;" horiz-adv-x="1217" d="M0 1249q59 8 118 14.5t101 6.5q46 0 78 -39q37 -48 80 -113.5t86 -138.5t84 -150l76 -149l268 471q15 26 -9.5 41t-101.5 25v43h396v-43q-69 -13 -105.5 -26.5t-50.5 -39.5l-336 -610v-426q0 -6 8.5 -14.5t28 -18.5t51 -20t78.5 -19v-43h-490v43q91 19 127.5 38.5 t36.5 33.5v422q-37 81 -84 169t-96 171l-95 155q-46 71 -81 119q-9 11 -20.5 21t-29.5 17.5t-45 12t-69 4.5zM287 1412l264 309h107l262 -309q-12 -19 -19 -28t-24 -17l-274 208l-271 -208q-8 4 -13.5 8t-10 9t-9.5 12z" />
<glyph unicode="&#x177;" horiz-adv-x="1010" d="M-47 -447q0 6 12 24t30 39.5t38.5 41.5t36.5 30q48 -28 96 -30h11q41 0 73 12q18 6 42 28t48.5 54t48 72.5t41.5 83.5l29 69l-328 842q-9 28 -35 42.5t-76 25.5v43h386v-43q-39 -5 -63.5 -10t-38 -12.5t-15.5 -18.5t4 -27l246 -637l231 637q5 15 1.5 25.5t-17 18t-38 13 t-61.5 11.5v43h334v-43q-30 -7 -49 -13t-31 -13.5t-18.5 -17t-11.5 -24.5l-334 -901q-42 -111 -93.5 -190t-107 -129.5t-111.5 -74.5t-106 -24q-38 0 -70 5t-55 12.5t-36 17t-13 18.5zM213 1092l264 379h107l262 -379q-12 -19 -19 -28t-24 -17l-274 268l-271 -268 q-8 4 -13.5 8t-10 9t-9.5 12z" />
<glyph unicode="&#x178;" horiz-adv-x="1217" d="M0 1249q59 8 118 14.5t101 6.5q46 0 78 -39q37 -48 80 -113.5t86 -138.5t84 -150l76 -149l268 471q15 26 -9.5 41t-101.5 25v43h396v-43q-69 -13 -105.5 -26.5t-50.5 -39.5l-336 -610v-426q0 -6 8.5 -14.5t28 -18.5t51 -20t78.5 -19v-43h-490v43q91 19 127.5 38.5 t36.5 33.5v422q-37 81 -84 169t-96 171l-95 155q-46 71 -81 119q-9 11 -20.5 21t-29.5 17.5t-45 12t-69 4.5zM304 1500q0 28 9 53t25 43.5t36.5 29t44.5 10.5q85 0 85 -95q0 -28 -9 -53t-24.5 -43.5t-36.5 -29.5t-46 -11q-45 0 -64.5 25t-19.5 71zM704 1500q0 28 9 53 t25 43.5t36.5 29t44.5 10.5q85 0 85 -95q0 -28 -9 -53t-24.5 -43.5t-36.5 -29.5t-46 -11q-45 0 -64.5 25t-19.5 71z" />
<glyph unicode="&#x179;" horiz-adv-x="1071" d="M59 45l711 1115h-459q-16 0 -35 -11t-37 -35t-34 -61.5t-27 -89.5l-57 12l29 301q27 -6 49.5 -9.5t44 -5t44.5 -1.5h668l25 -43l-705 -1117h523q21 0 38 9.5t32.5 32.5t31.5 63t35 102l55 -14q-1 -32 -3 -71l-4 -78l-2 -78q-2 -38 -3 -66h-891zM378 1412l387 317l27 -15 l35 -20l33 -21t23 -18l9 -45l-469 -243q-17 7 -24.5 16.5t-20.5 28.5z" />
<glyph unicode="&#x17a;" horiz-adv-x="869" d="M76 45l555 795h-346q-16 0 -32.5 -6t-32 -22.5t-29 -46t-23.5 -75.5l-49 12l18 244q22 -6 40 -9.5t37.5 -5t42.5 -1.5h548l22 -43l-557 -797h422q25 0 46 38.5t44 129.5l47 -10q0 -32 -1 -68t-2.5 -70t-3.5 -63t-5 -47h-715zM380 1075l234 414q12 -1 31 -3l42 -6 q21 -3 41 -7t31 -7l23 -39l-345 -380q-18 3 -32 11t-25 17z" />
<glyph unicode="&#x17b;" horiz-adv-x="1071" d="M59 45l711 1115h-459q-16 0 -35 -11t-37 -35t-34 -61.5t-27 -89.5l-57 12l29 301q27 -6 49.5 -9.5t44 -5t44.5 -1.5h668l25 -43l-705 -1117h523q21 0 38 9.5t32.5 32.5t31.5 63t35 102l55 -14q-1 -32 -3 -71l-4 -78l-2 -78q-2 -38 -3 -66h-891zM455 1500q0 28 9 53 t25 43.5t36.5 29t44.5 10.5q85 0 85 -95q0 -28 -9 -53t-24.5 -43.5t-36.5 -29.5t-46 -11q-45 0 -64.5 25t-19.5 71z" />
<glyph unicode="&#x17c;" horiz-adv-x="869" d="M76 45l555 795h-346q-16 0 -32.5 -6t-32 -22.5t-29 -46t-23.5 -75.5l-49 12l18 244q22 -6 40 -9.5t37.5 -5t42.5 -1.5h548l22 -43l-557 -797h422q25 0 46 38.5t44 129.5l47 -10q0 -32 -1 -68t-2.5 -70t-3.5 -63t-5 -47h-715zM380 1220q0 28 9 53t25 43.5t36.5 29 t44.5 10.5q85 0 85 -95q0 -28 -9 -53t-24.5 -43.5t-36.5 -29.5t-46 -11q-45 0 -64.5 25t-19.5 71z" />
<glyph unicode="&#x17d;" horiz-adv-x="1071" d="M59 45l711 1115h-459q-16 0 -35 -11t-37 -35t-34 -61.5t-27 -89.5l-57 12l29 301q27 -6 49.5 -9.5t44 -5t44.5 -1.5h668l25 -43l-705 -1117h523q21 0 38 9.5t32.5 32.5t31.5 63t35 102l55 -14q-1 -32 -3 -71l-4 -78l-2 -78q-2 -38 -3 -66h-891zM238 1698l12 17 q5 7 9.5 12t10 9t13.5 9l275 -211l270 211q17 -9 24 -18t19 -29l-262 -307h-107z" />
<glyph unicode="&#x17e;" horiz-adv-x="869" d="M76 45l555 795h-346q-16 0 -32.5 -6t-32 -22.5t-29 -46t-23.5 -75.5l-49 12l18 244q22 -6 40 -9.5t37.5 -5t42.5 -1.5h548l22 -43l-557 -797h422q25 0 46 38.5t44 129.5l47 -10q0 -32 -1 -68t-2.5 -70t-3.5 -63t-5 -47h-715zM163 1428l12 17q5 7 9.5 12t10 9t13.5 9 l275 -251l270 251q17 -9 24 -18t19 -29l-262 -357h-107z" />
<glyph unicode="&#x17f;" horiz-adv-x="637" d="M60 0v43q69 12 104.5 29.5t35.5 29.5v859q0 118 16 198.5t43.5 136t63.5 93t76 69.5q27 22 59 39t63.5 29t60 18t47.5 6q31 0 64 -12t60.5 -27.5t45.5 -31.5t18 -25q0 -8 -14.5 -24t-34.5 -33t-41.5 -32t-36.5 -22q-24 21 -48.5 36.5t-47 25.5t-42 15t-32.5 5 q-26 0 -55.5 -17.5t-55 -63.5t-42.5 -125t-17 -203v-914q0 -6 10.5 -12t35.5 -12.5t64.5 -15t98.5 -19.5v-43h-499z" />
<glyph unicode="&#x180;" horiz-adv-x="1040" d="M-10 1162q5 16 9.5 34t12.5 34h128v66q0 46 -5 71t-19 37.5t-39.5 16.5t-66.5 9v40q66 16 126 32.5t117 47.5l10 -10q6 -6 12 -11l15 -13v-286h308l22 -25l-22 -65h-308v-413q50 60 99.5 104t95 72.5t84.5 42.5t68 14q68 0 125.5 -32t99 -92.5t65 -147.5t23.5 -196 q0 -58 -15 -119t-44 -119t-71 -110t-95.5 -90.5t-117.5 -61t-138 -22.5q-19 0 -52.5 8.5t-77 24.5t-94.5 39.5t-105 53.5v1044h-128zM290 203q40 -30 81.5 -50t79 -31.5t68 -16.5t48.5 -5q61 0 107 26.5t77.5 70t47.5 98.5t16 113q0 100 -20.5 177.5t-55 130.5t-79.5 81 t-93 28q-18 0 -47.5 -10.5t-66.5 -35t-79 -66t-84 -103.5v-407z" />
<glyph unicode="&#x181;" horiz-adv-x="1356" d="M30 1003q0 65 38.5 118t111 90.5t176 58t233.5 20.5q85 0 152.5 -4.5t121.5 -15t96 -27t78 -40.5q45 -30 71.5 -78t26.5 -105q0 -108 -51 -185.5t-139 -111.5q64 -12 119 -45t95.5 -81.5t63.5 -110t23 -130.5q0 -85 -33.5 -153.5t-94 -116.5t-144.5 -74t-185 -26 q-22 0 -52.5 0.5t-65.5 1.5l-72 2q-37 1 -72 3q-83 3 -174 7h-73v43q68 14 106.5 30.5t38.5 30.5v1095q-52 -7 -94.5 -20t-73 -33t-47 -47.5t-16.5 -62.5q0 -36 19 -64t50 -42q-3 -6 -18.5 -17t-37.5 -22t-46.5 -21t-45.5 -14q-37 16 -61 54t-24 93zM585 104q0 -8 9 -15 q17 -6 39 -9.5t45 -5.5t46 -3t43 -1q72 0 130 18.5t99.5 51.5t63.5 79.5t22 102.5q0 55 -19.5 113t-60 106t-103 78.5t-149.5 30.5q-48 0 -88.5 -4.5t-76.5 -10.5v-531zM585 725h34q114 0 184.5 22.5t109.5 57.5t53 79t14 87q0 49 -20 92.5t-56 72.5q-24 19 -52 32t-65 21.5 t-86 12t-116 4.5v-481z" />
<glyph unicode="&#x182;" horiz-adv-x="1126" d="M49 0v43q68 14 107 30.5t39 30.5v1051q0 12 -37 30t-109 32v43h868l31 -25q-2 -26 -7 -66t-12.5 -83.5t-16 -85.5t-15.5 -70h-48q-3 64 -7 109.5t-11.5 74.5t-19.5 42.5t-31 13.5h-425v-450q45 9 97 14.5t107 5.5q109 0 194.5 -28.5t143.5 -79.5t88.5 -121.5t30.5 -154.5 q0 -85 -33.5 -153.5t-94 -116.5t-144.5 -74t-185 -26q-22 0 -52.5 0.5t-65.5 1.5l-72 2q-37 1 -72 3q-83 3 -174 7h-74zM355 104q0 -9 8 -14q17 -6 39 -10t45.5 -6t46.5 -3t43 -1q72 0 130 18.5t99.5 51.5t63.5 79.5t22 102.5q0 55 -19.5 113t-60 106t-103 78.5t-149.5 30.5 q-48 0 -88.5 -4.5t-76.5 -10.5v-531z" />
<glyph unicode="&#x183;" horiz-adv-x="1040" d="M100 1450q49 16 85 34l75 36h547l31 -25q-2 -26 -7 -66t-12.5 -83.5t-16 -85.5t-15.5 -70h-48q-3 64 -7 109.5t-11.5 74.5t-19.5 42.5t-31 13.5h-390q7 -56 8.5 -115.5t1.5 -121.5v-466q50 60 99.5 104t95 72.5t84.5 42.5t68 14q68 0 125.5 -32t99 -92.5t65 -147.5 t23.5 -196q0 -58 -15 -119t-44 -119t-71 -110t-95.5 -90.5t-117.5 -61t-138 -22.5q-19 0 -52.5 8.5t-77 24.5t-94.5 39.5t-105 53.5v1051q0 58 -4.5 109.5t-11 92t-13.5 67t-11 34.5zM290 203q40 -30 81.5 -50t79 -31.5t68 -16.5t48.5 -5q61 0 107 26.5t77.5 70t47.5 98.5 t16 113q0 100 -20.5 177.5t-55 130.5t-79.5 81t-93 28q-18 0 -47.5 -10.5t-66.5 -35t-79 -66t-84 -103.5v-407z" />
<glyph unicode="&#x184;" horiz-adv-x="1126" d="M50 0v43q68 14 106.5 30.5t38.5 30.5v622q0 23 -7 47t-24 45.5t-44.5 39.5t-69.5 29v43q80 79 146.5 172.5t122.5 187.5l36 -30v-540q45 9 97 14.5t107 5.5q109 0 194.5 -28.5t143.5 -79.5t88.5 -121.5t30.5 -154.5q0 -85 -33.5 -153.5t-94 -116.5t-144.5 -74t-185 -26 q-22 0 -52.5 0.5t-65.5 1.5l-72 2q-37 1 -72 3q-83 3 -174 7h-73zM355 104q0 -8 9 -15q17 -6 39 -9.5t45 -5.5t46 -3t43 -1q72 0 130 18.5t99.5 51.5t63.5 79.5t22 102.5q0 55 -19.5 113t-60 106t-103 78.5t-149.5 30.5q-48 0 -88.5 -4.5t-76.5 -10.5v-531z" />
<glyph unicode="&#x185;" horiz-adv-x="1060" d="M10 1147v43q80 79 144 172.5t120 187.5l36 -30v-793q50 60 99.5 104t95 72.5t84.5 42.5t68 14q68 0 125.5 -32t99 -92.5t65 -147.5t23.5 -196q0 -58 -15 -119t-44 -119t-71 -110t-95.5 -90.5t-117.5 -61t-138 -22.5q-19 0 -52.5 8.5t-77 24.5t-94.5 39.5t-105 53.5v890 q0 23 -8 47t-25.5 45.5t-46 39.5t-70.5 29zM310 203q40 -30 81.5 -50t79 -31.5t68 -16.5t48.5 -5q61 0 107 26.5t77.5 70t47.5 98.5t16 113q0 100 -20.5 177.5t-55 130.5t-79.5 81t-93 28q-18 0 -47.5 -10.5t-66.5 -35t-79 -66t-84 -103.5v-407z" />
<glyph unicode="&#x186;" horiz-adv-x="1098" d="M61 274q0 42 13 81t47 77q22 12 47 22l48 20l47 18l40 14l23 -49q-29 -17 -46.5 -33.5t-27.5 -35t-13.5 -40t-3.5 -49.5q0 -36 18.5 -74t52.5 -69t82.5 -51t107.5 -20q70 0 136.5 28.5t117.5 93.5t82 171.5t31 262.5q0 133 -38.5 233t-99.5 167t-135 100.5t-146 33.5 q-27 0 -60.5 -6t-75 -21.5t-92 -42.5t-110.5 -69q-5 2 -10.5 8.5t-10.5 13.5t-9 13.5t-6 9.5q67 67 126 108t113 63.5t104 30t101 7.5q94 0 184.5 -41t161.5 -119.5t114.5 -192.5t43.5 -259q0 -158 -42.5 -288t-118.5 -223.5t-179.5 -145t-226.5 -51.5q-98 0 -171 28 t-122 72.5t-73 98.5t-24 105z" />
<glyph unicode="&#x187;" horiz-adv-x="1098" d="M70 586q0 160 48.5 290t131.5 222t193 142t233 50q52 0 97.5 -7.5t85.5 -20.5q7 39 18.5 71.5t28 61t39 53.5t51.5 50q51 45 106.5 68.5t94.5 23.5q43 0 79.5 -16.5t63 -38t41 -42.5t14.5 -30q0 -8 -14.5 -23.5t-34.5 -32t-41.5 -31t-36.5 -21.5q-21 34 -41.5 56 t-40 34.5t-36.5 17t-31 4.5q-63 0 -92 -67.5t-29 -208.5l1 -1q6 -5 -3 -20t-24.5 -34t-33.5 -38l-29 -31l-35 6q-51 47 -121 77t-161 30q-34 0 -74.5 -12.5t-81.5 -39.5t-79 -70.5t-67.5 -105.5t-47 -143.5t-17.5 -185.5q0 -133 38.5 -233t99 -166.5t135 -100t145.5 -33.5 q54 0 141 37t197 129q5 -2 10.5 -8.5t10.5 -13.5t9 -13.5t7 -9.5q-64 -68 -122.5 -114.5t-113 -74.5t-107 -40t-104.5 -12q-93 0 -182.5 42t-160.5 121t-114.5 193.5t-43.5 259.5z" />
<glyph unicode="&#x188;" horiz-adv-x="895" d="M80 444q0 108 39.5 202t108 163.5t161.5 110t201 40.5q43 0 85 -9v100q0 85 8.5 146.5t26.5 108t46 82.5t67 70q51 45 106.5 68.5t94.5 23.5q43 0 79.5 -16.5t63 -38t41 -42.5t14.5 -30q0 -8 -14.5 -23.5t-34.5 -32t-41.5 -31t-36.5 -21.5q-21 34 -41.5 55.5t-40 33.5 t-36.5 16.5t-31 4.5q-32 0 -54.5 -16t-37.5 -53t-22 -98t-7 -152v-225q0 -19 -5.5 -42t-14 -45.5t-18.5 -42.5t-19 -34l-37 10q-8 18 -26 39t-46.5 40t-68 31.5t-90.5 12.5q-53 0 -101.5 -23.5t-86 -70.5t-60 -117t-22.5 -164q0 -85 25.5 -154.5t68 -118.5t98 -75.5 t115.5 -26.5q28 0 52 2.5t52.5 15.5t66 39t93.5 74l39 -41q-65 -77 -114.5 -120.5t-91.5 -66t-82 -28t-87 -5.5q-73 0 -142.5 32.5t-123.5 93.5t-86.5 149t-32.5 199z" />
<glyph unicode="&#x189;" horiz-adv-x="1214" d="M27 640l11 32q5 17 11 33h146v483q-40 -5 -76 -10l-69 -10l-9 62q44 12 101.5 23t121.5 19.5t129.5 13t124.5 4.5q139 0 251 -41.5t190.5 -120.5t121 -193t42.5 -259q0 -125 -25.5 -223.5t-68.5 -174t-99.5 -128t-119.5 -86t-127.5 -49t-123.5 -15.5h-509v43 q68 14 106.5 30.5t38.5 30.5v511h-146zM355 154q0 -22 10 -36q14 -17 54 -25.5t118 -8.5q69 0 142.5 33.5t134.5 102t100 172.5t39 245q0 133 -33 238.5t-96.5 179t-157 112.5t-213.5 39q-50 0 -98 -3v-498h259l25 -23l-25 -67h-259v-461z" />
<glyph unicode="&#x18a;" horiz-adv-x="1444" d="M30 1003q0 76 46 130.5t129 89t198.5 51t254.5 16.5q81 0 145.5 -5t117 -15.5t95 -27t80.5 -40.5q71 -45 120 -103t79.5 -125t44 -142.5t13.5 -155.5q0 -125 -25.5 -223.5t-68.5 -174t-99.5 -128t-119.5 -86t-127.5 -49t-123.5 -15.5h-509v43q68 14 106.5 30.5t38.5 30.5 v1094q-119 -15 -175 -56.5t-56 -105.5q0 -36 19 -64t50 -42q-3 -6 -18.5 -17t-37.5 -22t-46.5 -21t-45.5 -14q-37 16 -61 54t-24 93zM585 154q0 -22 10 -36q14 -17 54 -25.5t118 -8.5q69 0 142.5 33.5t134.5 102t100 172.5t39 245q0 68 -10 134.5t-32 127t-56 113t-82 91.5 q-36 29 -74.5 48.5t-87 31.5t-111 17.5t-145.5 5.5v-1052z" />
<glyph unicode="&#x18b;" horiz-adv-x="1126" d="M110 346q0 77 30.5 148t88.5 126t143 87.5t195 32.5q55 0 107 -5.5t97 -14.5v450h-407q-15 0 -29 -16.5t-28.5 -47.5t-32.5 -77l-39 -104l-43 19q0 29 3 72.5t8 88.5t11 87t11 68h852v-43q-72 -14 -109 -32t-37 -30v-1051q0 -14 39 -30.5t107 -30.5v-43h-74 q-91 -4 -174 -7q-35 -2 -73 -3l-72 -2q-34 -1 -64.5 -1.5t-52.5 -0.5q-101 0 -185 21.5t-144.5 66t-94 112t-33.5 160.5zM274 372q0 -64 22 -119t63.5 -95.5t99.5 -64t130 -23.5q19 0 42 1t46.5 3t45.5 6t39 10q9 6 9 14v531q-37 6 -77 10.5t-88 4.5q-87 0 -150 -23 t-103.5 -61t-59.5 -88.5t-19 -105.5z" />
<glyph unicode="&#x18c;" horiz-adv-x="1065" d="M80 444q0 57 15.5 118t44.5 118t71 108t94 89.5t114 60.5t132 22q47 0 93.5 -11.5t100.5 -51.5v238q0 74 0.5 147.5t4.5 147.5h-378q-15 0 -29 -16.5t-28.5 -47.5t-32.5 -77l-39 -104l-43 19q0 29 3 72.5t8 88.5t11 87t11 68h455q57 0 107.5 7t88.5 13l31 -30 q-17 -85 -18.5 -173.5t-1.5 -174.5v-908q0 -35 1.5 -60t4.5 -42t7 -28t10 -18q9 -11 34.5 -6.5t85.5 27.5l13 -43q-46 -31 -81.5 -52.5t-62 -35t-45.5 -20t-33 -6.5q-33 0 -54 45t-28 154q-38 -46 -75.5 -83t-77 -62.5t-83.5 -39.5t-95 -14q-56 0 -115 32.5t-108.5 93.5 t-81 149t-31.5 199zM230 475q0 -85 24.5 -154.5t62.5 -118.5t83.5 -75.5t86.5 -26.5q34 0 67 14t65 36.5t63 51.5l63 59v469q-33 57 -93 88.5t-132 31.5q-64 0 -117 -23.5t-91.5 -70.5t-60 -117t-21.5 -164z" />
<glyph unicode="&#x18d;" horiz-adv-x="995" d="M80 474q0 61 17 121t46.5 114t70 100t88.5 79.5t101 52.5t107 19q102 0 178 -38.5t126.5 -103t75.5 -148t25 -172.5q0 -79 -18.5 -148t-52 -128t-81 -108t-104.5 -88q47 -26 88.5 -53t73 -60t49.5 -74t18 -93q0 -46 -22 -90.5t-58 -79t-82 -55.5t-95 -21 q-68 0 -121.5 6.5t-99.5 15t-88 15t-85 6.5q-13 0 -29 -3t-31.5 -8.5t-30.5 -12.5t-25 -14q-7 5 -11.5 13.5t-14.5 22.5q33 36 65 67t59.5 54t48 36t30.5 13q18 0 60 -19l93 -42q52 -22 106.5 -41t99.5 -19q18 0 37.5 8t35.5 22t26.5 34t10.5 44q0 49 -29.5 87t-78 71.5 t-109.5 65.5l-126 67q-65 36 -126.5 80t-110 101.5t-78 132t-29.5 171.5zM235 543q0 -101 29 -174t76.5 -127t107.5 -94t123 -74q94 63 141.5 157.5t47.5 211.5q0 75 -22.5 146t-63 125.5t-96.5 88t-122 33.5q-44 0 -84 -21.5t-70.5 -60t-48.5 -92.5t-18 -119z" />
<glyph unicode="&#x18e;" horiz-adv-x="1016" d="M65 25q1 25 7 67t14 85.5t16 82t14 57.5h45q2 -46 7 -87.5t13 -72.5t21 -49t31 -18h215q64 0 103.5 4t61.5 12.5t29 22.5t7 34v492h-210q-23 0 -50.5 -1.5t-54 -4.5t-50.5 -6.5t-40 -7.5l-26 28q8 14 19.5 30t24 31.5t25 28.5t23.5 21q15 -15 32.5 -22t40 -10t52.5 -3 h214v431h-243q-46 0 -78.5 -5t-57.5 -22.5t-45.5 -52t-41.5 -92.5l-43 18q7 86 20 150.5t21 93.5h773v-43q-68 -14 -106.5 -30.5t-38.5 -30.5v-1051q0 -12 36.5 -30t108.5 -32v-43h-856z" />
<glyph unicode="&#x18f;" horiz-adv-x="1122" d="M80 354q0 35 6.5 76t28.5 72q23 14 53 30l59 28q28 13 50 21.5t29 8.5h580q0 12 0.5 24.5t0.5 26.5q0 133 -38.5 233t-99.5 167t-135 100.5t-146 33.5q-27 0 -60.5 -6t-75 -21.5t-92 -42.5t-110.5 -69q-5 2 -10.5 8.5t-10.5 13.5t-9 13.5t-6 9.5q67 67 126 108t113 63.5 t104 30t101 7.5q94 0 184.5 -41t161.5 -119.5t114.5 -192.5t43.5 -259q0 -158 -39.5 -288t-111.5 -223.5t-172.5 -145t-223.5 -51.5q-98 0 -175 35t-130.5 90.5t-81.5 124t-28 134.5zM250 379q0 -54 23 -107t62.5 -94.5t92.5 -67t112 -25.5q62 0 118 21.5t101.5 70.5t77 128 t43.5 195h-560q-29 0 -49.5 -32.5t-20.5 -88.5z" />
<glyph unicode="&#x190;" horiz-adv-x="1042" d="M80 283q0 58 19.5 112.5t52.5 101t75.5 82t89.5 56.5q-96 34 -150 102.5t-54 167.5q0 87 48 165t138 132q65 40 136.5 64t152.5 24q108 0 199.5 -25t156.5 -79q-17 -34 -40.5 -63t-49.5 -58l-43 8q-32 27 -62 47t-63 33.5t-70 20t-81 6.5q-55 0 -106 -18.5t-90 -50.5 t-62.5 -76.5t-23.5 -96.5q0 -41 16 -80.5t58.5 -72t116 -54t187.5 -26.5v-75q-103 -7 -177 -35.5t-121.5 -69t-70 -88.5t-22.5 -93q0 -54 23.5 -99.5t64.5 -78.5t96 -52t119 -19q49 0 90 5.5t83 23t90.5 49.5t113.5 85l43 -45q-61 -68 -119 -114.5t-119 -75t-126.5 -41 t-141.5 -12.5q-92 0 -162.5 30t-118 76.5t-72 101.5t-24.5 105z" />
<glyph unicode="&#x191;" horiz-adv-x="979" d="M-245 -300q0 8 13 23t31 30t38 28.5t34 18.5q28 -18 49 -29.5t39 -17.5t34.5 -8t35.5 -2q25 0 54.5 16t54 56.5t41 110.5t16.5 178v1051q0 12 -36.5 30t-108.5 32v43h816l31 -25q-1 -26 -5 -57t-9.5 -62t-12 -59t-12.5 -47h-47q-2 46 -7.5 77t-16 49.5t-25 26t-33.5 7.5 h-374v-435h374l29 -28q-9 -14 -21 -30t-25 -31.5t-25.5 -28.5t-22.5 -21q-15 15 -32 25t-39.5 17t-53 10t-72.5 3h-112v-473q0 -110 -17 -185t-44.5 -127t-63.5 -87.5t-74 -66.5q-27 -21 -60 -38t-65.5 -29t-62 -18.5t-48.5 -6.5q-30 0 -60 9.5t-53 22t-37.5 26t-14.5 22.5z " />
<glyph unicode="&#x192;" horiz-adv-x="592" d="M-250 -431q0 8 14 24t34 33t41.5 32t36.5 22q20 -15 37 -24t33 -13.5t32.5 -6t35.5 -1.5q28 0 56.5 17.5t51.5 63.5t37.5 125.5t14.5 203.5v791h-133l-21 28l78 66h76v31q0 118 16.5 198.5t44 136t64 93t76.5 69.5q27 22 58.5 39t62.5 29t59 18t47 6q31 0 64.5 -12 t61.5 -27.5t46.5 -31.5t18.5 -25q0 -8 -14.5 -24t-34.5 -33t-41.5 -32t-36.5 -22q-25 21 -50 36.5t-47.5 26t-41.5 16t-31 5.5q-26 0 -56 -18t-55.5 -64t-42 -125.5t-16.5 -203.5v-86h258l28 -29q-9 -14 -22 -29.5t-27 -30t-27.5 -25.5t-23.5 -15q-23 12 -65.5 23.5 t-120.5 11.5v-738q0 -117 -16 -199t-43 -139.5t-63.5 -96.5t-76.5 -70q-28 -21 -58 -38.5t-58.5 -29.5t-54 -18.5t-44.5 -6.5q-30 0 -59 8t-52 19.5t-37 23t-14 18.5z" />
<glyph unicode="&#x193;" horiz-adv-x="1194" d="M70 582q0 166 52.5 297.5t143.5 223t212.5 139.5t258.5 48q35 0 78.5 -8t88.5 -23q7 39 18 72t28 61.5t39.5 54.5t51.5 51q51 45 106.5 68.5t94.5 23.5q43 0 79.5 -16.5t63 -38t41 -42.5t14.5 -30q0 -8 -14.5 -23.5t-34.5 -32t-41.5 -31t-36.5 -21.5q-21 34 -41.5 56 t-40 34.5t-36.5 17t-31 4.5q-63 0 -92 -67.5t-29 -210.5l-2 -1h1q7 -5 -2 -19.5t-25.5 -32.5t-36.5 -36l-32 -29l-33 6q-33 31 -68 51.5t-73.5 31.5t-81.5 15.5t-92 4.5q-25 0 -62.5 -11.5t-79 -37t-82.5 -67t-74.5 -102t-54 -141t-20.5 -184.5q0 -139 37 -242t97 -170.5 t135 -101t151 -33.5q73 0 134.5 14.5t110.5 41.5v339q0 11 -9.5 21.5t-33 20.5t-63 20t-100.5 20v43h461v-43q-57 -14 -81 -36.5t-24 -45.5v-325l-1 -1q-2 -2 -3 -2l4 -3q-74 -61 -132.5 -97t-107.5 -55.5t-93 -25.5t-89 -6q-101 0 -199 37.5t-175.5 114t-125.5 191 t-48 269.5z" />
<glyph unicode="&#x194;" horiz-adv-x="1230" d="M20 1217v43h391v-43q-39 -5 -60 -11.5t-27.5 -17.5t0 -28.5t22.5 -44.5l287 -482l287 480q18 30 24 48t-1.5 28.5t-29 16t-58.5 11.5v43h338v-43q-33 -6 -52.5 -11t-34 -15.5t-27 -28.5t-31.5 -49l-349 -589l16 -27q34 -56 56.5 -97.5t36 -74t19 -58.5t5.5 -52 q0 -41 -13.5 -84t-41.5 -79t-71 -59t-103 -23q-37 0 -72 14t-62.5 40.5t-44 64.5t-16.5 87q0 25 4.5 48.5t15 49t27 56t39.5 69.5l50 84l-378 632q-16 27 -29.5 45t-29 29.5t-36.5 18t-51 9.5zM528 199q0 -35 7.5 -58t19.5 -37.5t28 -20.5t33 -6q31 0 54.5 22.5t23.5 68.5 q0 16 -4.5 34.5t-14.5 43t-26.5 56.5t-41.5 76q-79 -124 -79 -179z" />
<glyph unicode="&#x195;" horiz-adv-x="1635" d="M55 0v43q66 17 103 30.5t37 30.5v1194q0 42 -3.5 65.5t-18 36.5t-42.5 18.5t-76 11.5v40q42 8 76.5 16t64 17.5t56.5 20.5t56 26l37 -34v-832q43 64 95.5 115t105.5 87t103.5 55t89.5 19q43 0 83 -13t70.5 -40t49 -68.5t18.5 -97.5v-399q0 -69 15 -117t40.5 -78 t58.5 -43.5t70 -13.5q73 0 122.5 32t80.5 84t44.5 116t13.5 129q0 77 -14.5 149t-45.5 128.5t-78.5 91t-114.5 36.5l-16 41q16 7 42 16t54 17l54 17l44 13q43 -14 83.5 -50t72 -93t50.5 -135t19 -178q0 -70 -17.5 -136.5t-49 -126t-75 -109t-94.5 -86t-107.5 -56.5 t-114.5 -20q-57 0 -109 14.5t-91.5 51t-63 98t-23.5 155.5v344q0 61 -7.5 99t-23.5 60t-40 30t-57 8q-35 0 -75.5 -18t-84.5 -53t-89 -87.5t-88 -122.5v-445q0 -15 37.5 -31t102.5 -30v-43h-430z" />
<glyph unicode="&#x196;" horiz-adv-x="713" d="M50 1160v43q85 17 163.5 35.5t144.5 51.5h37v-875q0 -90 3 -146.5t11 -87.5t22 -42t36 -11q7 0 21 3t36.5 12.5t55 28t75.5 49.5l18 -43q-68 -65 -115.5 -105.5t-82.5 -63t-62 -31t-53 -8.5q-63 0 -94 75.5t-31 235.5v654q0 69 -2 110t-18.5 64.5t-54.5 34t-110 16.5z " />
<glyph unicode="&#x197;" horiz-adv-x="610" d="M48 639l10 33l12 33h145v450q0 12 -36.5 30t-108.5 32v43h450v-43q-68 -14 -106.5 -31t-38.5 -31v-450h145l25 -23l-25 -67h-145v-511q0 -12 36.5 -29.5t108.5 -31.5v-43h-450v43q68 14 106.5 30.5t38.5 30.5v511h-145z" />
<glyph unicode="&#x198;" horiz-adv-x="1263" d="M50 0v43q68 14 106.5 30.5t38.5 30.5v1051q0 12 -36.5 30t-108.5 32v43h450v-43q-68 -14 -106.5 -31t-38.5 -31v-508l362 456q128 167 283 167q47 0 89 -12.5t74 -39.5t51 -69.5t19 -102.5q0 -46 -12 -103q-3 -8 -22.5 -20.5t-46.5 -25t-56.5 -24t-53.5 -17.5l-18 29 q19 43 27 78t7 64q-2 61 -29.5 92.5t-69.5 31.5t-83 -33t-78 -87l6 11l-304 -369l485 -546q18 -20 38.5 -31t44 -15.5t48.5 -4t51 3.5l7 -43q-59 -19 -118.5 -35t-107.5 -16q-29 0 -51.5 9t-42.5 34l-499 610v-535q0 -12 36 -29.5t109 -31.5v-43h-450z" />
<glyph unicode="&#x199;" horiz-adv-x="1024" d="M55 0v43q66 17 103 30t37 31v792q1 120 18.5 206.5t48.5 151.5t75 113t99 92q29 23 63 40t66.5 28.5t62 17t49.5 5.5q41 0 82.5 -16.5t74.5 -38.5t54 -43.5t21 -30.5q0 -8 -14.5 -23.5t-34.5 -33t-41.5 -32.5t-36.5 -21q-46 52 -99.5 83t-115.5 31q-32 0 -70.5 -23 t-72.5 -79t-56.5 -150t-22.5 -237v-406l308 269q33 29 40 46.5t-2.5 26.5t-32 12t-48.5 3v43h379v-43q-44 -5 -81 -16.5t-79 -45.5l-341 -273l376 -441q14 -16 29 -26.5t33 -16.5t40.5 -7.5t51.5 0.5l6 -43q-29 -7 -57.5 -12t-53 -8.5t-44 -5.5t-29.5 -2q-42 0 -67.5 12 t-47.5 41l-380 479v-418q0 -8 3.5 -14t14.5 -12.5t33 -14.5t59 -20v-43h-400z" />
<glyph unicode="&#x19a;" horiz-adv-x="654" d="M70 762q5 16 9.5 34t12.5 34h160v466q0 45 -6 70t-22 37.5t-43 17t-69 9.5v40q72 14 132 31t122 49l36 -34v-686h160l22 -25l-22 -65h-160v-636q0 -15 34 -31t116 -30v-43h-450v43q43 7 72 14.5t46 15t24.5 15.5t7.5 16v636h-160z" />
<glyph unicode="&#x19b;" horiz-adv-x="1083" d="M20 2q52 66 103 143t98.5 159.5t91.5 167.5t81.5 168t68 160.5t52.5 145.5l-21 70l-21 61l-268 -193l-29 25q2 13 3 20.5t3 16t5.5 20.5t11.5 33l241 172q-23 57 -42 92.5t-36.5 54.5t-34 25.5t-33.5 6.5q-35 0 -71.5 -16.5t-85.5 -54.5l-24 51q50 51 90.5 85.5t73 55.5 t58 30t46.5 9q24 0 44 -7.5t40.5 -34t43 -77t51.5 -135.5l267 191l28 -24q-3 -17 -4.5 -26.5t-3.5 -17.5t-5.5 -18t-10.5 -27l-241 -173l50 -172l62 -221l76 -271q36 -123 69 -211t63 -137t58 -49q12 0 22 1.5t22.5 5.5t29.5 11l41 19l10 -45q-75 -57 -123.5 -89.5 t-82.5 -32.5q-27 0 -48.5 12.5t-42 44t-41.5 87t-47.5 141t-59.5 205.5l-76 283l-5 16l-86 -171q-42 -83 -82 -171t-77.5 -184t-72.5 -207l-47 -12l-54 -16l-54 -16l-44 -12z" />
<glyph unicode="&#x19c;" horiz-adv-x="1962" d="M50 1217v43h450v-43q-76 -17 -110.5 -32.5t-34.5 -29.5v-726q0 -94 10.5 -155.5t31.5 -98t51.5 -51t70.5 -14.5t86.5 23.5t96 68t101 109.5t102.5 148v696q0 14 -39 31t-106 31v43h450v-43q-72 -15 -108.5 -31.5t-36.5 -30.5v-736q0 -83 10 -141.5t30 -95.5t50.5 -54.5 t71.5 -17.5q84 0 179 89.5t209 259.5v696q0 14 -38 31t-107 31v43h450v-43q-72 -15 -108.5 -31.5t-36.5 -30.5v-921q0 -44 5 -70t20.5 -40t44 -20t75.5 -11v-43l-86 -18q-34 -8 -62.5 -16.5t-56 -19t-63.5 -26.5l-37 36v288q-60 -89 -118.5 -150.5t-113.5 -100t-105.5 -56 t-95.5 -17.5q-79 0 -130 28.5t-81.5 74.5t-43.5 104t-16 116q-56 -84 -114.5 -145t-114.5 -100.5t-109 -58.5t-99 -19q-64 0 -115.5 20t-88 63t-56 110t-19.5 161v831q0 14 -36 30.5t-109 31.5z" />
<glyph unicode="&#x19d;" horiz-adv-x="1329" d="M-245 -300q0 8 13 23t31 30t38 28.5t34 18.5q28 -18 49 -29.5t39 -17.5t34.5 -8t35.5 -2q26 0 55.5 17t54 60.5t40.5 119.5t16 193v1016q-34 31 -70 46t-75 22v43h212q15 0 24.5 -2.5t19 -10.5t21.5 -23l31 -42l657 -906v879q0 12 -32.5 31.5t-112.5 30.5v43h410v-43 q-72 -10 -108.5 -29t-36.5 -33v-1185q-50 6 -78.5 20t-40.5 31l-701 972v-788q0 -119 -10 -198.5t-30.5 -134.5t-50 -91.5t-68.5 -68.5q-27 -21 -60 -38t-65.5 -29t-62 -18.5t-48.5 -6.5q-30 0 -60 9.5t-53 22t-37.5 26t-14.5 22.5z" />
<glyph unicode="&#x19e;" horiz-adv-x="1120" d="M55 0v43q66 17 103 30.5t37 30.5v607q0 39 -3 62t-16.5 36t-41.5 19t-79 12v40q68 11 126 31.5t114 48.5l35 -35l11 -249q44 67 97 119.5t107 89t104.5 56t89.5 19.5q43 0 83 -13t70.5 -40t49 -68.5t18.5 -97.5v-1117q0 -14 30.5 -27.5t109.5 -33.5v-43h-430v43 q72 19 106 33t34 28v1009q0 61 -7 99t-22 60t-39.5 30t-59.5 8q-31 0 -69 -15t-81.5 -48t-91 -86.5t-95.5 -131.5v-445q0 -15 37.5 -31t102.5 -30v-43h-430z" />
<glyph unicode="&#x19f;" horiz-adv-x="1229" d="M70 612q0 136 44 259t120 216t178.5 148t220.5 55q124 0 218 -54.5t158 -144.5t96.5 -206t32.5 -238q0 -136 -45 -258.5t-122.5 -215.5t-179.5 -148t-216 -55q-120 0 -214 53t-158.5 142t-98.5 205t-34 242zM225 615q4 -108 35.5 -203.5t83 -167t118.5 -113t142 -41.5 q82 0 150.5 33.5t118.5 100t78.5 164.5t30.5 227h-757zM227 705h752q-9 93 -40 178t-79.5 150t-113.5 103.5t-142 38.5q-83 0 -150 -33t-115 -94t-77 -148t-35 -195z" />
<glyph unicode="&#x1a0;" horiz-adv-x="1229" d="M70 612q0 136 44 259t120 216t178.5 148t220.5 55q124 0 218 -55q47 -27 87 -64q2 2 5 4q38 24 62.5 48.5t36 47t11.5 40.5q0 29 -15 55t-43 49l178 80q23 -22 37.5 -48t14.5 -55t-17 -68.5t-58 -83.5t-110 -89q-24 -16 -54 -31q12 -14 23 -29q64 -90 96.5 -206 t32.5 -238q0 -136 -45 -258.5t-122.5 -215.5t-179.5 -148t-216 -55q-120 0 -214 53t-158.5 142t-98.5 205t-34 242zM225 641q0 -112 30.5 -212t82 -175.5t120.5 -119.5t146 -44q83 0 152.5 34.5t120 102.5t78.5 169t28 233q0 69 -12.5 136.5t-35.5 128t-56.5 112t-75.5 89 t-92 59t-107 21.5q-89 0 -159.5 -37.5t-119 -107t-74.5 -168.5t-26 -221z" />
<glyph unicode="&#x1a1;" horiz-adv-x="1100" d="M80 444q0 66 16.5 130t46 121.5t71 106t92 83.5t109 55t120.5 20q94 0 170.5 -36t130.5 -100q5 -5 10 -11l20 12q38 24 62.5 48.5t36 47t11.5 40.5q0 29 -15 55t-43 49l178 80q23 -22 37.5 -48t14.5 -55t-17 -68.5t-58 -83.5t-110 -89q-35 -23 -80 -44q22 -39 37 -83 q30 -87 30 -189q0 -67 -17 -131t-47 -121t-72 -105.5t-92.5 -83.5t-107.5 -54.5t-118 -19.5q-95 0 -171.5 36t-131 99t-84 150t-29.5 189zM235 473q0 -79 28 -150.5t70.5 -125.5t93.5 -85.5t97 -31.5q71 0 122 26.5t84 75.5t49 118t16 155q0 79 -26 150.5t-67 126t-93 86.5 t-103 32q-76 0 -128 -29t-83.5 -79.5t-45.5 -119.5t-14 -149z" />
<glyph unicode="&#x1a2;" horiz-adv-x="1854" d="M70 612q0 136 44 259t120 216t178.5 148t220.5 55q121 0 214 -52t157 -140q99 104 192 148t180 44q43 0 89.5 -13t85.5 -47.5t64 -94.5t25 -154v-1227q0 -12 36.5 -29.5t108.5 -31.5v-43h-450v43q68 14 106.5 30.5t38.5 30.5v1118q0 82 -12.5 135.5t-35.5 85t-54.5 44.5 t-68.5 13q-26 0 -53 -4.5t-57.5 -19.5t-65 -43t-76.5 -74q40 -81 60.5 -173t20.5 -189q0 -136 -45 -258.5t-122.5 -215.5t-179.5 -148t-216 -55q-120 0 -214 53t-158.5 142t-98.5 205t-34 242zM225 641q0 -112 30.5 -212t82 -175.5t120.5 -119.5t146 -44q83 0 152.5 34.5 t120 102.5t78.5 169t28 233q0 69 -12.5 136.5t-35.5 128t-56.5 112t-75.5 89t-92 59t-107 21.5q-89 0 -159.5 -37.5t-119 -107t-74.5 -168.5t-26 -221z" />
<glyph unicode="&#x1a3;" horiz-adv-x="1540" d="M80 444q0 66 16.5 130t46 121.5t71 106t92 83.5t109 55t120.5 20q109 0 194 -47.5t139 -130.5q75 88 151.5 133t139.5 45q43 0 83 -13t70.5 -40t49 -68.5t18.5 -97.5v-1117q0 -14 30.5 -27.5t109.5 -33.5v-43h-430v43q72 19 106 33t34 28v1009q0 61 -7 99t-22 60 t-39.5 30t-59.5 8q-44 0 -91 -26.5t-104 -94.5q43 -101 43 -224q0 -67 -17 -131t-47 -121t-72 -105.5t-92.5 -83.5t-107.5 -54.5t-118 -19.5q-95 0 -171.5 36t-131 99t-84 150t-29.5 189zM235 473q0 -79 28 -150.5t70.5 -125.5t93.5 -85.5t97 -31.5q71 0 122 26.5t84 75.5 t49 118t16 155q0 79 -26 150.5t-67 126t-93 86.5t-103 32q-76 0 -128 -29t-83.5 -79.5t-45.5 -119.5t-14 -149z" />
<glyph unicode="&#x1a4;" horiz-adv-x="1301" d="M30 1003q0 65 36.5 118t110.5 90.5t187 58t265 20.5q70 0 120 -2t87 -6t64 -9t52 -12q61 -17 109 -45t81.5 -68.5t51.5 -93t18 -118.5q0 -69 -19.5 -126t-52 -101.5t-74.5 -77t-87.5 -54t-91 -32t-84.5 -10.5q-94 0 -161 30l-23 75q42 -19 80.5 -24.5t73.5 -5.5 q46 0 96 18t92 54t69 89t27 124q0 106 -48.5 177.5t-132.5 99.5q-29 9 -53.5 15.5t-55.5 10.5t-74 6t-108 2v-1102q0 -6 8 -13t27.5 -15t53.5 -16t86 -17v-43h-480v43q68 14 106.5 30.5t38.5 30.5v1093q-118 -15 -174.5 -56t-56.5 -105q0 -36 19 -64t50 -42q-3 -6 -18.5 -17 t-37.5 -22t-46.5 -21t-45.5 -14q-37 16 -61 54t-24 93z" />
<glyph unicode="&#x1a5;" horiz-adv-x="1040" d="M0 -437q66 16 103 30.5t37 31.5v1273q1 119 18.5 205.5t49 151t75 113t96.5 90.5q27 22 60.5 39t67 29t63 18t48.5 6q45 0 87.5 -16.5t75.5 -38.5t53 -43.5t20 -30.5q0 -8 -14.5 -24t-34.5 -32.5t-41.5 -31.5t-36.5 -22q-42 52 -99 83t-116 31q-32 0 -71 -23t-72.5 -79 t-56 -150t-22.5 -237v-202q50 60 99.5 103t94.5 70t83.5 40t67.5 13q68 0 126 -32t100 -92.5t65.5 -147.5t23.5 -196q0 -58 -15 -119t-41 -119t-62 -110t-78.5 -90.5t-89.5 -61t-96 -22.5q-59 0 -133 33t-145 95v-473q0 -16 37.5 -32t131.5 -30v-43h-459v43zM290 213 q45 -34 83.5 -56t72 -34.5t63.5 -17.5t57 -5q54 0 99.5 21t78.5 62t52 102t19 141q0 87 -20.5 162t-54.5 130t-79 86t-93 31q-18 0 -47 -11t-66 -37t-79 -69.5t-86 -107.5v-397z" />
<glyph unicode="&#x1a6;" horiz-adv-x="1123" d="M50 0v43q68 14 106.5 30.5t38.5 30.5v1051q0 12 -36.5 30t-108.5 32v43h450v-43q-68 -14 -106.5 -31t-38.5 -31v-140q26 2 54.5 3.5t59.5 1.5q131 0 222 -22.5t147.5 -59.5t82 -84.5t25.5 -96.5q0 -65 -23 -118t-65 -94t-101.5 -69t-132.5 -43l358 -527q15 -21 32.5 -34 t39 -19.5t48 -7.5t60.5 2l11 -43q-66 -22 -125.5 -36.5t-98.5 -14.5q-29 0 -56.5 16.5t-41.5 38.5l-368 610h-22q-26 0 -52 2.5t-54 8.5v-325q0 -12 36.5 -29.5t108.5 -31.5v-43h-450zM355 511q27 -5 47 -6t42 -1q180 0 265 60t83 162q-1 38 -18 75.5t-58.5 67.5 t-110.5 48.5t-173 18.5q-20 0 -38.5 -0.5t-38.5 -1.5v-423z" />
<glyph unicode="&#x1a7;" horiz-adv-x="975" d="M115 337q0 85 27 149t71.5 113t101 85.5t115.5 67.5l116 57q57 27 101.5 57t71.5 65.5t27 82.5q0 28 -12.5 58.5t-38.5 56t-66.5 41.5t-95.5 16q-47 0 -87.5 -12t-73 -32.5t-55.5 -49t-36 -61.5l-36 -6q-12 11 -27 34t-26.5 47.5t-16.5 45t2 26.5q18 20 57.5 40t89 36 t102.5 26t98 10q110 0 178 -28t106 -71.5t51.5 -95t13.5 -98.5q0 -80 -27 -138t-71 -101.5t-100 -75.5t-115 -60l-114 -55q-56 -27 -100 -61t-71 -77.5t-27 -104.5q0 -51 21.5 -94t57.5 -74t82 -48.5t95 -17.5q51 0 99.5 17t90.5 49t76.5 78t57.5 105l41 5q7 -27 10.5 -69 t3.5 -82.5t-3.5 -70.5t-10.5 -34q-35 -23 -78 -44t-91.5 -37.5t-101.5 -26.5t-108 -10q-98 0 -169 32.5t-116.5 84.5t-67.5 117.5t-22 132.5z" />
<glyph unicode="&#x1a8;" horiz-adv-x="791" d="M88 243q0 63 22 112t57 87t78.5 66.5t87.5 50.5l81 43q40 20 71 42.5t50 48t19 57.5q0 24 -9.5 46t-28 38.5t-44.5 26t-59 9.5q-87 0 -138.5 -40.5t-66.5 -128.5l-39 -8q-6 8 -16.5 33.5t-18.5 54t-12 52.5t2 30q20 18 56.5 35t78.5 31t84 22.5t74 8.5q57 0 105.5 -12.5 t84.5 -40t56.5 -71.5t20.5 -106q0 -59 -18.5 -102t-49 -76t-69.5 -57.5t-81 -45.5l-90 -47q-45 -22 -80 -47.5t-56.5 -56.5t-21.5 -71q0 -35 12 -64t34 -49.5t52 -32t66 -11.5q52 0 96.5 19t78 50t53.5 71t22 82l43 11q7 -23 11.5 -62t6 -77.5t-1 -68t-9.5 -32.5 q-33 -22 -71 -39.5t-77.5 -29.5t-78 -18t-73.5 -6q-56 0 -109 15.5t-94 48.5t-66 85t-25 124z" />
<glyph unicode="&#x1a9;" horiz-adv-x="1064" d="M59 43l437 592l-416 582v43h674q56 0 104.5 2t108.5 14l4 -301l-56 -12q-18 74 -36 114t-35 58.5t-33 21.5t-31 3h-469l342 -486l-397 -534h552q31 0 51.5 9.5t35.5 33.5t29 66t32 108l53 -12q-2 -40 -5.5 -89t-7.5 -97l-8 -90l-5 -69h-893z" />
<glyph unicode="&#x1aa;" horiz-adv-x="706" d="M30 1282q0 44 23.5 91.5t64.5 86.5t97 64.5t122 25.5q61 0 105 -29t72.5 -77t42 -110t13.5 -127q0 -152 -7 -309.5t-15.5 -310.5t-15.5 -297t-7 -269q0 -120 12 -201.5t34.5 -131.5t54 -71.5t71.5 -21.5q29 0 52.5 14t37.5 35t16.5 46t-10.5 46q-3 4 17 16.5t48 24.5 t57 20.5t44 6.5l19 -39q3 -38 -24.5 -84t-75.5 -86.5t-112 -67.5t-133 -27q-68 0 -118.5 32t-83.5 91.5t-49.5 144.5t-16.5 192q0 148 7 302.5t15.5 306.5t15.5 298.5t7 278.5q0 10 -0.5 19.5t-0.5 19.5q-45 -49 -95 -71t-101 -22q-43 0 -77 14.5t-57.5 40t-36 60.5 t-12.5 75zM155 1334q0 -27 9.5 -49.5t25.5 -38t36.5 -24.5t42.5 -9q23 0 42.5 7.5t35.5 18.5t29 25t22 27q-30 164 -135 164q-22 0 -41.5 -10t-34.5 -27t-23.5 -39t-8.5 -45z" />
<glyph unicode="&#x1ab;" horiz-adv-x="705" d="M20 863l78 67h72v246l119 104l31 -25v-325h327l29 -29q-9 -14 -22.5 -30t-27.5 -30t-27.5 -25.5t-23.5 -15.5q-24 12 -73 23.5t-130 11.5h-52v-528q0 -60 5.5 -100t18.5 -63.5t33.5 -33.5t50.5 -10q35 0 88 14t131 54l29 -51v-284q0 -107 -23.5 -172.5t-59.5 -101 t-79 -47.5t-81 -12q-43 0 -80.5 17.5t-64 46.5t-40.5 68t-9 81q9 10 25.5 24t36 27t39.5 24.5t36 17.5q4 -5 11 -12t12 -15q-17 -45 -14 -79.5t17.5 -57.5t35.5 -35t41 -12q25 0 44.5 9.5t33.5 33.5t21.5 64.5t7.5 101.5v253q-74 -43 -137.5 -65t-104.5 -22q-35 0 -66.5 13 t-55.5 42.5t-38 77.5t-14 118v614h-129z" />
<glyph unicode="&#x1ac;" horiz-adv-x="1219" d="M30 1003q0 65 26.5 113.5t72 80.5t105 47.5t125.5 15.5h785l30 -25q-2 -51 -10 -111.5t-20 -123.5h-45l-17 74q-7 32 -16.5 53.5t-23.5 32t-36 10.5h-284v-1055q0 -13 36 -33t128 -39v-43h-488v43q46 9 77.5 19t50.5 19.5t27.5 18t8.5 15.5v1055h-169q-41 0 -77 -5.5 t-63 -20.5t-43 -41t-16 -67q0 -36 19 -64t50 -42q-3 -6 -18.5 -17t-37.5 -22t-46.5 -21t-45.5 -14q-37 16 -61 54t-24 93z" />
<glyph unicode="&#x1ad;" horiz-adv-x="705" d="M20 862l78 68h72v126q0 84 8.5 144.5t26.5 106.5t46 81.5t67 69.5q51 45 106.5 68.5t94.5 23.5q43 0 79.5 -16.5t63 -38t41 -42.5t14.5 -30q0 -8 -14.5 -23.5t-34.5 -32t-41.5 -31t-36.5 -21.5q-21 34 -41.5 55.5t-40 33.5t-36.5 16.5t-31 4.5q-30 0 -52.5 -14.5 t-37.5 -48.5t-22.5 -89.5t-8.5 -137.5v-205h327l29 -29q-9 -14 -22.5 -30t-27.5 -30.5t-27.5 -26t-23.5 -15.5q-24 12 -73 23.5t-130 11.5h-52v-527q0 -60 5.5 -100t18.5 -63.5t33.5 -33.5t50.5 -10q35 0 88 14t131 54l29 -51q-49 -36 -97 -63.5t-91.5 -46t-80.5 -28 t-63 -9.5q-35 0 -66.5 13t-55.5 42.5t-38 77.5t-14 118v613h-129z" />
<glyph unicode="&#x1ae;" horiz-adv-x="1128" d="M9 1014q5 59 13.5 126t19.5 120h1010l30 -25q-2 -51 -10 -111.5t-20 -123.5h-45l-17 74q-7 32 -16.5 53.5t-23.5 32t-36 10.5h-284v-1156q0 -84 11 -141t31.5 -92t49.5 -50.5t65 -15.5q29 0 54.5 14t41 35t19.5 46t-9 46q-3 4 17 16.5t48 24.5t57 20.5t44 6.5l19 -39 q3 -38 -26 -84t-80 -86.5t-118.5 -67.5t-140.5 -27q-122 0 -182.5 82t-60.5 251v1217h-299q-15 0 -27.5 -5.5t-25 -23.5t-28.5 -53t-38 -93z" />
<glyph unicode="&#x1af;" horiz-adv-x="1400" d="M50 1217v43h450v-43q-68 -14 -106.5 -31t-38.5 -31v-661q0 -96 22.5 -172t67 -128.5t109.5 -80.5t151 -28q71 0 126 34.5t92.5 90.5t57 127.5t19.5 145.5v672q0 12 -36.5 30t-108.5 32v43h360q4 5 6 10q12 23 12 41q0 29 -15 55t-43 49l178 80q23 -22 37.5 -48t14.5 -55 t-17 -68.5t-58 -83.5t-110 -89q-39 -25 -90 -49v-578q0 -131 -32 -234t-92 -174t-146 -108.5t-194 -37.5q-103 0 -189.5 28.5t-149 87t-97.5 147.5t-35 211v711q0 12 -36.5 30t-108.5 32z" />
<glyph unicode="&#x1b0;" horiz-adv-x="1255" d="M41 854v40q36 4 67.5 10t61 14t59.5 18.5t63 23.5l28 -39v-587q0 -70 10.5 -117t30 -75t48 -40t64.5 -12q32 0 65.5 9.5t69 30t74.5 53t83 79.5v449q0 45 -4.5 72t-19.5 42t-42.5 21t-73.5 8v40q72 9 138 28t122 38l30 -39v-129q35 15 63 33q38 24 62.5 48.5t36 47 t11.5 40.5q0 29 -15 55t-43 49l178 80q23 -22 37.5 -48t14.5 -55t-17 -68.5t-58 -83.5t-110 -89q-64 -42 -160 -79v-468q0 -62 4.5 -101t18.5 -49q12 -8 41 -3.5t80 26.5l10 -45l-71 -44q-34 -21 -63 -36t-51 -23.5t-34 -8.5q-35 0 -57 46.5t-28 149.5 q-62 -62 -113.5 -100.5t-95 -59.5t-80 -28.5t-68.5 -7.5q-47 0 -90 13t-76 47.5t-52.5 94.5t-19.5 154v432q0 48 -3 74.5t-15.5 40t-38.5 18.5t-72 10z" />
<glyph unicode="&#x1b1;" horiz-adv-x="1302" d="M70 1217v43h436l24 -59q-75 -47 -127 -107t-85 -133t-48 -159.5t-15 -186.5q0 -108 31.5 -204t85.5 -167t126 -112.5t153 -41.5q82 0 149.5 39t114.5 107.5t73 160.5t26 198q0 101 -17 194t-50 172t-81.5 140.5t-112.5 99.5l27 59h432v-43q-74 -13 -128 -30 q-23 -7 -43.5 -15.5t-33.5 -18.5t-17 -20.5t7 -21.5q37 -41 68.5 -92.5t54.5 -113t36 -132.5t13 -150q0 -73 -17.5 -150t-50.5 -149.5t-80.5 -136.5t-108 -112.5t-133 -76.5t-154.5 -28q-116 0 -212.5 46.5t-166 128t-108 192.5t-38.5 239q0 83 14 160t38.5 145.5t58 126.5 t72.5 103q10 12 6.5 22.5t-16.5 20.5t-33.5 18.5t-42.5 15.5q-53 17 -127 29z" />
<glyph unicode="&#x1b2;" horiz-adv-x="1258" d="M50 1217v43h450v-43q-68 -14 -106.5 -31t-38.5 -31v-661q0 -96 20.5 -172t59 -128.5t94 -80.5t126.5 -28q64 0 128.5 42t116.5 120.5t85 189.5t33 249q0 49 -8 104t-25.5 109.5t-45 104.5t-66.5 87.5t-89.5 59.5t-114.5 21l-22 61l230 57q45 -8 84.5 -34.5t72 -66.5 t57.5 -91.5t42 -108.5t26 -117t9 -118q0 -110 -21 -211t-58 -188t-89 -158t-113 -121.5t-130 -78t-141 -27.5q-88 0 -165 28.5t-134 87t-89.5 147.5t-32.5 211v711q0 12 -36.5 30t-108.5 32z" />
<glyph unicode="&#x1b3;" horiz-adv-x="1387" d="M0 1249q59 8 118 14.5t101 6.5q46 0 78 -39q37 -48 80 -113.5t86 -138.5t84 -150l76 -149l239 420q26 46 54.5 86t64 70t80.5 47t105 17q47 0 87.5 -18t70 -48t46.5 -69.5t17 -83.5q0 -20 -3.5 -43t-8.5 -35q-5 -13 -28 -26.5t-51.5 -25.5t-56.5 -21.5t-43 -13.5l-18 29 q14 27 24 51.5t10 60.5q0 25 -6 47.5t-18.5 39.5t-31 27t-43.5 10q-38 0 -69.5 -32t-54.5 -74l-305 -554v-426q0 -6 8.5 -14.5t28 -18.5t51 -20t78.5 -19v-43h-490v43q91 19 127.5 38.5t36.5 33.5v422q-37 81 -84 169t-96 171l-95 155q-46 71 -81 119q-9 11 -20.5 21 t-29.5 17.5t-45 12t-69 4.5z" />
<glyph unicode="&#x1b4;" horiz-adv-x="1141" d="M-47 -448q0 7 11 24.5t28 38t37.5 40.5t40.5 32q39 -25 70.5 -28.5t53.5 -3.5q31 0 64 17.5t65.5 50t61.5 79.5t52 107l23 62l-329 848q-9 28 -35 42.5t-76 25.5v43h386v-43q-39 -5 -63.5 -10t-38 -12.5t-15.5 -18.5t4 -27l246 -637l191 552q40 121 87.5 201t98 128 t102.5 67.5t101 19.5q39 0 69 -9.5t50.5 -22t31.5 -24.5t11 -16q0 -7 -11 -24.5t-28 -38t-38 -40.5t-40 -32q-23 25 -55.5 37.5t-58.5 12.5q-30 0 -58 -18.5t-54.5 -52.5t-51 -82t-46.5 -108l-299 -825q-44 -119 -97.5 -197.5t-110.5 -125t-113 -65.5t-105 -19 q-30 0 -59.5 4.5t-52 12t-36.5 17t-14 18.5z" />
<glyph unicode="&#x1b5;" horiz-adv-x="1071" d="M59 45l363 570h-212l-22 25l10 32l12 33h270l290 455h-459q-16 0 -35 -11t-37 -35t-34 -61.5t-27 -89.5l-57 12l29 301q27 -6 49.5 -9.5t44 -5t44.5 -1.5h668l25 -43l-323 -512h208l25 -23l-25 -67h-265l-325 -515h523q21 0 38 9.5t32.5 32.5t31.5 63t35 102l55 -14 q-2 -32 -3 -71l-4 -78l-2 -78q-2 -37 -3 -66h-891z" />
</font>
</defs>
</svg>
